<?xml version="1.0" encoding="utf-8" standalone="no"?>
<!DOCTYPE svg PUBLIC "-//W3C//DTD SVG 1.1//EN"
  "http://www.w3.org/Graphics/SVG/1.1/DTD/svg11.dtd">
<!-- Created with matplotlib (http://matplotlib.org/) -->
<svg height="288pt" version="1.1" viewBox="0 0 432 288" width="432pt" xmlns="http://www.w3.org/2000/svg" xmlns:xlink="http://www.w3.org/1999/xlink">
 <defs>
  <style type="text/css">
*{stroke-linecap:butt;stroke-linejoin:round;}
  </style>
 </defs>
 <g id="figure_1">
  <g id="patch_1">
   <path d="M 0 288 
L 432 288 
L 432 0 
L 0 0 
z
" style="fill:#ffffff;"/>
  </g>
  <g id="axes_1">
   <g id="patch_2">
    <path d="M 77.40608 228 
L 416.5 228 
L 416.5 15.5 
L 77.40608 15.5 
z
" style="fill:#ffffff;"/>
   </g>
   <g id="matplotlib.axis_1">
    <g id="xtick_1">
     <g id="line2d_1">
      <defs>
       <path d="M 0 0 
L 0 3.5 
" id="m59a813af76" style="stroke:#000000;stroke-width:0.8;"/>
      </defs>
      <g>
       <use style="stroke:#000000;stroke-width:0.8;" x="77.40608" xlink:href="#m59a813af76" y="228"/>
      </g>
     </g>
     <g id="text_1">
      <!-- $0.0$ -->
      <defs>
       <path d="M 42 31.640625 
C 42 37.75 41.90625 48.125 37.703125 56.109375 
C 34 63.109375 28.09375 65.59375 22.90625 65.59375 
C 18.09375 65.59375 12 63.40625 8.203125 56.203125 
C 4.203125 48.71875 3.796875 39.4375 3.796875 31.640625 
C 3.796875 25.953125 3.90625 17.28125 7 9.671875 
C 11.296875 -0.609375 19 -2 22.90625 -2 
C 27.5 -2 34.5 -0.109375 38.59375 9.375 
C 41.59375 16.28125 42 24.359375 42 31.640625 
z
M 22.90625 -0.40625 
C 16.5 -0.40625 12.703125 5.078125 11.296875 12.6875 
C 10.203125 18.5625 10.203125 27.15625 10.203125 32.75 
C 10.203125 40.4375 10.203125 46.828125 11.5 52.921875 
C 13.40625 61.390625 19 64 22.90625 64 
C 27 64 32.296875 61.296875 34.203125 53.125 
C 35.5 47.4375 35.59375 40.734375 35.59375 32.75 
C 35.59375 26.25 35.59375 18.265625 34.40625 12.375 
C 32.296875 1.484375 26.40625 -0.40625 22.90625 -0.40625 
z
" id="CMR17-48"/>
       <path d="M 18.40625 4.796875 
C 18.40625 7.6875 16 9.671875 13.59375 9.671875 
C 10.703125 9.671875 8.703125 7.28125 8.703125 4.890625 
C 8.703125 2 11.09375 0 13.5 0 
C 16.40625 0 18.40625 2.390625 18.40625 4.796875 
z
" id="CMMI12-58"/>
      </defs>
      <g transform="translate(66.70306 248.33795)scale(0.18 -0.18)">
       <use transform="scale(0.996264)" xlink:href="#CMR17-48"/>
       <use transform="translate(45.690477 0)scale(0.996264)" xlink:href="#CMMI12-58"/>
       <use transform="translate(72.787654 0)scale(0.996264)" xlink:href="#CMR17-48"/>
      </g>
     </g>
    </g>
    <g id="xtick_2">
     <g id="line2d_2">
      <g>
       <use style="stroke:#000000;stroke-width:0.8;" x="162.221968" xlink:href="#m59a813af76" y="228"/>
      </g>
     </g>
     <g id="text_2">
      <!-- $0.5$ -->
      <defs>
       <path d="M 11.40625 57.6875 
C 12.40625 57.28125 16.5 56 20.703125 56 
C 30 56 35.09375 61.109375 38 64.0625 
C 38 64.953125 38 65.5 37.40625 65.5 
C 37.296875 65.5 37.09375 65.5 36.296875 65.046875 
C 32.796875 63.40625 28.703125 62.078125 23.703125 62.078125 
C 20.703125 62.078125 16.203125 62.484375 11.296875 64.671875 
C 10.203125 65.171875 10 65.171875 9.90625 65.171875 
C 9.40625 65.171875 9.296875 65.0625 9.296875 63.078125 
L 9.296875 34.421875 
C 9.296875 32.640625 9.296875 32.140625 10.296875 32.140625 
C 10.796875 32.140625 11 32.34375 11.5 33.03125 
C 14.703125 37.515625 19.09375 39.40625 24.09375 39.40625 
C 27.59375 39.40625 35.09375 37.21875 35.09375 20.140625 
C 35.09375 16.953125 35.09375 11.171875 32.09375 6.578125 
C 29.59375 2.484375 25.703125 0.390625 21.40625 0.390625 
C 14.796875 0.390625 8.09375 5 6.296875 12.71875 
C 6.703125 12.609375 7.5 12.421875 7.90625 12.421875 
C 9.203125 12.421875 11.703125 13.125 11.703125 16.21875 
C 11.703125 18.90625 9.796875 20 7.90625 20 
C 5.59375 20 4.09375 18.59375 4.09375 15.796875 
C 4.09375 7.09375 11 -2 21.59375 -2 
C 31.90625 -2 41.703125 6.875 41.703125 19.75 
C 41.703125 31.71875 33.90625 41 24.203125 41 
C 19.09375 41 14.796875 39.109375 11.40625 35.53125 
z
" id="CMR17-53"/>
      </defs>
      <g transform="translate(151.518948 248.33795)scale(0.18 -0.18)">
       <use transform="scale(0.996264)" xlink:href="#CMR17-48"/>
       <use transform="translate(45.690477 0)scale(0.996264)" xlink:href="#CMMI12-58"/>
       <use transform="translate(72.787654 0)scale(0.996264)" xlink:href="#CMR17-53"/>
      </g>
     </g>
    </g>
    <g id="xtick_3">
     <g id="line2d_3">
      <g>
       <use style="stroke:#000000;stroke-width:0.8;" x="247.037856" xlink:href="#m59a813af76" y="228"/>
      </g>
     </g>
     <g id="text_3">
      <!-- $1.0$ -->
      <defs>
       <path d="M 26.59375 63.40625 
C 26.59375 65.5 26.5 65.5 25.09375 65.5 
C 21.203125 61.1875 15.296875 59.796875 9.703125 59.796875 
C 9.40625 59.796875 8.90625 59.796875 8.796875 59.5 
C 8.703125 59.296875 8.703125 59.09375 8.703125 57 
C 11.796875 57 17 57.59375 21 59.984375 
L 21 7.203125 
C 21 3.6875 20.796875 2.5 12.203125 2.5 
L 9.203125 2.5 
L 9.203125 0 
C 14 0 19 0 23.796875 0 
C 28.59375 0 33.59375 0 38.40625 0 
L 38.40625 2.5 
L 35.40625 2.5 
C 26.796875 2.5 26.59375 3.59375 26.59375 7.15625 
z
" id="CMR17-49"/>
      </defs>
      <g transform="translate(236.334836 248.33795)scale(0.18 -0.18)">
       <use transform="scale(0.996264)" xlink:href="#CMR17-49"/>
       <use transform="translate(45.690477 0)scale(0.996264)" xlink:href="#CMMI12-58"/>
       <use transform="translate(72.787654 0)scale(0.996264)" xlink:href="#CMR17-48"/>
      </g>
     </g>
    </g>
    <g id="xtick_4">
     <g id="line2d_4">
      <g>
       <use style="stroke:#000000;stroke-width:0.8;" x="331.853744" xlink:href="#m59a813af76" y="228"/>
      </g>
     </g>
     <g id="text_4">
      <!-- $1.5$ -->
      <g transform="translate(321.150724 248.33795)scale(0.18 -0.18)">
       <use transform="scale(0.996264)" xlink:href="#CMR17-49"/>
       <use transform="translate(45.690477 0)scale(0.996264)" xlink:href="#CMMI12-58"/>
       <use transform="translate(72.787654 0)scale(0.996264)" xlink:href="#CMR17-53"/>
      </g>
     </g>
    </g>
    <g id="text_5">
     <!-- Time (s) -->
     <defs>
      <path d="M 63.296875 72 
L 3.40625 72 
L 1.90625 44.265625 
L 6.203125 44.265625 
C 6.90625 49.25 7.796875 53.046875 8.90625 56.234375 
C 11.5 63.515625 16.296875 67.3125 23.09375 67.3125 
C 26.40625 67.3125 27.796875 66.203125 27.796875 63.71875 
L 27.796875 12.28125 
L 27.796875 9.375 
C 27.796875 5.1875 26.90625 4.6875 18.796875 4.6875 
L 16.203125 4.6875 
L 16.203125 0 
L 50.5 0 
L 50.5 4.6875 
L 47.90625 4.6875 
C 39.90625 4.6875 39 5.1875 39 9.375 
L 39 12.28125 
L 39 63.71875 
C 39 66.203125 40.40625 67.3125 43.703125 67.3125 
C 49.796875 67.3125 54.703125 63.90625 57.203125 57.921875 
C 58.703125 54.25 59.703125 49.953125 60.5 44.265625 
L 64.796875 44.265625 
z
" id="Century_Schoolbook_L_Roman-84"/>
      <path d="M 20.59375 46 
L 1.796875 46 
L 1.796875 41.21875 
L 6.90625 41.21875 
C 10.59375 41.21875 11.203125 40.515625 11.203125 36.203125 
L 11.203125 12.296875 
L 11.203125 8.296875 
C 11.203125 4.296875 10.09375 3.59375 3.703125 3.59375 
L 3 3.59375 
L 3 0 
L 28.90625 0 
L 28.90625 3.59375 
L 28.203125 3.59375 
C 21.703125 3.59375 20.59375 4.28125 20.59375 8.21875 
L 20.59375 12.171875 
z
M 15.90625 71.578125 
C 12.703125 71.578125 10.09375 68.984375 10.09375 65.796875 
C 10.09375 62.703125 12.703125 60 15.796875 60 
C 19.09375 60 21.703125 62.59375 21.703125 65.796875 
C 21.703125 68.984375 19.09375 71.578125 15.90625 71.578125 
z
" id="Century_Schoolbook_L_Roman-105"/>
      <path d="M 20.09375 46 
L 2.296875 46 
L 2.296875 41.21875 
L 6.40625 41.21875 
C 10.09375 41.21875 10.703125 40.515625 10.703125 36.203125 
L 10.703125 12.296875 
L 10.703125 8.40625 
C 10.703125 4.296875 9.59375 3.59375 3.203125 3.59375 
L 2.796875 3.59375 
L 2.796875 0 
L 28 0 
L 28 3.59375 
L 27.59375 3.59375 
C 21.203125 3.59375 20.09375 4.296875 20.09375 8.390625 
L 20.09375 12.28125 
L 20.09375 26.453125 
C 20.09375 35.328125 25 41.921875 31.5 41.921875 
C 34.09375 41.921875 36.90625 40.515625 38.09375 38.625 
C 39.5 36.734375 40.09375 33.828125 40.09375 29.734375 
L 40.09375 12.28125 
L 40.09375 8.28125 
C 40.09375 4.296875 39 3.59375 32.5 3.59375 
L 32.09375 3.59375 
L 32.09375 0 
L 57.40625 0 
L 57.40625 3.59375 
L 57 3.59375 
C 50.59375 3.59375 49.5 4.296875 49.5 8.28125 
L 49.5 12.28125 
L 49.5 25.546875 
C 49.5 35.53125 54 41.921875 61 41.921875 
C 64.296875 41.921875 67 40.015625 68.296875 36.921875 
C 69.203125 34.734375 69.5 32.53125 69.5 28.640625 
L 69.5 12.28125 
L 69.5 8.28125 
C 69.5 4.296875 68.40625 3.59375 61.90625 3.59375 
L 61.5 3.59375 
L 61.5 0 
L 86.796875 0 
L 86.796875 3.59375 
L 86.40625 3.59375 
C 80 3.59375 78.90625 4.296875 78.90625 8.390625 
L 78.90625 12.28125 
L 78.90625 30.640625 
C 78.90625 36.828125 78.296875 38.921875 75.703125 42.3125 
C 72.796875 46.015625 68.703125 48 63.90625 48 
C 57.40625 48 52.59375 44.9375 48.296875 38.109375 
C 46.59375 44.046875 41.203125 48 34.5 48 
C 28.5 48 24 45.140625 20.09375 38.921875 
z
" id="Century_Schoolbook_L_Roman-109"/>
      <path d="M 46.5 23 
C 46.59375 37.8125 38.09375 48.28125 25.90625 48.28125 
C 13.09375 48.28125 3.5 37.25 3.5 22.34375 
C 3.5 8.4375 12.59375 -1 26.09375 -1 
C 35.59375 -1 42.40625 3.6875 46.5 13.1875 
L 43 15.09375 
C 38.90625 7.390625 34.703125 4.390625 28 4.390625 
C 22.90625 4.390625 19.203125 6.59375 16.59375 11 
C 14.796875 14 14 17.5 14.09375 23 
z
M 14.203125 27.296875 
C 14.203125 30.34375 14.59375 32.5 15.59375 35.25 
C 17.703125 41.140625 20.90625 44 25.703125 44 
C 31.796875 44 35.796875 38.78125 35.796875 30.921875 
C 35.796875 28.078125 34.90625 27.296875 31.703125 27.296875 
z
" id="Century_Schoolbook_L_Roman-101"/>
      <path d="M 27.90625 73.453125 
C 21.90625 69.765625 18.703125 67.171875 15.296875 63.171875 
C 7.703125 54.1875 3.59375 42.71875 3.59375 30.640625 
C 3.59375 19.265625 7.203125 8.578125 13.90625 -0.296875 
C 17.703125 -5.09375 21.09375 -8.078125 27.90625 -12.28125 
L 27.90625 -8.578125 
C 17.90625 0.203125 13.90625 11.484375 13.90625 30.640625 
C 13.90625 49.796875 17.90625 60.984375 27.90625 69.765625 
z
" id="Century_Schoolbook_L_Roman-40"/>
      <path d="M 39 48 
L 35.5 48 
L 32.59375 44.40625 
C 29 47.203125 25.40625 48.390625 20.40625 48.390625 
C 11.59375 48.390625 5.796875 42.625 5.796875 33.953125 
C 5.796875 30.078125 7.09375 26.78125 9.296875 24.8125 
C 11.59375 22.703125 13.90625 21.71875 19.90625 20.3125 
L 25.203125 19.125 
C 33.09375 17.234375 35.90625 15.234375 35.90625 11.265625 
C 35.90625 6.578125 31.796875 3.296875 25.90625 3.296875 
C 17.5 3.296875 11.5 8.765625 9.09375 18.875 
L 5.09375 18.875 
L 5.09375 0 
L 8.59375 0 
L 12.09375 3.90625 
C 16.203125 0.59375 20.796875 -1 25.796875 -1 
C 35.59375 -1 42.09375 5.078125 42.09375 14.34375 
C 42.09375 18.71875 40.703125 22.09375 37.90625 24.390625 
C 35.5 26.484375 33.5 27.28125 27.40625 28.5625 
L 22.40625 29.671875 
C 16.90625 30.859375 16.90625 30.859375 15.09375 31.859375 
C 12.90625 32.859375 11.59375 34.9375 11.59375 37.140625 
C 11.59375 41.109375 15.40625 44 20.90625 44 
C 24.703125 44 27.796875 42.703125 30.59375 40.015625 
C 32.796875 37.8125 33.90625 35.828125 35.5 31.234375 
L 39 31.234375 
z
" id="Century_Schoolbook_L_Roman-115"/>
      <path d="M 5.40625 -12.28125 
C 11.40625 -8.578125 14.59375 -5.984375 18 -1.890625 
C 25.59375 6.984375 29.703125 18.5625 29.703125 30.640625 
C 29.703125 42.015625 26.09375 52.703125 19.40625 61.484375 
C 15.59375 66.375 12.203125 69.359375 5.40625 73.453125 
L 5.40625 69.765625 
C 15.40625 60.984375 19.40625 49.796875 19.40625 30.640625 
C 19.40625 11.375 15.40625 0.203125 5.40625 -8.578125 
z
" id="Century_Schoolbook_L_Roman-41"/>
     </defs>
     <g transform="translate(212.951575 270.36577)scale(0.18 -0.18)">
      <use transform="translate(0 -0.29235)scale(0.996264)" xlink:href="#Century_Schoolbook_L_Roman-84"/>
      <use transform="translate(66.450031 -0.29235)scale(0.996264)" xlink:href="#Century_Schoolbook_L_Roman-105"/>
      <use transform="translate(97.831344 -0.29235)scale(0.996264)" xlink:href="#Century_Schoolbook_L_Roman-109"/>
      <use transform="translate(186.398251 -0.29235)scale(0.996264)" xlink:href="#Century_Schoolbook_L_Roman-101"/>
      <use transform="translate(263.906621 -0.29235)scale(0.996264)" xlink:href="#Century_Schoolbook_L_Roman-40"/>
      <use transform="translate(297.081851 -0.29235)scale(0.996264)" xlink:href="#Century_Schoolbook_L_Roman-115"/>
      <use transform="translate(343.207661 -0.29235)scale(0.996264)" xlink:href="#Century_Schoolbook_L_Roman-41"/>
     </g>
    </g>
   </g>
   <g id="matplotlib.axis_2">
    <g id="ytick_1">
     <g id="line2d_5">
      <defs>
       <path d="M 0 0 
L -3.5 0 
" id="m64864ef35a" style="stroke:#000000;stroke-width:0.8;"/>
      </defs>
      <g>
       <use style="stroke:#000000;stroke-width:0.8;" x="77.40608" xlink:href="#m64864ef35a" y="228"/>
      </g>
     </g>
     <g id="text_6">
      <!-- $-1.0$ -->
      <defs>
       <path d="M 65.90625 23 
C 67.59375 23 69.40625 23 69.40625 25 
C 69.40625 27 67.59375 27 65.90625 27 
L 11.796875 27 
C 10.09375 27 8.296875 27 8.296875 25 
C 8.296875 23 10.09375 23 11.796875 23 
z
" id="CMSY10-0"/>
      </defs>
      <g transform="translate(35 234.668975)scale(0.18 -0.18)">
       <use transform="translate(0 -0.031134)scale(0.996264)" xlink:href="#CMSY10-0"/>
       <use transform="translate(77.487468 -0.031134)scale(0.996264)" xlink:href="#CMR17-49"/>
       <use transform="translate(123.177945 -0.031134)scale(0.996264)" xlink:href="#CMMI12-58"/>
       <use transform="translate(150.275122 -0.031134)scale(0.996264)" xlink:href="#CMR17-48"/>
      </g>
     </g>
    </g>
    <g id="ytick_2">
     <g id="line2d_6">
      <g>
       <use style="stroke:#000000;stroke-width:0.8;" x="77.40608" xlink:href="#m64864ef35a" y="179.404684"/>
      </g>
     </g>
     <g id="text_7">
      <!-- $-0.5$ -->
      <g transform="translate(35 186.073659)scale(0.18 -0.18)">
       <use transform="translate(0 -0.031134)scale(0.996264)" xlink:href="#CMSY10-0"/>
       <use transform="translate(77.487468 -0.031134)scale(0.996264)" xlink:href="#CMR17-48"/>
       <use transform="translate(123.177945 -0.031134)scale(0.996264)" xlink:href="#CMMI12-58"/>
       <use transform="translate(150.275122 -0.031134)scale(0.996264)" xlink:href="#CMR17-53"/>
      </g>
     </g>
    </g>
    <g id="ytick_3">
     <g id="line2d_7">
      <g>
       <use style="stroke:#000000;stroke-width:0.8;" x="77.40608" xlink:href="#m64864ef35a" y="130.809369"/>
      </g>
     </g>
     <g id="text_8">
      <!-- $0.0$ -->
      <g transform="translate(49.00004 137.478344)scale(0.18 -0.18)">
       <use transform="scale(0.996264)" xlink:href="#CMR17-48"/>
       <use transform="translate(45.690477 0)scale(0.996264)" xlink:href="#CMMI12-58"/>
       <use transform="translate(72.787654 0)scale(0.996264)" xlink:href="#CMR17-48"/>
      </g>
     </g>
    </g>
    <g id="ytick_4">
     <g id="line2d_8">
      <g>
       <use style="stroke:#000000;stroke-width:0.8;" x="77.40608" xlink:href="#m64864ef35a" y="82.214053"/>
      </g>
     </g>
     <g id="text_9">
      <!-- $0.5$ -->
      <g transform="translate(49.00004 88.883028)scale(0.18 -0.18)">
       <use transform="scale(0.996264)" xlink:href="#CMR17-48"/>
       <use transform="translate(45.690477 0)scale(0.996264)" xlink:href="#CMMI12-58"/>
       <use transform="translate(72.787654 0)scale(0.996264)" xlink:href="#CMR17-53"/>
      </g>
     </g>
    </g>
    <g id="ytick_5">
     <g id="line2d_9">
      <g>
       <use style="stroke:#000000;stroke-width:0.8;" x="77.40608" xlink:href="#m64864ef35a" y="33.618738"/>
      </g>
     </g>
     <g id="text_10">
      <!-- $1.0$ -->
      <g transform="translate(49.00004 40.287713)scale(0.18 -0.18)">
       <use transform="scale(0.996264)" xlink:href="#CMR17-49"/>
       <use transform="translate(45.690477 0)scale(0.996264)" xlink:href="#CMMI12-58"/>
       <use transform="translate(72.787654 0)scale(0.996264)" xlink:href="#CMR17-48"/>
      </g>
     </g>
    </g>
    <g id="text_11">
     <!-- Position (m) -->
     <defs>
      <path d="M 24.796875 32 
L 36.09375 32 
C 45.09375 32 49.796875 32.703125 53.796875 34.59375 
C 60.90625 38 64.90625 44.359375 64.90625 52.25 
C 64.90625 59.84375 61.40625 65.609375 54.796875 68.90625 
C 50.90625 70.90625 44.703125 72 37.796875 72 
L 2.796875 72 
L 2.796875 67.3125 
L 4.59375 67.3125 
C 12.703125 67.3125 13.59375 66.8125 13.59375 62.609375 
L 13.59375 59.734375 
L 13.59375 12.28125 
L 13.59375 9.375 
C 13.59375 5.1875 12.703125 4.6875 4.59375 4.6875 
L 2.796875 4.6875 
L 2.796875 0 
L 36.40625 0 
L 36.40625 4.6875 
L 33.796875 4.6875 
C 25.703125 4.6875 24.796875 5.1875 24.796875 9.375 
L 24.796875 12.265625 
z
M 24.796875 36.703125 
L 24.796875 62.21875 
C 24.796875 66.8125 25.40625 67.3125 30.90625 67.3125 
L 37.296875 67.3125 
C 47.703125 67.3125 52.59375 62.421875 52.59375 51.859375 
C 52.59375 41.59375 47.5 36.703125 36.90625 36.703125 
z
" id="Century_Schoolbook_L_Roman-80"/>
      <path d="M 25.203125 48.28125 
C 13 48.28125 3.40625 37.453125 3.40625 23.546875 
C 3.40625 9.9375 13 -1 25 -1 
C 37 -1 46.59375 9.9375 46.59375 23.640625 
C 46.59375 37.25 37 48.28125 25.203125 48.28125 
z
M 25.203125 44 
C 32.203125 44 36.09375 36.75 36.09375 23.640625 
C 36.09375 10.453125 32.203125 3.296875 25 3.296875 
C 17.796875 3.296875 13.90625 10.453125 13.90625 23.546875 
C 13.90625 37.046875 17.703125 44 25.203125 44 
z
" id="Century_Schoolbook_L_Roman-111"/>
      <path d="M 19.40625 47 
L 19.40625 67 
L 15.296875 67 
C 14.296875 53.875 9.90625 47.1875 1.796875 46.59375 
L 1.796875 42.703125 
L 10 42.703125 
L 10 17.265625 
C 10 10.28125 10.203125 7.78125 11.203125 5.484375 
C 12.796875 1.296875 16.796875 -1 22.59375 -1 
C 26.5 -1 29.90625 0.203125 32.203125 2.390625 
C 35.5 5.59375 37.40625 10.875 37.40625 16.375 
C 37.40625 16.96875 37.40625 17.671875 37.296875 18.671875 
L 33.09375 18.671875 
C 32.796875 9.6875 30.203125 5.09375 25.296875 5.09375 
C 23 5.09375 21 6.28125 20.296875 7.984375 
C 19.703125 9.375 19.40625 11.875 19.40625 15.46875 
L 19.40625 42.703125 
L 34.09375 42.703125 
L 34.09375 47 
z
" id="Century_Schoolbook_L_Roman-116"/>
      <path d="M 20 46 
L 2.703125 46 
L 2.703125 41.21875 
L 6.296875 41.21875 
C 10 41.21875 10.59375 40.515625 10.59375 36.203125 
L 10.59375 12.296875 
L 10.59375 8.296875 
C 10.59375 4.296875 9.5 3.59375 3.09375 3.59375 
L 2.703125 3.59375 
L 2.703125 0 
L 28 0 
L 28 3.59375 
L 27.59375 3.59375 
C 21.09375 3.59375 20 4.296875 20 8.28125 
L 20 12.28125 
L 20 22.65625 
C 20 27.546875 20.703125 32.03125 21.796875 34.328125 
C 23.90625 38.828125 28.40625 41.921875 32.703125 41.921875 
C 35.296875 41.921875 38.296875 40.421875 39.796875 38.421875 
C 41.296875 36.328125 42 33.234375 42 28.4375 
L 42 12.28125 
L 42 8.28125 
C 42 4.296875 40.90625 3.59375 34.40625 3.59375 
L 34 3.59375 
L 34 0 
L 59.296875 0 
L 59.296875 3.59375 
L 58.90625 3.59375 
C 52.5 3.59375 51.40625 4.296875 51.40625 8.28125 
L 51.40625 12.28125 
L 51.40625 27.953125 
C 51.40625 35.125 51.09375 36.921875 49.296875 40.328125 
C 46.796875 45.109375 41.703125 48 35.796875 48 
C 29.40625 48 24.40625 45.046875 20 38.515625 
z
" id="Century_Schoolbook_L_Roman-110"/>
     </defs>
     <g transform="translate(26.31013 171.753265)rotate(-90)scale(0.18 -0.18)">
      <use transform="translate(0 -0.29235)scale(0.996264)" xlink:href="#Century_Schoolbook_L_Roman-80"/>
      <use transform="translate(62.763873 -0.29235)scale(0.996264)" xlink:href="#Century_Schoolbook_L_Roman-111"/>
      <use transform="translate(112.577073 -0.29235)scale(0.996264)" xlink:href="#Century_Schoolbook_L_Roman-115"/>
      <use transform="translate(158.702884 -0.29235)scale(0.996264)" xlink:href="#Century_Schoolbook_L_Roman-105"/>
      <use transform="translate(190.084197 -0.29235)scale(0.996264)" xlink:href="#Century_Schoolbook_L_Roman-116"/>
      <use transform="translate(228.837903 -0.29235)scale(0.996264)" xlink:href="#Century_Schoolbook_L_Roman-105"/>
      <use transform="translate(260.219216 -0.29235)scale(0.996264)" xlink:href="#Century_Schoolbook_L_Roman-111"/>
      <use transform="translate(310.032416 -0.29235)scale(0.996264)" xlink:href="#Century_Schoolbook_L_Roman-110"/>
      <use transform="translate(398.599217 -0.29235)scale(0.996264)" xlink:href="#Century_Schoolbook_L_Roman-40"/>
      <use transform="translate(431.774446 -0.29235)scale(0.996264)" xlink:href="#Century_Schoolbook_L_Roman-109"/>
      <use transform="translate(520.341353 -0.29235)scale(0.996264)" xlink:href="#Century_Schoolbook_L_Roman-41"/>
     </g>
    </g>
   </g>
   <g id="line2d_10">
    <path clip-path="url(#pff900c6c82)" d="M 77.40608 130.809369 
L 77.575712 149.418596 
L 96.235207 149.418596 
L 96.404839 181.664433 
L 102.002688 181.664433 
L 102.172319 137.311502 
L 214.129291 137.311502 
L 214.298923 102.558097 
L 226.342779 102.558097 
L 226.512411 97.505003 
L 251.617914 97.505003 
L 251.787546 51.096321 
L 286.053164 51.096321 
L 286.222796 33.618738 
L 416.5 33.618738 
L 416.5 33.618738 
" style="fill:none;stroke:#e41a1c;stroke-linecap:square;stroke-width:2;"/>
   </g>
   <g id="line2d_11">
    <path clip-path="url(#pff900c6c82)" d="M 77.40608 165.171383 
L 78.763134 165.050239 
L 80.120188 164.72468 
L 81.646874 164.120227 
L 83.17356 163.273276 
L 84.869878 162.064928 
L 86.735828 160.439503 
L 88.771409 158.358381 
L 91.146254 155.604157 
L 94.369258 151.49472 
L 97.592261 147.418418 
L 98.779684 146.376365 
L 99.797474 145.763283 
L 100.815265 145.413593 
L 101.833056 145.329859 
L 104.886428 145.444928 
L 106.922009 145.230829 
L 108.95759 144.784754 
L 111.162803 144.055039 
L 113.537648 143.010936 
L 116.082125 141.641603 
L 119.305129 139.631975 
L 130.670458 132.260856 
L 133.214934 131.015961 
L 135.420147 130.168088 
L 137.455729 129.602785 
L 139.49131 129.263289 
L 141.526891 129.159545 
L 143.562473 129.294592 
L 145.598054 129.664474 
L 147.633635 130.258356 
L 149.838848 131.134181 
L 152.213693 132.313742 
L 155.097433 134.008567 
L 158.998964 136.589345 
L 165.614603 140.990719 
L 168.498344 142.631631 
L 171.04282 143.823131 
L 173.248033 144.61664 
L 175.283615 145.126783 
L 177.319196 145.407997 
L 179.354777 145.452045 
L 181.390359 145.257636 
L 183.42594 144.830466 
L 185.461521 144.183046 
L 187.666734 143.255271 
L 190.211211 141.933357 
L 193.264583 140.074243 
L 198.014273 136.870589 
L 202.933594 133.632231 
L 205.817334 131.991328 
L 208.361811 130.799836 
L 210.567024 130.006336 
L 212.602605 129.496203 
L 215.995241 128.768841 
L 217.182663 128.117489 
L 218.370086 127.21096 
L 219.72714 125.874188 
L 221.084194 124.233455 
L 222.61088 122.051077 
L 224.307198 119.250857 
L 226.342779 115.44755 
L 228.378361 111.198654 
L 230.922837 105.339431 
L 235.502895 94.081201 
L 239.065162 85.588204 
L 241.440007 80.473536 
L 243.475589 76.622488 
L 245.171906 73.876283 
L 246.698592 71.814571 
L 248.055647 70.33678 
L 249.243069 69.333706 
L 250.430491 68.611885 
L 251.448282 68.222577 
L 253.314232 67.641003 
L 254.840918 66.870232 
L 256.367604 65.839276 
L 258.063921 64.409434 
L 259.929871 62.524872 
L 261.965452 60.149833 
L 264.509929 56.817021 
L 268.241828 51.501892 
L 273.330781 44.29337 
L 275.875258 41.074858 
L 277.910839 38.823434 
L 279.776789 37.074013 
L 281.473106 35.782278 
L 282.999792 34.885643 
L 284.526478 34.256398 
L 285.883533 33.930037 
L 291.651013 33.187077 
L 298.436284 32.457483 
L 303.355605 32.14983 
L 307.935663 32.086174 
L 312.515721 32.247536 
L 317.604675 32.660881 
L 324.389946 33.463538 
L 334.737484 34.689437 
L 339.826437 35.051377 
L 344.406495 35.156664 
L 348.986553 35.036146 
L 353.905875 34.676053 
L 360.012619 33.990119 
L 373.074265 32.457468 
L 377.993587 32.149823 
L 382.573645 32.086176 
L 387.153703 32.247546 
L 392.242656 32.660899 
L 399.027927 33.463561 
L 409.375465 34.689453 
L 414.464419 35.051385 
L 416.5 35.125826 
L 416.5 35.125826 
" style="fill:none;stroke:#377eb8;stroke-dasharray:7.4,3.2;stroke-dashoffset:0;stroke-linecap:round;stroke-width:2;"/>
   </g>
   <g id="line2d_12">
    <path clip-path="url(#pff900c6c82)" d="M 77.40608 165.171383 
L 78.593502 165.036563 
L 79.780925 164.676384 
L 80.968347 164.09693 
L 82.325402 163.177023 
L 83.852087 161.834597 
L 85.548405 159.998967 
L 87.414355 157.624161 
L 89.7892 154.193485 
L 93.69073 148.062047 
L 96.744102 143.390957 
L 97.761893 142.242119 
L 98.610052 141.602431 
L 99.458211 141.256661 
L 100.136738 141.193444 
L 100.815265 141.320296 
L 101.663424 141.745154 
L 103.020478 142.834615 
L 105.225691 144.44231 
L 107.091641 145.530121 
L 108.787959 146.26721 
L 110.314645 146.706753 
L 111.841331 146.923272 
L 113.368016 146.911627 
L 114.894702 146.672095 
L 116.421388 146.210362 
L 118.117706 145.450221 
L 119.983656 144.339781 
L 122.019237 142.846032 
L 124.394082 140.813578 
L 127.956349 137.428503 
L 132.536407 133.116081 
L 134.911252 131.175335 
L 136.946833 129.787876 
L 138.812783 128.793329 
L 140.509101 128.150328 
L 142.035787 127.800694 
L 143.562473 127.676826 
L 145.089159 127.781666 
L 146.615845 128.112725 
L 148.142531 128.662143 
L 149.838848 129.512679 
L 151.704798 130.710962 
L 153.740379 132.283163 
L 156.284856 134.537703 
L 165.784235 143.276418 
L 167.819817 144.695704 
L 169.685766 145.724624 
L 171.382084 146.402137 
L 172.90877 146.78463 
L 174.435456 146.94225 
L 175.962142 146.871256 
L 177.488828 146.573333 
L 179.015514 146.055553 
L 180.711832 145.237503 
L 182.577781 144.07062 
L 184.613362 142.526233 
L 187.157839 140.295309 
L 191.568265 136.056084 
L 195.130532 132.772602 
L 197.505377 130.883203 
L 199.540959 129.553214 
L 201.237276 128.692627 
L 202.933594 128.084508 
L 204.46028 127.767946 
L 205.986966 127.677928 
L 207.513652 127.816592 
L 209.040338 128.180645 
L 210.567024 128.761445 
L 212.263342 129.644056 
L 214.129291 130.873142 
L 215.147082 131.488155 
L 215.995241 131.768854 
L 216.8434 131.835246 
L 217.691559 131.686844 
L 218.539718 131.324737 
L 219.557508 130.611967 
L 220.575299 129.602898 
L 221.762721 128.065547 
L 222.950144 126.161623 
L 224.307198 123.57217 
L 225.833884 120.190436 
L 227.530202 115.914517 
L 229.565783 110.094724 
L 232.279891 101.555628 
L 237.87774 83.726574 
L 239.913321 78.040166 
L 241.609639 73.918813 
L 243.136325 70.797276 
L 244.493379 68.552839 
L 245.680802 67.033398 
L 246.698592 66.078905 
L 247.546751 65.536719 
L 248.39491 65.229071 
L 249.243069 65.158217 
L 250.091228 65.324678 
L 250.939387 65.727233 
L 251.957177 66.501764 
L 253.314232 67.464584 
L 254.501654 68.055586 
L 255.689076 68.402863 
L 256.876499 68.501424 
L 258.063921 68.349851 
L 259.251344 67.950325 
L 260.438766 67.308585 
L 261.79582 66.290566 
L 263.152875 64.987447 
L 264.679561 63.211293 
L 266.375878 60.902566 
L 268.41146 57.759494 
L 271.2952 52.860236 
L 276.723417 43.574635 
L 278.92863 40.292453 
L 280.624948 38.123427 
L 282.151633 36.494622 
L 283.508688 35.336758 
L 284.865742 34.474603 
L 286.053164 33.975649 
L 292.838435 32.000529 
L 296.231071 31.24058 
L 299.114811 30.809481 
L 301.828919 30.619589 
L 304.543028 30.653742 
L 307.257136 30.909389 
L 310.140877 31.402071 
L 313.533512 32.216723 
L 318.452834 33.657693 
L 324.389946 35.35137 
L 327.782581 36.078928 
L 330.666321 36.47481 
L 333.38043 36.627895 
L 336.094538 36.556187 
L 338.808647 36.265043 
L 341.862019 35.702884 
L 345.424286 34.803218 
L 352.039925 32.831767 
L 356.28072 31.694725 
L 359.503723 31.054181 
L 362.387463 30.708054 
L 365.101572 30.606083 
L 367.81568 30.729166 
L 370.699421 31.095962 
L 373.752792 31.715075 
L 377.484692 32.708444 
L 388.341125 35.758492 
L 391.394497 36.301432 
L 394.278237 36.582285 
L 396.992346 36.618648 
L 399.706454 36.43091 
L 402.590194 36.001856 
L 405.813198 35.287003 
L 410.053993 34.094014 
L 416.5 32.193455 
L 416.5 32.193455 
" style="fill:none;stroke:#4daf4a;stroke-dasharray:12.8,3.2,2,3.2;stroke-dashoffset:0;stroke-linecap:round;stroke-width:2;"/>
   </g>
   <g id="patch_3">
    <path d="M 77.40608 228 
L 77.40608 15.5 
" style="fill:none;stroke:#000000;stroke-linecap:square;stroke-linejoin:miter;stroke-width:0.8;"/>
   </g>
   <g id="patch_4">
    <path d="M 416.5 228 
L 416.5 15.5 
" style="fill:none;"/>
   </g>
   <g id="patch_5">
    <path d="M 77.40608 228 
L 416.5 228 
" style="fill:none;stroke:#000000;stroke-linecap:square;stroke-linejoin:miter;stroke-width:0.8;"/>
   </g>
   <g id="patch_6">
    <path d="M 77.40608 15.5 
L 416.5 15.5 
" style="fill:none;"/>
   </g>
   <g id="legend_1">
    <g id="patch_7">
     <path d="M 224.08237 226.4 
L 411.7 226.4 
Q 414.9 226.4 414.9 223.2 
L 414.9 151.47491 
Q 414.9 148.27491 411.7 148.27491 
L 224.08237 148.27491 
Q 220.88237 148.27491 220.88237 151.47491 
L 220.88237 223.2 
Q 220.88237 226.4 224.08237 226.4 
z
" style="fill:#ffffff;stroke:#000000;stroke-linejoin:miter;"/>
    </g>
    <g id="line2d_13">
     <path d="M 227.28237 160.93087 
L 259.28237 160.93087 
" style="fill:none;stroke:#e41a1c;stroke-linecap:square;stroke-width:2;"/>
    </g>
    <g id="line2d_14"/>
    <g id="text_12">
     <!-- Input -->
     <defs>
      <path d="M 26 59.734375 
L 26 62.609375 
C 26 66.8125 26.90625 67.3125 34.90625 67.3125 
L 36.90625 67.3125 
L 36.90625 72 
L 3.796875 72 
L 3.796875 67.3125 
L 5.796875 67.3125 
C 13.90625 67.3125 14.796875 66.8125 14.796875 62.609375 
L 14.796875 59.734375 
L 14.796875 12.28125 
L 14.796875 9.375 
C 14.796875 5.1875 13.90625 4.6875 5.796875 4.6875 
L 3.796875 4.6875 
L 3.796875 0 
L 36.90625 0 
L 36.90625 4.6875 
L 34.90625 4.6875 
C 26.90625 4.6875 26 5.1875 26 9.375 
L 26 12.28125 
z
" id="Century_Schoolbook_L_Roman-73"/>
      <path d="M 20.09375 46 
L 2.796875 46 
L 2.796875 41.21875 
L 6.40625 41.21875 
C 10.09375 41.21875 10.703125 40.515625 10.703125 36.21875 
L 10.703125 -7.75 
L 10.703125 -11.71875 
C 10.703125 -15.71875 9.59375 -16.40625 3.203125 -16.40625 
L 2.796875 -16.40625 
L 2.796875 -20 
L 28.796875 -20 
L 28.796875 -16.40625 
L 27.703125 -16.40625 
C 21.203125 -16.40625 20.09375 -15.71875 20.09375 -11.734375 
L 20.09375 -7.75 
L 20.09375 6.6875 
C 23.40625 0.90625 27.203125 -1.390625 33.296875 -1.390625 
C 44.90625 -1.390625 53.5 9.265625 53.5 23.5 
C 53.5 37.265625 44.90625 48 33.90625 48 
C 27.703125 48 23.59375 45.4375 20.09375 39.515625 
z
M 32.09375 42.609375 
C 39 42.609375 43 35.75 43 24.09375 
C 43 11.265625 38.90625 4 31.796875 4 
C 24.703125 4 20 11.375 20 22.8125 
C 20 35.140625 24.5 42.609375 32.09375 42.609375 
z
" id="Century_Schoolbook_L_Roman-112"/>
      <path d="M 41.203125 0 
L 59.40625 0 
L 59.40625 4.703125 
L 56.90625 4.703125 
C 51.40625 4.703125 50.59375 5.59375 50.59375 11.953125 
L 50.59375 46.78125 
L 31.796875 46.78125 
L 31.796875 42 
L 36.90625 42 
C 40.59375 42 41.203125 41.296875 41.203125 36.953125 
L 41.203125 24.5625 
C 41.203125 18.8125 40.59375 15.484375 39.09375 12.15625 
C 37 7.71875 33 5.09375 28.09375 5.09375 
C 25 5.09375 22.40625 6.1875 21.09375 8.171875 
C 19.796875 10.046875 19.59375 11.046875 19.59375 16.5 
L 19.59375 46.78125 
L 2.09375 46.78125 
L 2.09375 42 
L 5.90625 42 
C 9.59375 42 10.203125 41.296875 10.203125 36.953125 
L 10.203125 15.21875 
C 10.203125 10.078125 10.59375 7.765625 12.09375 5.453125 
C 14.796875 1.3125 19.59375 -1 25.59375 -1 
C 32.203125 -1 36.796875 1.71875 41.203125 8.125 
z
" id="Century_Schoolbook_L_Roman-117"/>
     </defs>
     <g transform="translate(272.08237 166.53087)scale(0.16 -0.16)">
      <use transform="translate(0 -1.570628)scale(0.996264)" xlink:href="#Century_Schoolbook_L_Roman-73"/>
      <use transform="translate(40.547425 -1.570628)scale(0.996264)" xlink:href="#Century_Schoolbook_L_Roman-110"/>
      <use transform="translate(101.419056 -1.570628)scale(0.996264)" xlink:href="#Century_Schoolbook_L_Roman-112"/>
      <use transform="translate(158.604543 -1.570628)scale(0.996264)" xlink:href="#Century_Schoolbook_L_Roman-117"/>
      <use transform="translate(219.476174 -1.570628)scale(0.996264)" xlink:href="#Century_Schoolbook_L_Roman-116"/>
     </g>
    </g>
    <g id="line2d_15">
     <path d="M 227.28237 184.06672 
L 259.28237 184.06672 
" style="fill:none;stroke:#377eb8;stroke-dasharray:7.4,3.2;stroke-dashoffset:0;stroke-linecap:round;stroke-width:2;"/>
    </g>
    <g id="line2d_16"/>
    <g id="text_13">
     <!-- Response -->
     <defs>
      <path d="M 24.59375 35 
L 30.40625 35 
C 34.296875 35 38.296875 33.796875 40.5 31.984375 
C 43.40625 29.6875 44.90625 26.078125 45.59375 19.46875 
L 46.09375 14.34375 
C 47.296875 3.015625 51 -1.59375 58.90625 -1.59375 
C 67.09375 -1.59375 71 3.921875 71.296875 15.921875 
L 67.09375 15.921875 
C 66.703125 9 65.5 6 62.796875 6 
C 60.5 6 59.5 7.703125 57.796875 14.625 
L 56.203125 20.9375 
C 54 30.171875 50.09375 34.375 42.296875 36.390625 
C 56.703125 38.390625 63.59375 44.140625 63.59375 54.1875 
C 63.59375 65.53125 54 72 37.203125 72 
L 2.59375 72 
L 2.59375 67.3125 
L 4.40625 67.3125 
C 12.5 67.3125 13.40625 66.8125 13.40625 62.609375 
L 13.40625 59.734375 
L 13.40625 12.171875 
L 13.40625 9.375 
C 13.40625 5.1875 12.5 4.6875 4.40625 4.6875 
L 2.59375 4.6875 
L 2.59375 0 
L 35.40625 0 
L 35.40625 4.6875 
L 33.59375 4.6875 
C 25.5 4.6875 24.59375 5.1875 24.59375 9.390625 
L 24.59375 12.1875 
z
M 24.59375 39.6875 
L 24.59375 61.625 
C 24.59375 65.625 24.703125 65.921875 25.703125 66.71875 
C 26.5 67.3125 27.203125 67.3125 31.5 67.3125 
L 36.90625 67.3125 
C 46.796875 67.3125 51.296875 63.125 51.296875 54.09375 
C 51.296875 49.015625 50 45.140625 47.40625 43.0625 
C 44.90625 40.984375 40.40625 39.6875 35.59375 39.6875 
z
" id="Century_Schoolbook_L_Roman-82"/>
     </defs>
     <g transform="translate(272.08237 189.66672)scale(0.16 -0.16)">
      <use transform="translate(0 -1.570628)scale(0.996264)" xlink:href="#Century_Schoolbook_L_Roman-82"/>
      <use transform="translate(71.929985 -1.570628)scale(0.996264)" xlink:href="#Century_Schoolbook_L_Roman-101"/>
      <use transform="translate(121.743185 -1.570628)scale(0.996264)" xlink:href="#Century_Schoolbook_L_Roman-115"/>
      <use transform="translate(167.868996 -1.570628)scale(0.996264)" xlink:href="#Century_Schoolbook_L_Roman-112"/>
      <use transform="translate(225.054483 -1.570628)scale(0.996264)" xlink:href="#Century_Schoolbook_L_Roman-111"/>
      <use transform="translate(274.867684 -1.570628)scale(0.996264)" xlink:href="#Century_Schoolbook_L_Roman-110"/>
      <use transform="translate(335.739314 -1.570628)scale(0.996264)" xlink:href="#Century_Schoolbook_L_Roman-115"/>
      <use transform="translate(381.865125 -1.570628)scale(0.996264)" xlink:href="#Century_Schoolbook_L_Roman-101"/>
     </g>
    </g>
    <g id="line2d_17">
     <path d="M 227.28237 207.20257 
L 259.28237 207.20257 
" style="fill:none;stroke:#4daf4a;stroke-dasharray:12.8,3.2,2,3.2;stroke-dashoffset:0;stroke-linecap:round;stroke-width:2;"/>
    </g>
    <g id="line2d_18"/>
    <g id="text_14">
     <!-- Response, $\frac{\omega_n}{\omega_m} = 1.2$ -->
     <defs>
      <path d="M 8.703125 -18.171875 
C 17.59375 -12.078125 21.796875 -6 21.796875 0.984375 
C 21.796875 6.984375 18.5 10.875 13.59375 10.875 
C 9.90625 10.875 7.09375 8.28125 7.09375 4.890625 
C 7.09375 1.296875 9.796875 -1 13.90625 -1 
C 14.296875 -1 15.296875 -1 15.5 -0.90625 
L 15.796875 -0.90625 
C 16.296875 -0.90625 16.5 -1.203125 16.5 -1.796875 
C 16.5 -6 13.09375 -10.6875 6.40625 -15.375 
z
" id="Century_Schoolbook_L_Roman-44"/>
      <path d="M 59.40625 37.421875 
C 59.40625 40.3125 58.59375 44 55.09375 44 
C 53.09375 44 50.796875 41.515625 50.796875 39.515625 
C 50.796875 38.625 51.203125 38.03125 52 37.125 
C 53.5 35.4375 55.40625 32.75 55.40625 28.078125 
C 55.40625 24.484375 53.203125 18.8125 51.59375 15.734375 
C 48.796875 10.25 44.203125 5.578125 39 5.578125 
C 32.703125 5.578125 30.296875 9.609375 29.203125 15.234375 
C 30.296875 17.859375 32.59375 24.375 32.59375 27 
C 32.59375 28.09375 32.203125 29 30.90625 29 
C 30.203125 29 29.40625 28.609375 28.90625 27.796875 
C 27.5 25.59375 26.203125 17.640625 26.296875 15.53125 
C 24.40625 11.8125 19 5.578125 12.59375 5.578125 
C 5.90625 5.578125 4.09375 11.453125 4.09375 17.125 
C 4.09375 27.46875 10.59375 36.53125 12.40625 39.015625 
C 13.40625 40.515625 14.09375 41.515625 14.09375 41.703125 
C 14.09375 42.40625 13.703125 43.5 12.796875 43.5 
C 11.203125 43.5 10.703125 42.203125 9.90625 41.015625 
C 4.796875 33.140625 1.203125 22.09375 1.203125 12.546875 
C 1.203125 6.375 3.5 -1 11 -1 
C 19.296875 -1 24.5 6.109375 26.59375 9.90625 
C 27.40625 4.296875 30.40625 -1 37.703125 -1 
C 45.296875 -1 50.09375 5.671875 53.703125 13.734375 
C 56.296875 19.515625 59.40625 31.953125 59.40625 37.421875 
z
" id="CMMI12-33"/>
      <path d="M 20.59375 29.234375 
C 20.796875 29.84375 23.296875 34.828125 27 38.015625 
C 29.59375 40.40625 33 42.015625 36.90625 42.015625 
C 40.90625 42.015625 42.296875 39.015625 42.296875 35.03125 
C 42.296875 29.34375 38.203125 17.96875 36.203125 12.578125 
C 35.296875 10.171875 34.796875 8.875 34.796875 7.078125 
C 34.796875 2.59375 37.90625 -1 42.703125 -1 
C 52 -1 55.5 13.671875 55.5 14.265625 
C 55.5 14.765625 55.09375 15.171875 54.5 15.171875 
C 53.59375 15.171875 53.5 14.875 53 13.171875 
C 50.703125 4.984375 46.90625 1 43 1 
C 42 1 40.40625 1 40.40625 4.203125 
C 40.40625 6.703125 41.5 9.703125 42.09375 11.09375 
C 44.09375 16.609375 48.296875 27.8125 48.296875 33.515625 
C 48.296875 39.5 44.796875 44 37.203125 44 
C 28.296875 44 23.59375 37.734375 21.796875 35.234375 
C 21.5 40.90625 17.40625 44 13 44 
C 9.796875 44 7.59375 42.109375 5.90625 38.71875 
C 4.09375 35.125 2.703125 29.140625 2.703125 28.734375 
C 2.703125 28.34375 3.09375 27.84375 3.796875 27.84375 
C 4.59375 27.84375 4.703125 27.9375 5.296875 30.234375 
C 6.90625 36.328125 8.703125 42.015625 12.703125 42.015625 
C 15 42.015625 15.796875 40.40625 15.796875 37.421875 
C 15.796875 35.21875 14.796875 31.328125 14.09375 28.234375 
L 11.296875 17.46875 
C 10.90625 15.5625 9.796875 11.078125 9.296875 9.28125 
C 8.59375 6.6875 7.5 2 7.5 1.5 
C 7.5 0.09375 8.59375 -1 10.09375 -1 
C 11.296875 -1 12.703125 -0.40625 13.5 1.09375 
C 13.703125 1.59375 14.59375 5.09375 15.09375 7.078125 
L 17.296875 16.0625 
z
" id="CMMI12-110"/>
      <path d="M 20.59375 29.234375 
C 20.796875 29.84375 23.296875 34.828125 27 38.015625 
C 29.59375 40.40625 33 42.015625 36.90625 42.015625 
C 40.90625 42.015625 42.296875 39.015625 42.296875 35.03125 
C 42.296875 34.421875 42.296875 32.4375 41.09375 27.734375 
L 38.59375 17.46875 
C 37.796875 14.46875 35.90625 7.078125 35.703125 5.984375 
C 35.296875 4.484375 34.703125 1.890625 34.703125 1.5 
C 34.703125 0.09375 35.796875 -1 37.296875 -1 
C 40.296875 -1 40.796875 1.296875 41.703125 4.890625 
L 47.703125 28.734375 
C 47.90625 29.53125 53.09375 42.015625 64.09375 42.015625 
C 68.09375 42.015625 69.5 39.015625 69.5 35.03125 
C 69.5 29.4375 65.59375 18.5625 63.40625 12.578125 
C 62.5 10.171875 62 8.875 62 7.078125 
C 62 2.59375 65.09375 -1 69.90625 -1 
C 79.203125 -1 82.703125 13.671875 82.703125 14.265625 
C 82.703125 14.765625 82.296875 15.171875 81.703125 15.171875 
C 80.796875 15.171875 80.703125 14.875 80.203125 13.171875 
C 77.90625 5.1875 74.203125 1 70.203125 1 
C 69.203125 1 67.59375 1 67.59375 4.203125 
C 67.59375 6.8125 68.796875 10 69.203125 11.09375 
C 71 15.90625 75.5 27.703125 75.5 33.515625 
C 75.5 39.5 72 44 64.40625 44 
C 57.703125 44 52.296875 40.21875 48.296875 34.328125 
C 48 39.71875 44.703125 44 37.203125 44 
C 28.296875 44 23.59375 37.734375 21.796875 35.234375 
C 21.5 40.90625 17.40625 44 13 44 
C 10.09375 44 7.796875 42.609375 5.90625 38.8125 
C 4.09375 35.21875 2.703125 29.140625 2.703125 28.734375 
C 2.703125 28.34375 3.09375 27.84375 3.796875 27.84375 
C 4.59375 27.84375 4.703125 27.9375 5.296875 30.234375 
C 6.796875 36.125 8.703125 42.015625 12.703125 42.015625 
C 15 42.015625 15.796875 40.40625 15.796875 37.421875 
C 15.796875 35.21875 14.796875 31.328125 14.09375 28.234375 
L 11.296875 17.46875 
C 10.90625 15.5625 9.796875 11.078125 9.296875 9.28125 
C 8.59375 6.6875 7.5 2 7.5 1.5 
C 7.5 0.09375 8.59375 -1 10.09375 -1 
C 11.296875 -1 12.703125 -0.40625 13.5 1.09375 
C 13.703125 1.59375 14.59375 5.09375 15.09375 7.078125 
L 17.296875 16.0625 
z
" id="CMMI12-109"/>
      <path d="M 64.296875 31.515625 
C 65.796875 31.515625 67.296875 31.515625 67.296875 33.203125 
C 67.296875 35 65.59375 35 63.90625 35 
L 8 35 
C 6.296875 35 4.59375 35 4.59375 33.203125 
C 4.59375 31.515625 6.09375 31.515625 7.59375 31.515625 
z
M 63.90625 14 
C 65.59375 14 67.296875 14 67.296875 15.796875 
C 67.296875 17.484375 65.796875 17.484375 64.296875 17.484375 
L 7.59375 17.484375 
C 6.09375 17.484375 4.59375 17.484375 4.59375 15.796875 
C 4.59375 14 6.296875 14 8 14 
z
" id="CMR17-61"/>
      <path d="M 41.703125 15.453125 
L 39.90625 15.453125 
C 38.90625 8.375 38.09375 7.171875 37.703125 6.5625 
C 37.203125 5.765625 30 5.765625 28.59375 5.765625 
L 9.40625 5.765625 
C 13 9.671875 20 16.75 28.5 24.953125 
C 34.59375 30.734375 41.703125 37.53125 41.703125 47.421875 
C 41.703125 59.21875 32.296875 66 21.796875 66 
C 10.796875 66 4.09375 56.3125 4.09375 47.34375 
C 4.09375 43.4375 7 42.9375 8.203125 42.9375 
C 9.203125 42.9375 12.203125 43.546875 12.203125 47.03125 
C 12.203125 50.109375 9.59375 51 8.203125 51 
C 7.59375 51 7 50.90625 6.59375 50.703125 
C 8.5 59.21875 14.296875 63.40625 20.40625 63.40625 
C 29.09375 63.40625 34.796875 56.515625 34.796875 47.421875 
C 34.796875 38.734375 29.703125 31.25 24 24.75 
L 4.09375 2.28125 
L 4.09375 0 
L 39.296875 0 
z
" id="CMR17-50"/>
     </defs>
     <g transform="translate(272.08237 212.80257)scale(0.16 -0.16)">
      <use transform="translate(0 -0.168071)scale(0.996264)" xlink:href="#Century_Schoolbook_L_Roman-82"/>
      <use transform="translate(71.929985 -0.168071)scale(0.996264)" xlink:href="#Century_Schoolbook_L_Roman-101"/>
      <use transform="translate(121.743185 -0.168071)scale(0.996264)" xlink:href="#Century_Schoolbook_L_Roman-115"/>
      <use transform="translate(167.868996 -0.168071)scale(0.996264)" xlink:href="#Century_Schoolbook_L_Roman-112"/>
      <use transform="translate(225.054483 -0.168071)scale(0.996264)" xlink:href="#Century_Schoolbook_L_Roman-111"/>
      <use transform="translate(274.867684 -0.168071)scale(0.996264)" xlink:href="#Century_Schoolbook_L_Roman-110"/>
      <use transform="translate(335.739314 -0.168071)scale(0.996264)" xlink:href="#Century_Schoolbook_L_Roman-115"/>
      <use transform="translate(381.865125 -0.168071)scale(0.996264)" xlink:href="#Century_Schoolbook_L_Roman-101"/>
      <use transform="translate(429.885746 -0.168071)scale(0.996264)" xlink:href="#Century_Schoolbook_L_Roman-44"/>
      <use transform="translate(493.245894 41.176657)scale(0.697382)" xlink:href="#CMMI12-33"/>
      <use transform="translate(535.766328 30.715961)scale(0.498132)" xlink:href="#CMMI12-110"/>
      <use transform="translate(486.471599 -34.523324)scale(0.697382)" xlink:href="#CMMI12-33"/>
      <use transform="translate(528.992034 -44.98402)scale(0.498132)" xlink:href="#CMMI12-109"/>
      <use transform="translate(601.023293 -0.168071)scale(0.996264)" xlink:href="#CMR17-61"/>
      <use transform="translate(700.41209 -0.168071)scale(0.996264)" xlink:href="#CMR17-49"/>
      <use transform="translate(746.102567 -0.168071)scale(0.996264)" xlink:href="#CMMI12-58"/>
      <use transform="translate(773.199744 -0.168071)scale(0.996264)" xlink:href="#CMR17-50"/>
      <path d="M 486.471599 22.746062 
L 572.15377 22.746062 
L 572.15377 26.731012 
L 486.471599 26.731012 
L 486.471599 22.746062 
z
"/>
     </g>
    </g>
   </g>
  </g>
 </g>
 <defs>
  <clipPath id="pff900c6c82">
   <rect height="212.5" width="339.09392" x="77.40608" y="15.5"/>
  </clipPath>
 </defs>
</svg>
