<?xml version="1.0" encoding="UTF-8" standalone="no"?>
<!-- Created with Inkscape (http://www.inkscape.org/) -->

<svg
   xmlns:dc="http://purl.org/dc/elements/1.1/"
   xmlns:cc="http://creativecommons.org/ns#"
   xmlns:rdf="http://www.w3.org/1999/02/22-rdf-syntax-ns#"
   xmlns:svg="http://www.w3.org/2000/svg"
   xmlns="http://www.w3.org/2000/svg"
   xmlns:sodipodi="http://sodipodi.sourceforge.net/DTD/sodipodi-0.dtd"
   xmlns:inkscape="http://www.inkscape.org/namespaces/inkscape"
   width="150mm"
   height="99mm"
   viewBox="0 0 150 99"
   version="1.1"
   id="svg8"
   inkscape:version="0.92.3 (3ce5693, 2018-03-11)"
   sodipodi:docname="zv-sensitivity-plot.svg">
  <defs
     id="defs2">
    <clipPath
       id="clipPath1131"
       clipPathUnits="userSpaceOnUse">
      <path
         inkscape:connector-curvature="0"
         id="path1129"
         d="m 399.6413,85.24707 h 29.93291 v 18.19771 H 399.6413 Z" />
    </clipPath>
  </defs>
  <sodipodi:namedview
     id="base"
     pagecolor="#ffffff"
     bordercolor="#666666"
     borderopacity="1.0"
     inkscape:pageopacity="0.0"
     inkscape:pageshadow="2"
     inkscape:zoom="1.7440126"
     inkscape:cx="169.31762"
     inkscape:cy="167.78208"
     inkscape:document-units="mm"
     inkscape:current-layer="layer1"
     showgrid="false"
     inkscape:window-width="1855"
     inkscape:window-height="1056"
     inkscape:window-x="65"
     inkscape:window-y="24"
     inkscape:window-maximized="1" />
  <metadata
     id="metadata5">
    <rdf:RDF>
      <cc:Work
         rdf:about="">
        <dc:format>image/svg+xml</dc:format>
        <dc:type
           rdf:resource="http://purl.org/dc/dcmitype/StillImage" />
        <dc:title></dc:title>
      </cc:Work>
    </rdf:RDF>
  </metadata>
  <g
     inkscape:label="Layer 1"
     inkscape:groupmode="layer"
     id="layer1"
     transform="translate(0,-198)">
    <g
       transform="matrix(0.35277777,0,0,-0.35277777,-2.1223469,299.09098)"
       inkscape:label="ZV_SensitivityPlot"
       id="g823">
      <g
         id="g825" />
      <g
         id="g827">
        <g
           transform="matrix(1,0,0,-1,0,292)"
           id="g829">
          <path
             inkscape:connector-curvature="0"
             id="path831"
             style="fill:none;stroke:#bfbfbf;stroke-width:0.80000001;stroke-linecap:round;stroke-linejoin:miter;stroke-miterlimit:4;stroke-dasharray:0.8, 2.4;stroke-dashoffset:0;stroke-opacity:1"
             d="M 122.3297,234.3415 V 13.6254" />
        </g>
        <path
           inkscape:connector-curvature="0"
           id="path833"
           style="fill:#000000;fill-opacity:1;fill-rule:nonzero;stroke:none"
           d="m 122.3298,57.65843 v -3.5" />
        <g
           transform="matrix(1,0,0,-1,0,292)"
           id="g835">
          <path
             inkscape:connector-curvature="0"
             id="path837"
             style="fill:none;stroke:#000000;stroke-width:0.80000001;stroke-linecap:butt;stroke-linejoin:round;stroke-miterlimit:4;stroke-dasharray:none;stroke-opacity:1"
             d="m 122.3298,234.3416 v 3.5" />
        </g>
        <path
           inkscape:connector-curvature="0"
           id="path839"
           style="fill:#000000;fill-opacity:1;fill-rule:nonzero;stroke:none"
           d="m 119.1985,43.0265 c 0,1.09558 -0.0168,2.9561 -0.7706,4.38792 -0.664,1.25529 -1.7232,1.70081 -2.6534,1.70081 -0.8631,0 -1.9558,-0.39228 -2.6367,-1.684 -0.7173,-1.34215 -0.7902,-3.00654 -0.7902,-4.40473 0,-1.01993 0.0196,-2.57503 0.5744,-3.9396 0.7706,-1.84371 2.152,-2.09309 2.8525,-2.09309 0.8237,0 2.079,0.33904 2.8132,2.03985 0.5379,1.23848 0.6108,2.68711 0.6108,3.99284 z m -3.424,-5.74689 c -1.1489,0 -1.8297,0.9835 -2.0819,2.34807 -0.1962,1.05355 -0.1962,2.59465 -0.1962,3.59776 0,1.37858 0,2.5246 0.2326,3.61737 0.3418,1.51868 1.345,1.98662 2.0455,1.98662 0.7341,0 1.684,-0.48475 2.0258,-1.95019 0.2326,-1.01993 0.2494,-2.22198 0.2494,-3.6538 0,-1.16563 0,-2.59745 -0.213,-3.6538 -0.3782,-1.95299 -1.4346,-2.29203 -2.0622,-2.29203 z" />
        <path
           inkscape:connector-curvature="0"
           id="path841"
           style="fill:#000000;fill-opacity:1;fill-rule:nonzero;stroke:none"
           d="m 123.1918,38.21268 c 0,0.51837 -0.4315,0.87422 -0.863,0.87422 -0.5184,0 -0.8771,-0.42871 -0.8771,-0.85741 0,-0.51837 0.4287,-0.87702 0.8602,-0.87702 0.5212,0 0.8799,0.4287 0.8799,0.86021 z" />
        <path
           inkscape:connector-curvature="0"
           id="path843"
           style="fill:#000000;fill-opacity:1;fill-rule:nonzero;stroke:none"
           d="m 129.6468,43.69618 c 1.1292,0.56881 2.278,1.42622 2.278,2.79919 0,1.61956 -1.5803,2.56663 -3.0318,2.56663 -1.6307,0 -3.0653,-1.17684 -3.0653,-2.79919 0,-0.44552 0.1064,-1.21326 0.8069,-1.89135 0.1794,-0.17652 0.9303,-0.7117 1.415,-1.05074 -0.8069,-0.4119 -2.6899,-1.38979 -2.6899,-3.35119 0,-1.8353 1.7569,-2.97571 3.4969,-2.97571 1.9194,0 3.5333,1.37297 3.5333,3.18866 0,1.62516 -1.0927,2.37329 -1.8101,2.85524 z m -2.3509,1.56352 c -0.1429,0.08966 -0.8602,0.64165 -0.8602,1.48225 0,1.08717 1.1292,1.90816 2.4209,1.90816 1.4178,0 2.4574,-0.99751 2.4574,-2.15754 0,-1.66158 -1.8662,-2.60865 -1.9558,-2.60865 -0.0168,0 -0.0337,0 -0.1794,0.10927 z m 3.3008,-3.651 c 0.2689,-0.19614 1.1292,-0.78176 1.1292,-1.87173 0,-1.31694 -1.3254,-2.31445 -2.8329,-2.31445 -1.6307,0 -2.8692,1.15723 -2.8692,2.56383 0,1.4094 1.0928,2.58343 2.3313,3.13823 z" />
        <g
           transform="matrix(1,0,0,-1,0,292)"
           id="g845">
          <path
             inkscape:connector-curvature="0"
             id="path847"
             style="fill:none;stroke:#bfbfbf;stroke-width:0.80000001;stroke-linecap:round;stroke-linejoin:miter;stroke-miterlimit:4;stroke-dasharray:0.8, 2.4;stroke-dashoffset:0;stroke-opacity:1"
             d="M 244.1978,234.3415 V 13.6254" />
        </g>
        <path
           inkscape:connector-curvature="0"
           id="path849"
           style="fill:#000000;fill-opacity:1;fill-rule:nonzero;stroke:none"
           d="m 244.1979,57.65843 v -3.5" />
        <g
           transform="matrix(1,0,0,-1,0,292)"
           id="g851">
          <path
             inkscape:connector-curvature="0"
             id="path853"
             style="fill:none;stroke:#000000;stroke-width:0.80000001;stroke-linecap:butt;stroke-linejoin:round;stroke-miterlimit:4;stroke-dasharray:none;stroke-opacity:1"
             d="m 244.1979,234.3416 v 3.5" />
        </g>
        <path
           inkscape:connector-curvature="0"
           id="path855"
           style="fill:#000000;fill-opacity:1;fill-rule:nonzero;stroke:none"
           d="m 238.3038,48.72296 c 0,0.37547 -0.0168,0.37547 -0.269,0.37547 -0.6977,-0.77335 -1.7568,-1.02273 -2.7599,-1.02273 -0.0533,0 -0.1429,0 -0.1625,-0.05324 -0.0169,-0.03643 -0.0169,-0.07285 -0.0169,-0.44832 0.5548,0 1.4879,0.10648 2.2052,0.53518 v -9.46513 c 0,-0.63045 -0.0364,-0.8434 -1.5775,-0.8434 h -0.538 v -0.44832 c 0.8602,0 1.7569,0 2.6171,0 0.8602,0 1.7568,0 2.6198,0 v 0.44832 h -0.5379 c -1.5439,0 -1.5804,0.19614 -1.5804,0.835 z" />
        <path
           inkscape:connector-curvature="0"
           id="path857"
           style="fill:#000000;fill-opacity:1;fill-rule:nonzero;stroke:none"
           d="m 245.0599,38.21268 c 0,0.51837 -0.4315,0.87422 -0.863,0.87422 -0.5184,0 -0.8771,-0.42871 -0.8771,-0.85741 0,-0.51837 0.4287,-0.87702 0.8602,-0.87702 0.5212,0 0.8799,0.4287 0.8799,0.86021 z" />
        <path
           inkscape:connector-curvature="0"
           id="path859"
           style="fill:#000000;fill-opacity:1;fill-rule:nonzero;stroke:none"
           d="m 254.1684,43.0265 c 0,1.09558 -0.0168,2.9561 -0.7706,4.38792 -0.6641,1.25529 -1.7232,1.70081 -2.6535,1.70081 -0.863,0 -1.9558,-0.39228 -2.6366,-1.684 -0.7174,-1.34215 -0.7902,-3.00654 -0.7902,-4.40473 0,-1.01993 0.0196,-2.57503 0.5744,-3.9396 0.7706,-1.84371 2.1519,-2.09309 2.8524,-2.09309 0.8238,0 2.0791,0.33904 2.8132,2.03985 0.538,1.23848 0.6109,2.68711 0.6109,3.99284 z m -3.4241,-5.74689 c -1.1488,0 -1.8297,0.9835 -2.0818,2.34807 -0.1962,1.05355 -0.1962,2.59465 -0.1962,3.59776 0,1.37858 0,2.5246 0.2326,3.61737 0.3418,1.51868 1.3449,1.98662 2.0454,1.98662 0.7342,0 1.684,-0.48475 2.0259,-1.95019 0.2325,-1.01993 0.2493,-2.22198 0.2493,-3.6538 0,-1.16563 0,-2.59745 -0.2129,-3.6538 -0.3783,-1.95299 -1.4346,-2.29203 -2.0623,-2.29203 z" />
        <g
           transform="matrix(1,0,0,-1,0,292)"
           id="g861">
          <path
             inkscape:connector-curvature="0"
             id="path863"
             style="fill:none;stroke:#bfbfbf;stroke-width:0.80000001;stroke-linecap:round;stroke-linejoin:miter;stroke-miterlimit:4;stroke-dasharray:0.8, 2.4;stroke-dashoffset:0;stroke-opacity:1"
             d="M 366.0659,234.3415 V 13.6254" />
        </g>
        <path
           inkscape:connector-curvature="0"
           id="path865"
           style="fill:#000000;fill-opacity:1;fill-rule:nonzero;stroke:none"
           d="m 366.066,57.65843 v -3.5" />
        <g
           transform="matrix(1,0,0,-1,0,292)"
           id="g867">
          <path
             inkscape:connector-curvature="0"
             id="path869"
             style="fill:none;stroke:#000000;stroke-width:0.80000001;stroke-linecap:butt;stroke-linejoin:round;stroke-miterlimit:4;stroke-dasharray:none;stroke-opacity:1"
             d="m 366.066,234.3416 v 3.5" />
        </g>
        <path
           inkscape:connector-curvature="0"
           id="path871"
           style="fill:#000000;fill-opacity:1;fill-rule:nonzero;stroke:none"
           d="m 360.1719,48.72294 c 0,0.37547 -0.0168,0.37547 -0.2689,0.37547 -0.6977,-0.77335 -1.7569,-1.02273 -2.76,-1.02273 -0.0533,0 -0.1429,0 -0.1625,-0.05323 -0.0168,-0.03643 -0.0168,-0.07286 -0.0168,-0.44832 0.5548,0 1.4878,0.10647 2.2051,0.53518 v -9.46513 c 0,-0.63045 -0.0364,-0.8434 -1.5775,-0.8434 h -0.538 v -0.44832 c 0.8602,0 1.7569,0 2.6171,0 0.8602,0 1.7568,0 2.6198,0 v 0.44832 h -0.5379 c -1.5439,0 -1.5804,0.19614 -1.5804,0.83499 z" />
        <path
           inkscape:connector-curvature="0"
           id="path873"
           style="fill:#000000;fill-opacity:1;fill-rule:nonzero;stroke:none"
           d="m 366.928,38.21266 c 0,0.51837 -0.4315,0.87422 -0.8631,0.87422 -0.5183,0 -0.877,-0.4287 -0.877,-0.85741 0,-0.51836 0.4287,-0.87702 0.8602,-0.87702 0.5212,0 0.8799,0.42871 0.8799,0.86021 z" />
        <path
           inkscape:connector-curvature="0"
           id="path875"
           style="fill:#000000;fill-opacity:1;fill-rule:nonzero;stroke:none"
           d="m 375.9832,40.12363 h -0.3222 c -0.1793,-1.2693 -0.325,-1.48506 -0.3951,-1.59433 -0.0896,-0.1429 -1.3814,-0.1429 -1.6335,-0.1429 h -3.4409 c 0.6445,0.70049 1.8998,1.9698 3.4241,3.44084 1.0927,1.03674 2.3676,2.25561 2.3676,4.02927 0,2.1155 -1.6868,3.33157 -3.5697,3.33157 -1.9726,0 -3.1747,-1.73724 -3.1747,-3.34558 0,-0.7005 0.5212,-0.79016 0.737,-0.79016 0.1793,0 0.7173,0.10927 0.7173,0.73412 0,0.55199 -0.468,0.7117 -0.7173,0.7117 -0.1093,0 -0.2158,-0.01681 -0.2886,-0.05323 0.3418,1.52708 1.3813,2.27802 2.4769,2.27802 1.5579,0 2.5807,-1.23568 2.5807,-2.86644 0,-1.55791 -0.9135,-2.90007 -1.9362,-4.06569 l -3.5698,-4.02927 v -0.40909 h 6.3129 z" />
        <path
           inkscape:connector-curvature="0"
           id="path877"
           style="fill:#000000;fill-opacity:1;fill-rule:nonzero;stroke:none"
           d="m 87.73582,30.26028 h -4.5137 v -1.0274 h 0.54794 c 1.11644,0 1.61987,-0.17808 2.0137,-0.7226 v -9.3185 c 0,-3.00685 -0.43836,-3.64041 -2.54109,-3.64041 v -1.07191 h 6.24657 v 1.07191 c -2.08219,0 -2.52055,0.63699 -2.52055,3.64041 v 8.14041 l 9.77398,-13.2226 H 97.6639 V 25.5685 c 0,3.02397 0.43835,3.66438 2.5445,3.66438 v 1.0274 h -6.24656 v -1.0274 c 2.08219,0 2.52055,-0.63699 2.52055,-3.65753 v -6.92124 z" />
        <path
           inkscape:connector-curvature="0"
           id="path879"
           style="fill:#000000;fill-opacity:1;fill-rule:nonzero;stroke:none"
           d="m 106.1911,25.06163 c -2.6747,0 -4.7774,-2.37329 -4.7774,-5.42123 0,-2.98288 2.1027,-5.38014 4.7329,-5.38014 2.6301,0 4.7328,2.39726 4.7328,5.40069 0,2.98287 -2.1027,5.40068 -4.6883,5.40068 z m 0,-0.93836 c 1.5342,0 2.387,-1.59246 2.387,-4.46232 0,-2.89042 -0.8528,-4.45891 -2.4315,-4.45891 -1.5788,0 -2.4316,1.56849 -2.4316,4.43836 0,2.9589 0.8322,4.48287 2.4761,4.48287 z" />
        <path
           inkscape:connector-curvature="0"
           id="path881"
           style="fill:#000000;fill-opacity:1;fill-rule:nonzero;stroke:none"
           d="m 115.965,24.56163 h -3.8801 v -1.04794 h 0.9007 c 0.8116,0 0.9418,-0.15411 0.9418,-1.09932 v -5.23972 -0.87672 c 0,-0.87671 -0.2398,-1.03082 -1.6644,-1.03082 h -0.0891 v -0.78767 h 5.8528 v 0.78767 h -0.4178 c -1.4007,0 -1.6439,0.15411 -1.6439,1.03082 v 0.87672 0.21917 c 0,1.64726 0.3083,3.31165 0.8562,4.56165 0.524,1.22602 1.2706,1.90753 2.1918,2.01712 -0.3082,-0.35274 -0.3938,-0.57534 -0.3938,-0.99657 0,-0.70548 0.5034,-1.21233 1.2054,-1.21233 0.7877,0 1.3356,0.59246 1.3356,1.4863 0,1.05137 -0.7465,1.75 -1.9075,1.75 -1.3801,0 -2.5856,-1.11302 -3.2877,-3.03767 z" />
        <path
           inkscape:connector-curvature="0"
           id="path883"
           style="fill:#000000;fill-opacity:1;fill-rule:nonzero;stroke:none"
           d="m 125.7615,24.56163 h -3.9007 v -1.04794 h 0.9007 c 0.8082,0 0.9418,-0.15411 0.9418,-1.09932 v -5.23972 -0.85274 c 0,-0.90069 -0.2432,-1.0548 -1.6439,-1.0548 h -0.089 v -0.78767 h 5.524 v 0.78767 h -0.0891 c -1.4006,0 -1.6438,0.15411 -1.6438,1.05137 v 0.85274 3.10617 c 0,1.9452 1.0753,3.39041 2.5,3.39041 0.5685,0 1.1849,-0.30822 1.4452,-0.72261 0.3082,-0.41438 0.4384,-1.05137 0.4384,-1.94863 v -3.82534 -0.87671 c 0,-0.87329 -0.2398,-1.0274 -1.6644,-1.0274 h -0.0891 v -0.78767 h 5.548 v 0.78767 h -0.0891 c -1.4041,0 -1.6438,0.15411 -1.6438,1.0274 v 0.87671 2.90754 c 0,2.18835 0.9863,3.58904 2.5206,3.58904 0.7226,0 1.315,-0.41781 1.5993,-1.09589 0.1986,-0.47946 0.2637,-0.96233 0.2637,-1.81507 v -3.58562 -0.87671 c 0,-0.87329 -0.2398,-1.0274 -1.6644,-1.0274 h -0.0891 v -0.78767 h 5.5446 v 0.78767 h -0.0857 c -1.4041,0 -1.6438,0.15411 -1.6438,1.05137 v 0.85274 4.02397 c 0,1.35617 -0.1336,1.81507 -0.702,2.55822 -0.637,0.81165 -1.5343,1.24658 -2.5857,1.24658 -1.4246,0 -2.4794,-0.67124 -3.4212,-2.16781 -0.3733,1.30137 -1.5548,2.16781 -3.024,2.16781 -1.315,0 -2.3013,-0.62671 -3.1575,-1.98973 z" />
        <path
           inkscape:connector-curvature="0"
           id="path885"
           style="fill:#000000;fill-opacity:1;fill-rule:nonzero;stroke:none"
           d="m 150.7496,21.61985 c 0,1.36301 -0.2431,2.05822 -0.8767,2.57877 -0.7226,0.56164 -1.7979,0.86301 -3.202,0.86301 -2.4521,0 -4.274,-1.14726 -4.274,-2.7089 0,-0.82535 0.5069,-1.34589 1.274,-1.34589 0.6781,0 1.1815,0.45548 1.1815,1.10274 0,0.28424 -0.1096,0.58561 -0.3288,0.89041 -0.1301,0.14726 -0.1541,0.21233 -0.1541,0.28082 0,0.45205 0.9007,0.84246 1.9521,0.84246 0.678,0 1.4452,-0.21575 1.7979,-0.54109 0.4144,-0.34589 0.5685,-0.86644 0.5685,-1.84247 v -0.84246 c -2.3014,-0.39384 -3.0034,-0.5685 -4.0753,-0.97946 -1.887,-0.70205 -2.8048,-1.72602 -2.8048,-3.10273 0,-1.55137 1.2465,-2.5548 3.178,-2.5548 1.5103,0 2.8699,0.62671 3.8117,1.76712 0.3527,-1.11301 0.9007,-1.54794 1.9281,-1.54794 0.9863,0 2.0171,0.63356 2.0171,1.26712 0,0.15069 -0.1096,0.26028 -0.2192,0.26028 -0.0856,0 -0.1746,-0.02055 -0.3287,-0.08562 -0.3494,-0.12671 -0.4384,-0.15069 -0.6131,-0.15069 -0.613,0 -0.8322,0.41439 -0.8322,1.49658 z m -2.0616,-2.65411 c 0,-1.31507 -0.0651,-1.61986 -0.4384,-2.18836 -0.5479,-0.81164 -1.5547,-1.35616 -2.4965,-1.35616 -0.9863,0 -1.7329,0.7226 -1.7329,1.70548 0,0.91781 0.4589,1.57534 1.4247,2.03425 0.678,0.30479 1.5342,0.52397 3.2431,0.80821 z" />
        <path
           inkscape:connector-curvature="0"
           id="path887"
           style="fill:#000000;fill-opacity:1;fill-rule:nonzero;stroke:none"
           d="m 157.5009,30.47945 h -4.0548 v -1.04794 h 1.0719 c 0.7911,0 0.9212,-0.15411 0.9212,-1.0959 V 17.17123 16.29452 c 0,-0.87329 -0.2397,-1.0274 -1.6438,-1.0274 h -0.1541 v -0.78767 h 5.6781 v 0.78767 h -0.1541 c -1.4247,0 -1.6644,0.15411 -1.6644,1.02055 v 0.86986 z" />
        <path
           inkscape:connector-curvature="0"
           id="path889"
           style="fill:#000000;fill-opacity:1;fill-rule:nonzero;stroke:none"
           d="M 164.4459,24.56164 H 160.326 V 23.5137 h 1.1199 c 0.8082,0 0.9417,-0.15411 0.9417,-1.09932 v -5.23972 -0.87672 c 0,-0.87671 -0.2431,-1.03082 -1.6438,-1.03082 h -0.1541 v -0.78767 h 5.6781 v 0.78767 h -0.1541 c -1.4247,0 -1.6678,0.15069 -1.6678,1.0137 v 0.86644 z m -1.0274,5.60617 c -0.7021,0 -1.274,-0.5685 -1.274,-1.26713 0,-0.67808 0.5719,-1.27054 1.25,-1.27054 0.7226,0 1.2945,0.56849 1.2945,1.27054 0,0.69863 -0.5719,1.26713 -1.2705,1.26713 z" />
        <path
           inkscape:connector-curvature="0"
           id="path891"
           style="fill:#000000;fill-opacity:1;fill-rule:nonzero;stroke:none"
           d="m 176.2162,24.6267 h -7.911 l -0.1986,-3.6815 h 0.8767 c 0.1986,1.95547 0.9863,2.73972 2.7843,2.73972 h 1.9075 l -5.9829,-8.41781 v -0.78767 h 8.524 l 0.1541,3.89726 h -0.8767 c -0.2192,-2.15068 -1.0514,-2.95548 -3.024,-2.95548 h -2.2363 l 5.9829,8.41781 z" />
        <path
           inkscape:connector-curvature="0"
           id="path893"
           style="fill:#000000;fill-opacity:1;fill-rule:nonzero;stroke:none"
           d="m 187.5702,19.52053 c 0.0205,3.24658 -1.8425,5.5411 -4.5137,5.5411 -2.8083,0 -4.911,-2.41781 -4.911,-5.68493 0,-3.04795 1.9932,-5.11644 4.9521,-5.11644 2.0822,0 3.5753,1.0274 4.4726,3.10959 l -0.7672,0.41781 c -0.8972,-1.68836 -1.8185,-2.34589 -3.2876,-2.34589 -1.1165,0 -1.9281,0.48287 -2.5,1.44863 -0.3939,0.65753 -0.5685,1.42466 -0.548,2.63013 z m -7.0788,0.94179 c 0,0.6678 0.0856,1.14041 0.3048,1.74315 0.4623,1.29109 1.1644,1.9178 2.2157,1.9178 1.3357,0 2.2124,-1.14383 2.2124,-2.86643 0,-0.62329 -0.1952,-0.79452 -0.8973,-0.79452 z" />
        <path
           inkscape:connector-curvature="0"
           id="path895"
           style="fill:#000000;fill-opacity:1;fill-rule:nonzero;stroke:none"
           d="m 196.6661,14.47943 h 3.815 v 1.03083 h -0.3972 c -1.1815,0 -1.3562,0.21917 -1.3562,1.59246 v 13.54795 h -4.2979 v -1.04795 h 1.2945 c 0.7877,0 0.9418,-0.15753 0.9418,-1.11301 v -5.02397 c -0.8117,1.11643 -1.7535,1.61986 -3.024,1.61986 -2.476,0 -4.363,-2.37671 -4.363,-5.52055 0,-3.09931 1.8185,-5.30479 4.363,-5.30479 1.3801,0 2.3219,0.58561 3.024,1.88356 z m -2.5857,9.42466 c 0.8973,0 1.7535,-0.65068 2.1473,-1.65753 0.2637,-0.65411 0.4178,-1.5685 0.4178,-2.61302 0,-2.53082 -1.0103,-4.19178 -2.589,-4.19178 -1.5343,0 -2.4761,1.44178 -2.4761,3.86302 0,1.28767 0.1336,2.26712 0.4179,3.00685 0.3732,0.96232 1.1815,1.59246 2.0821,1.59246 z" />
        <path
           inkscape:connector-curvature="0"
           id="path897"
           style="fill:#000000;fill-opacity:1;fill-rule:nonzero;stroke:none"
           d="M 220.6891,30.26027 H 207.648 v -1.0274 h 0.3939 c 1.7739,0 1.9726,-0.10958 1.9726,-1.03082 V 27.56849 17.17123 16.53424 c 0,-0.9178 -0.1987,-1.02739 -1.9726,-1.02739 h -0.3939 v -1.0274 h 7.5171 v 1.0274 h -0.7226 c -1.7774,0 -1.9726,0.10959 -1.9726,1.03082 v 0.63699 4.97602 h 0.4384 c 1.3562,0 1.8836,-0.13698 2.3425,-0.60616 0.5479,-0.58219 0.7671,-1.30137 0.8116,-2.62329 h 1.0308 v 7.17466 h -1.0308 c -0.1096,-2.08904 -0.9863,-2.91781 -3.0685,-2.91781 h -0.524 v 4.96233 c 0,0.93835 0.1952,1.09246 1.3802,1.09246 h 1.0068 c 3.6165,0 4.5582,-0.83561 5.1747,-4.58561 h 0.9623 z" />
        <path
           inkscape:connector-curvature="0"
           id="path899"
           style="fill:#000000;fill-opacity:1;fill-rule:nonzero;stroke:none"
           d="m 225.7499,24.56163 h -3.8801 v -1.04794 h 0.9007 c 0.8116,0 0.9418,-0.15411 0.9418,-1.09932 v -5.23972 -0.87672 c 0,-0.87671 -0.2397,-1.03082 -1.6644,-1.03082 h -0.089 v -0.78767 h 5.8527 v 0.78767 h -0.4178 c -1.4007,0 -1.6439,0.15411 -1.6439,1.03082 v 0.87672 0.21917 c 0,1.64726 0.3083,3.31165 0.8562,4.56165 0.524,1.22602 1.2706,1.90753 2.1918,2.01712 -0.3082,-0.35274 -0.3938,-0.57534 -0.3938,-0.99657 0,-0.70548 0.5034,-1.21233 1.2054,-1.21233 0.7877,0 1.3357,0.59246 1.3357,1.4863 0,1.05137 -0.7466,1.75 -1.9076,1.75 -1.3801,0 -2.5856,-1.11302 -3.2877,-3.03767 z" />
        <path
           inkscape:connector-curvature="0"
           id="path901"
           style="fill:#000000;fill-opacity:1;fill-rule:nonzero;stroke:none"
           d="m 241.3341,19.52053 c 0.0205,3.24658 -1.8425,5.5411 -4.5137,5.5411 -2.8082,0 -4.911,-2.41781 -4.911,-5.68493 0,-3.04795 1.9932,-5.11644 4.9521,-5.11644 2.0822,0 3.5753,1.0274 4.4726,3.10959 l -0.7671,0.41781 c -0.8973,-1.68836 -1.8185,-2.34589 -3.2877,-2.34589 -1.1165,0 -1.9281,0.48287 -2.5,1.44863 -0.3939,0.65753 -0.5685,1.42466 -0.548,2.63013 z m -7.0788,0.94179 c 0,0.6678 0.0856,1.14041 0.3048,1.74315 0.4623,1.29109 1.1644,1.9178 2.2158,1.9178 1.3356,0 2.2123,-1.14383 2.2123,-2.86643 0,-0.62329 -0.1952,-0.79452 -0.8973,-0.79452 z" />
        <path
           inkscape:connector-curvature="0"
           id="path903"
           style="fill:#000000;fill-opacity:1;fill-rule:nonzero;stroke:none"
           d="m 251.9437,24.73628 -1.0309,-1.49315 c -0.8767,1.22945 -1.952,1.81849 -3.3322,1.81849 -2.6746,0 -4.6917,-2.43493 -4.6917,-5.68493 0,-3.00685 1.8869,-5.20205 4.452,-5.20205 1.3562,0 2.1028,0.39383 2.9795,1.59931 V 12.7808 11.91094 c 0,-0.87671 -0.2398,-1.0274 -1.6644,-1.0274 h -0.2432 v -0.78767 h 5.6987 v 0.78767 h -0.0857 c -1.4041,0 -1.6438,0.15069 -1.6438,1.03082 v 0.87329 8.50342 c 0.0206,1.25 0.0206,1.33562 0.0206,1.57877 0.0445,0.41439 0.1095,0.7226 0.3493,1.86644 z m -4.1644,-0.61301 c 0.8767,0 1.6644,-0.57192 2.0822,-1.49658 0.3287,-0.7226 0.4589,-1.5137 0.4589,-2.7637 0,-3.0137 -0.8562,-4.50685 -2.5651,-4.50685 -1.6199,0 -2.5651,1.51713 -2.5651,4.15069 0,3.07877 0.8562,4.61644 2.5891,4.61644 z" />
        <path
           inkscape:connector-curvature="0"
           id="path905"
           style="fill:#000000;fill-opacity:1;fill-rule:nonzero;stroke:none"
           d="m 263.3182,14.47945 h 3.9897 v 1.03083 H 266.76 c -1.2055,0 -1.3836,0.1952 -1.3836,1.58904 v 7.63356 h -4.1199 v -1.04795 h 1.1199 c 0.8082,0 0.9418,-0.15411 0.9418,-1.10616 v -2.71576 c 0,-1.26027 -0.1336,-1.98972 -0.4623,-2.71917 -0.4589,-0.97261 -1.3357,-1.54795 -2.411,-1.54795 -0.6781,0 -1.2466,0.23973 -1.5343,0.67466 -0.2842,0.41096 -0.3287,0.63014 -0.3287,1.82534 v 6.63699 h -3.8356 v -1.04795 h 0.8356 c 0.8082,0 0.9418,-0.15411 0.9418,-1.10616 v -4.7637 c 0,-1.12671 0.0856,-1.63356 0.4143,-2.14041 0.5925,-0.90754 1.6439,-1.41438 2.959,-1.41438 1.4486,0 2.4554,0.59589 3.4212,2 z" />
        <path
           inkscape:connector-curvature="0"
           id="path907"
           style="fill:#000000;fill-opacity:1;fill-rule:nonzero;stroke:none"
           d="m 277.8709,19.52053 c 0.0206,3.24658 -1.8425,5.5411 -4.5137,5.5411 -2.8082,0 -4.911,-2.41781 -4.911,-5.68493 0,-3.04795 1.9932,-5.11644 4.9521,-5.11644 2.0822,0 3.5753,1.0274 4.4726,3.10959 l -0.7671,0.41781 c -0.8973,-1.68836 -1.8185,-2.34589 -3.2877,-2.34589 -1.1164,0 -1.9281,0.48287 -2.5,1.44863 -0.3938,0.65753 -0.5685,1.42466 -0.5479,2.63013 z m -7.0788,0.94179 c 0,0.6678 0.0857,1.14041 0.3048,1.74315 0.4624,1.29109 1.1644,1.9178 2.2158,1.9178 1.3356,0 2.2123,-1.14383 2.2123,-2.86643 0,-0.62329 -0.1952,-0.79452 -0.8972,-0.79452 z" />
        <path
           inkscape:connector-curvature="0"
           id="path909"
           style="fill:#000000;fill-opacity:1;fill-rule:nonzero;stroke:none"
           d="m 283.0216,24.56163 h -3.7911 v -1.04794 h 0.7877 c 0.8116,0 0.9417,-0.15411 0.9417,-1.09932 v -5.23972 -0.87672 c 0,-0.87671 -0.2397,-1.03082 -1.6438,-1.03082 h -0.0856 v -0.78767 h 5.5445 v 0.78767 h -0.089 c -1.4247,0 -1.6644,0.15411 -1.6644,1.0274 v 0.87671 2.27397 c 0,1.07192 0.1541,2.0548 0.3938,2.55822 0.4624,0.9863 1.4487,1.66439 2.3904,1.66439 0.5685,0 1.2261,-0.32877 1.5548,-0.76713 0.3288,-0.4589 0.4829,-1.13698 0.4829,-2.18835 v -3.5411 -0.87671 c 0,-0.87329 -0.2397,-1.0274 -1.6644,-1.0274 h -0.089 v -0.78767 h 5.5445 v 0.78767 h -0.0856 c -1.4041,0 -1.6439,0.15411 -1.6439,1.0274 v 0.87671 3.43493 c 0,1.57192 -0.0684,1.96576 -0.4623,2.71233 -0.5479,1.04795 -1.6644,1.68151 -2.9589,1.68151 -1.4007,0 -2.4966,-0.64726 -3.4623,-2.07877 z" />
        <path
           inkscape:connector-curvature="0"
           id="path911"
           style="fill:#000000;fill-opacity:1;fill-rule:nonzero;stroke:none"
           d="m 300.5127,17.79451 c -0.7021,-1.5685 -1.4487,-2.19863 -2.5857,-2.19863 -1.7534,0 -2.8493,1.58561 -2.8493,4.13013 0,2.63357 1.0719,4.39726 2.6952,4.39726 0.6576,0 1.2261,-0.30821 1.2261,-0.65411 0,-0.06506 -0.0446,-0.13013 -0.1302,-0.26369 -0.3527,-0.41096 -0.4383,-0.63014 -0.4383,-0.99658 0,-0.71918 0.5479,-1.21918 1.315,-1.21918 0.7672,0 1.3356,0.60959 1.3356,1.47945 0,1.45891 -1.4691,2.59247 -3.4178,2.59247 -2.8493,0 -4.8869,-2.32877 -4.8869,-5.57534 0,-3.09247 1.863,-5.22603 4.5787,-5.22603 1.9521,0 3.0685,0.89384 4.0103,3.20548 z" />
        <path
           inkscape:connector-curvature="0"
           id="path913"
           style="fill:#000000;fill-opacity:1;fill-rule:nonzero;stroke:none"
           d="m 308.3365,17.36299 -2.411,5.62329 c -0.089,0.19521 -0.1301,0.34932 -0.1301,0.4589 0,0.39384 0.2603,0.54795 1.0069,0.54795 h 0.4589 v 0.78767 h -5.2158 v -0.78767 h 0.2432 c 0.6986,0 1.0959,-0.30822 1.4897,-1.18151 l 3.5719,-8.06164 -0.3733,-0.76712 c -0.7877,-1.65754 -1.8185,-2.81507 -2.5205,-2.81507 -0.1952,0 -0.3493,0.08904 -0.3493,0.21918 0,0.04452 0.0205,0.10958 0.0445,0.19863 0.065,0.1952 0.1096,0.39041 0.1096,0.56506 0,0.5685 -0.4829,0.98288 -1.1199,0.98288 -0.7671,0 -1.3151,-0.56849 -1.3151,-1.35616 0,-0.95891 0.8562,-1.68151 1.9966,-1.68151 1.161,0 2.1473,0.56849 3.024,1.74657 0.6781,0.91781 1.1164,1.79453 2.0822,4.21918 l 2.4965,6.16096 c 0.548,1.33219 1.0103,1.77055 1.8425,1.77055 h 0.1301 v 0.78767 h -4.3835 v -0.78767 h 0.3527 c 0.8322,0 1.1815,-0.24315 1.1815,-0.81164 0,-0.21918 -0.065,-0.50343 -0.2191,-0.87329 z" />
        <path
           inkscape:connector-curvature="0"
           id="path915"
           style="fill:#000000;fill-opacity:1;fill-rule:nonzero;stroke:none"
           d="m 325.7404,30.57877 c -1.3151,-0.80822 -2.0171,-1.37672 -2.7637,-2.25343 -1.6644,-1.96918 -2.5651,-4.48288 -2.5651,-7.13014 0,-2.49315 0.7911,-4.83561 2.2603,-6.78082 0.8322,-1.05137 1.5754,-1.70548 3.0685,-2.62671 v 0.81164 c -2.1918,1.92466 -3.0685,4.39726 -3.0685,8.59589 0,4.19863 0.8767,6.65069 3.0685,8.57535 z" />
        <path
           inkscape:connector-curvature="0"
           id="path917"
           style="fill:#000000;fill-opacity:1;fill-rule:nonzero;stroke:none"
           d="m 339.9431,22.68149 c 0,0.63356 -0.1781,1.44178 -0.9452,1.44178 -0.4384,0 -0.9418,-0.54452 -0.9418,-0.98287 0,-0.19521 0.089,-0.32535 0.2637,-0.52398 0.3288,-0.36986 0.7466,-0.9589 0.7466,-1.98287 0,-0.78767 -0.4829,-2.03082 -0.8357,-2.70548 -0.613,-1.20206 -1.6198,-2.22603 -2.7602,-2.22603 -1.3802,0 -1.9076,0.88356 -2.1473,2.11644 0.2397,0.57534 0.7432,2.00342 0.7432,2.57877 0,0.23972 -0.0857,0.43835 -0.3699,0.43835 -0.1541,0 -0.3288,-0.08561 -0.4384,-0.2637 -0.3082,-0.48287 -0.5924,-2.22602 -0.5719,-2.68835 -0.4144,-0.81507 -1.5993,-2.18151 -3.0034,-2.18151 -1.4658,0 -1.863,1.28767 -1.863,2.53082 0,2.26713 1.4246,4.25343 1.8219,4.79795 0.2192,0.32876 0.3699,0.54794 0.3699,0.58904 0,0.15411 -0.0857,0.39383 -0.2843,0.39383 -0.3493,0 -0.4589,-0.28424 -0.6335,-0.54452 -1.1199,-1.72602 -1.9076,-4.14726 -1.9076,-6.23972 0,-1.35274 0.5034,-2.96918 2.1473,-2.96918 1.8185,0 2.9589,1.55822 3.4178,2.39041 0.1781,-1.22945 0.8356,-2.39041 2.4349,-2.39041 1.6644,0 2.7158,1.46233 3.5069,3.22945 0.5685,1.26713 1.25,3.99315 1.25,5.19178 z" />
        <path
           inkscape:connector-curvature="0"
           id="path919"
           style="fill:#000000;fill-opacity:1;fill-rule:nonzero;stroke:none"
           d="m 344.9032,13.0137 c -0.0767,-0.2613 -0.0767,-0.29007 -0.29,-0.58253 -0.338,-0.42911 -1.0141,-1.08596 -1.7332,-1.08596 -0.6305,0 -0.9829,0.56575 -0.9829,1.46952 0,0.84143 0.4746,2.55547 0.7671,3.20033 0.5226,1.07157 1.2418,1.62294 1.8411,1.62294 1.0116,0 1.213,-1.25616 1.213,-1.37842 0,-0.01439 -0.0479,-0.21576 -0.0623,-0.24452 z m 0.9829,3.9195 c -0.1678,0.39795 -0.5825,1.00925 -1.3808,1.00925 -1.7332,0 -3.6055,-2.23424 -3.6055,-4.49964 0,-1.51507 0.8894,-2.40445 1.9322,-2.40445 0.8438,0 1.5654,0.65925 1.9945,1.16507 0.1534,-0.90376 0.875,-1.16507 1.3353,-1.16507 0.4603,0 0.8294,0.27569 1.1051,0.82706 0.2445,0.5202 0.4603,1.45513 0.4603,1.51506 0,0.07671 -0.0623,0.13904 -0.1534,0.13904 -0.1391,0 -0.1535,-0.07671 -0.2158,-0.30685 -0.2301,-0.90376 -0.5202,-1.86746 -1.1507,-1.86746 -0.4435,0 -0.4746,0.39795 -0.4746,0.70479 0,0.3524 0.0455,0.52021 0.1846,1.11712 0.1078,0.38356 0.1846,0.71918 0.3068,1.16267 0.5682,2.29657 0.7048,2.84793 0.7048,2.93903 0,0.21575 -0.1678,0.38356 -0.3979,0.38356 -0.4915,0 -0.6137,-0.53459 -0.6449,-0.71918 z" />
        <path
           inkscape:connector-curvature="0"
           id="path921"
           style="fill:#000000;fill-opacity:1;fill-rule:nonzero;stroke:none"
           d="m 354.17,17.01951 c -0.29,0 -0.4291,0 -0.6424,-0.1822 -0.0935,-0.07671 -0.2613,-0.30684 -0.2613,-0.55136 0,-0.30685 0.2301,-0.49144 0.5202,-0.49144 0.3691,0 0.7839,0.29726 0.7839,0.89178 0,0.70958 -0.7072,1.25616 -1.7644,1.25616 -2.0113,0 -4.0202,-2.18869 -4.0202,-4.363 0,-1.33047 0.8295,-2.54109 2.3925,-2.54109 2.088,0 3.4065,1.64452 3.4065,1.84589 0,0.09109 -0.0911,0.16781 -0.1535,0.16781 -0.0455,0 -0.0599,-0.01439 -0.1989,-0.15103 -0.9829,-1.32089 -2.4404,-1.55582 -3.023,-1.55582 -1.0572,0 -1.3952,0.91575 -1.3952,1.67808 0,0.53698 0.2613,2.01609 0.8127,3.05649 0.3979,0.71678 1.2274,1.54144 2.1935,1.54144 0.1989,0 1.0428,0 1.3496,-0.60171 z" />
        <path
           inkscape:connector-curvature="0"
           id="path923"
           style="fill:#000000;fill-opacity:1;fill-rule:nonzero;stroke:none"
           d="m 357.7204,17.34312 h 1.4119 c 0.2925,0 0.4459,0 0.4459,0.27568 0,0.17021 -0.0935,0.17021 -0.4003,0.17021 h -1.3497 l 0.5682,2.25341 c 0.0623,0.21336 0.0623,0.24452 0.0623,0.35479 0,0.24692 -0.2013,0.38356 -0.4003,0.38356 -0.1223,0 -0.4747,-0.04554 -0.5969,-0.53938 l -0.5993,-2.45238 h -1.4432 c -0.3068,0 -0.4435,0 -0.4435,-0.29247 0,-0.15342 0.1079,-0.15342 0.398,-0.15342 h 1.3664 l -1.014,-4.03937 c -0.1223,-0.53459 -0.1679,-0.68801 -0.1679,-0.88698 0,-0.71918 0.5059,-1.37842 1.3665,-1.37842 1.5486,0 2.3781,2.23424 2.3781,2.33971 0,0.0935 -0.0624,0.13904 -0.1535,0.13904 -0.0311,0 -0.0935,0 -0.1246,-0.06232 -0.0144,-0.01439 -0.0288,-0.03117 -0.1367,-0.27569 -0.3236,-0.76232 -1.0284,-1.83389 -1.9178,-1.83389 -0.4602,0 -0.4914,0.38356 -0.4914,0.71917 0,0.01438 0,0.30685 0.0455,0.48904 z" />
        <path
           inkscape:connector-curvature="0"
           id="path925"
           style="fill:#000000;fill-opacity:1;fill-rule:nonzero;stroke:none"
           d="m 369.576,30.10615 c 0,0.02398 0.1302,0.35274 0.1302,0.39384 0,0.2637 -0.2192,0.41781 -0.3939,0.41781 -0.1096,0 -0.3082,0 -0.4828,-0.48288 L 361.487,9.811633 c 0,-0.023973 -0.1302,-0.349315 -0.1302,-0.393836 0,-0.263699 0.2192,-0.417808 0.3939,-0.417808 0.1301,0 0.3288,0.023972 0.4829,0.482877 z" />
        <path
           inkscape:connector-curvature="0"
           id="path927"
           style="fill:#000000;fill-opacity:1;fill-rule:nonzero;stroke:none"
           d="m 383.923,22.68149 c 0,0.63356 -0.1781,1.44178 -0.9452,1.44178 -0.4384,0 -0.9418,-0.54452 -0.9418,-0.98287 0,-0.19521 0.089,-0.32535 0.2637,-0.52398 0.3287,-0.36986 0.7466,-0.9589 0.7466,-1.98287 0,-0.78767 -0.4829,-2.03082 -0.8357,-2.70548 -0.613,-1.20206 -1.6198,-2.22603 -2.7602,-2.22603 -1.3802,0 -1.9076,0.88356 -2.1473,2.11644 0.2397,0.57534 0.7432,2.00342 0.7432,2.57877 0,0.23972 -0.0857,0.43835 -0.3699,0.43835 -0.1541,0 -0.3288,-0.08561 -0.4384,-0.2637 -0.3082,-0.48287 -0.5924,-2.22602 -0.5719,-2.68835 -0.4144,-0.81507 -1.5993,-2.18151 -3.0034,-2.18151 -1.4658,0 -1.863,1.28767 -1.863,2.53082 0,2.26713 1.4246,4.25343 1.8219,4.79795 0.2192,0.32876 0.3699,0.54794 0.3699,0.58904 0,0.15411 -0.0857,0.39383 -0.2843,0.39383 -0.3493,0 -0.4589,-0.28424 -0.6336,-0.54452 -1.1198,-1.72602 -1.9075,-4.14726 -1.9075,-6.23972 0,-1.35274 0.5034,-2.96918 2.1473,-2.96918 1.8185,0 2.9589,1.55822 3.4178,2.39041 0.1781,-1.22945 0.8356,-2.39041 2.4349,-2.39041 1.6644,0 2.7158,1.46233 3.5069,3.22945 0.5685,1.26713 1.25,3.99315 1.25,5.19178 z" />
        <path
           inkscape:connector-curvature="0"
           id="path929"
           style="fill:#000000;fill-opacity:1;fill-rule:nonzero;stroke:none"
           d="m 387.4256,15.67704 c 0.0312,0.0935 0.4147,0.85822 0.9829,1.34726 0.3979,0.36678 0.9205,0.6137 1.5198,0.6137 0.6137,0 0.8271,-0.46028 0.8271,-1.07158 0,-0.09349 0,-0.39794 -0.1846,-1.11951 l -0.3836,-1.57499 c -0.1222,-0.46028 -0.4123,-1.59418 -0.4434,-1.76198 -0.0624,-0.23014 -0.1535,-0.62808 -0.1535,-0.68801 0,-0.21576 0.1678,-0.38357 0.398,-0.38357 0.4602,0 0.537,0.3524 0.676,0.90377 l 0.9205,3.6582 c 0.0312,0.12226 0.8271,2.03767 2.5148,2.03767 0.6137,0 0.8294,-0.46028 0.8294,-1.07158 0,-0.85821 -0.5993,-2.5267 -0.9349,-3.44484 -0.1391,-0.36918 -0.2158,-0.56815 -0.2158,-0.84384 0,-0.68801 0.4747,-1.23938 1.213,-1.23938 1.4264,0 1.9634,2.25102 1.9634,2.34212 0,0.07671 -0.0623,0.13904 -0.1534,0.13904 -0.1391,0 -0.1535,-0.04555 -0.2302,-0.30685 -0.3524,-1.22499 -0.9205,-1.86746 -1.5342,-1.86746 -0.1534,0 -0.4004,0 -0.4004,0.49144 0,0.40034 0.1846,0.88938 0.247,1.05719 0.2756,0.73835 0.9661,2.54827 0.9661,3.44005 0,0.91815 -0.537,1.60856 -1.7021,1.60856 -1.0284,0 -1.8579,-0.58014 -2.4716,-1.4839 -0.0455,0.82705 -0.5513,1.4839 -1.702,1.4839 -1.3664,0 -2.088,-0.9613 -2.3637,-1.34486 -0.0455,0.8702 -0.6736,1.34486 -1.3497,1.34486 -0.4458,0 -0.7982,-0.21336 -1.0883,-0.79589 -0.2781,-0.55137 -0.4914,-1.4839 -0.4914,-1.54623 0,-0.05993 0.0599,-0.13664 0.1678,-0.13664 0.1222,0 0.139,0.01438 0.2301,0.36678 0.2301,0.90376 0.5226,1.80753 1.1363,1.80753 0.3524,0 0.4747,-0.24692 0.4747,-0.7048 0,-0.33801 -0.1535,-0.93492 -0.2613,-1.40958 l -0.4292,-1.6517 c -0.0599,-0.29247 -0.2301,-0.98048 -0.3068,-1.25616 -0.1079,-0.39795 -0.2757,-1.11712 -0.2757,-1.19383 0,-0.21576 0.1678,-0.38357 0.398,-0.38357 0.1845,0 0.4003,0.0911 0.5226,0.32124 0.0311,0.07671 0.1678,0.61369 0.2445,0.91814 l 0.338,1.37842 z" />
        <path
           inkscape:connector-curvature="0"
           id="path931"
           style="fill:#000000;fill-opacity:1;fill-rule:nonzero;stroke:none"
           d="m 398.7009,11.78768 c 1.3151,0.81164 2.0137,1.38013 2.7603,2.27739 1.6643,1.94521 2.565,4.48288 2.565,7.13014 0,2.49315 -0.7911,4.83562 -2.2568,6.76027 -0.8356,1.07192 -1.5788,1.72603 -3.0685,2.62329 v -0.80822 c 2.1918,-1.92466 3.0685,-4.37671 3.0685,-8.57534 0,-4.2226 -0.8767,-6.67123 -3.0685,-8.59589 z" />
        <g
           transform="matrix(1,0,0,-1,0,292)"
           id="g933">
          <path
             inkscape:connector-curvature="0"
             id="path935"
             style="fill:none;stroke:#bfbfbf;stroke-width:0.80000001;stroke-linecap:round;stroke-linejoin:miter;stroke-miterlimit:4;stroke-dasharray:0.8, 2.4;stroke-dashoffset:0;stroke-opacity:1"
             d="M 61.39572,234.3416 H 427" />
        </g>
        <path
           inkscape:connector-curvature="0"
           id="path937"
           style="fill:#000000;fill-opacity:1;fill-rule:nonzero;stroke:none"
           d="m 61.39573,57.65842 h -3.5" />
        <g
           transform="matrix(1,0,0,-1,0,292)"
           id="g939">
          <path
             inkscape:connector-curvature="0"
             id="path941"
             style="fill:none;stroke:#000000;stroke-width:0.80000001;stroke-linecap:butt;stroke-linejoin:round;stroke-miterlimit:4;stroke-dasharray:none;stroke-opacity:1"
             d="m 61.39573,234.3416 h -3.5" />
        </g>
        <path
           inkscape:connector-curvature="0"
           id="path943"
           style="fill:#000000;fill-opacity:1;fill-rule:nonzero;stroke:none"
           d="m 53.7032,56.67947 c 0,1.09558 -0.01681,2.9561 -0.77055,4.38792 -0.66407,1.25529 -1.72323,1.70081 -2.65349,1.70081 -0.86301,0 -1.95579,-0.39228 -2.63667,-1.684 -0.71731,-1.34215 -0.79016,-3.00654 -0.79016,-4.40473 0,-1.01993 0.01961,-2.57503 0.5744,-3.9396 0.77055,-1.84371 2.15193,-2.09309 2.85243,-2.09309 0.82379,0 2.07908,0.33904 2.8132,2.03985 0.53799,1.23848 0.61084,2.68711 0.61084,3.99284 z m -3.42404,-5.74689 c -1.14881,0 -1.8297,0.9835 -2.08188,2.34807 -0.19614,1.05355 -0.19614,2.59465 -0.19614,3.59776 0,1.37858 0,2.5246 0.23257,3.61737 0.34184,1.51868 1.34495,1.98662 2.04545,1.98662 0.73413,0 1.684,-0.48475 2.02584,-1.95019 0.23257,-1.01993 0.24938,-2.22198 0.24938,-3.6538 0,-1.16563 0,-2.59745 -0.21295,-3.6538 -0.37827,-1.95299 -1.43462,-2.29203 -2.06227,-2.29203 z" />
        <g
           transform="matrix(1,0,0,-1,0,292)"
           id="g945">
          <path
             inkscape:connector-curvature="0"
             id="path947"
             style="fill:none;stroke:#bfbfbf;stroke-width:0.80000001;stroke-linecap:round;stroke-linejoin:miter;stroke-miterlimit:4;stroke-dasharray:0.8, 2.4;stroke-dashoffset:0;stroke-opacity:1"
             d="M 398.0984,197.5555 H 61.39575" />
        </g>
        <path
           inkscape:connector-curvature="0"
           id="path949"
           style="fill:#000000;fill-opacity:1;fill-rule:nonzero;stroke:none"
           d="m 61.39574,94.44444 h -3.5" />
        <g
           transform="matrix(1,0,0,-1,0,292)"
           id="g951">
          <path
             inkscape:connector-curvature="0"
             id="path953"
             style="fill:none;stroke:#000000;stroke-width:0.80000001;stroke-linecap:butt;stroke-linejoin:round;stroke-miterlimit:4;stroke-dasharray:none;stroke-opacity:1"
             d="m 61.39574,197.5556 h -3.5" />
        </g>
        <path
           inkscape:connector-curvature="0"
           id="path955"
           style="fill:#000000;fill-opacity:1;fill-rule:nonzero;stroke:none"
           d="m 48.21691,98.13641 c 0.17933,-0.07285 0.91345,-0.30261 1.66718,-0.30261 1.66719,0 2.58064,0.91625 3.10181,1.44583 0,0.15971 0,0.25778 -0.10648,0.25778 -0.01961,0 -0.05604,0 -0.19894,-0.08126 -0.62764,-0.29421 -1.36177,-0.53238 -2.2584,-0.53238 -0.53799,0 -1.34496,0.07286 -2.22479,0.46514 -0.19613,0.08966 -0.23256,0.08966 -0.24937,0.08966 -0.08967,0 -0.10928,-0.01961 -0.10928,-0.37547 v -5.13885 c 0,-0.31943 0,-0.40909 0.17933,-0.40909 0.08966,0 0.12609,0.03642 0.21575,0.15971 0.57441,0.80417 1.36177,1.14321 2.25841,1.14321 0.62764,0 1.9726,-0.39228 1.9726,-3.45485 0,-0.57161 0,-1.60835 -0.53798,-2.43213 -0.44832,-0.73412 -1.14602,-1.10959 -1.91657,-1.10959 -1.18524,0 -2.38729,0.82659 -2.70952,2.21077 0.07285,-0.01961 0.21575,-0.05324 0.2886,-0.05324 0.23257,0 0.68089,0.12609 0.68089,0.68089 0,0.48194 -0.34185,0.67808 -0.68089,0.67808 -0.41469,0 -0.68368,-0.25218 -0.68368,-0.75374 0,-1.56071 1.23848,-3.19147 3.13823,-3.19147 1.84931,0 3.60616,1.59154 3.60616,3.90038 0,2.14632 -1.39819,3.81071 -3.13823,3.81071 -0.91625,0 -1.6868,-0.33904 -2.29483,-0.9807 z" />
        <g
           transform="matrix(1,0,0,-1,0,292)"
           id="g957">
          <path
             inkscape:connector-curvature="0"
             id="path959"
             style="fill:none;stroke:#bfbfbf;stroke-width:0.80000001;stroke-linecap:round;stroke-linejoin:miter;stroke-miterlimit:4;stroke-dasharray:0.8, 2.4;stroke-dashoffset:0;stroke-opacity:1"
             d="M 426.9999,160.7695 H 61.39571" />
        </g>
        <path
           inkscape:connector-curvature="0"
           id="path961"
           style="fill:#000000;fill-opacity:1;fill-rule:nonzero;stroke:none"
           d="m 61.39574,131.2305 h -3.5" />
        <g
           transform="matrix(1,0,0,-1,0,292)"
           id="g963">
          <path
             inkscape:connector-curvature="0"
             id="path965"
             style="fill:none;stroke:#000000;stroke-width:0.80000001;stroke-linecap:butt;stroke-linejoin:round;stroke-miterlimit:4;stroke-dasharray:none;stroke-opacity:1"
             d="m 61.39574,160.7695 h -3.5" />
        </g>
        <path
           inkscape:connector-curvature="0"
           id="path967"
           style="fill:#000000;fill-opacity:1;fill-rule:nonzero;stroke:none"
           d="m 42.71616,135.9479 c 0,0.3755 -0.01682,0.3755 -0.26899,0.3755 -0.6977,-0.7733 -1.75685,-1.0227 -2.75997,-1.0227 -0.05324,0 -0.1429,0 -0.16251,-0.0532 -0.01681,-0.0365 -0.01681,-0.0729 -0.01681,-0.4484 0.55479,0 1.48785,0.1065 2.20516,0.5352 v -9.4651 c 0,-0.6305 -0.03642,-0.8434 -1.57752,-0.8434 h -0.53798 v -0.4483 c 0.86021,0 1.75685,0 2.61706,0 0.86021,0 1.75685,0 2.61986,0 v 0.4483 h -0.53798 c -1.5439,0 -1.58032,0.1961 -1.58032,0.835 z" />
        <path
           inkscape:connector-curvature="0"
           id="path969"
           style="fill:#000000;fill-opacity:1;fill-rule:nonzero;stroke:none"
           d="m 53.70321,130.2515 c 0,1.0956 -0.01681,2.9561 -0.77055,4.3879 -0.66407,1.2553 -1.72323,1.7008 -2.65349,1.7008 -0.86301,0 -1.95579,-0.3922 -2.63667,-1.684 -0.71731,-1.3421 -0.79016,-3.0065 -0.79016,-4.4047 0,-1.0199 0.01961,-2.575 0.5744,-3.9396 0.77055,-1.8437 2.15193,-2.0931 2.85243,-2.0931 0.82379,0 2.07908,0.3391 2.8132,2.0399 0.53799,1.2384 0.61084,2.6871 0.61084,3.9928 z m -3.42404,-5.7469 c -1.14881,0 -1.8297,0.9835 -2.08188,2.3481 -0.19614,1.0535 -0.19614,2.5946 -0.19614,3.5977 0,1.3786 0,2.5246 0.23257,3.6174 0.34184,1.5187 1.34495,1.9866 2.04545,1.9866 0.73412,0 1.684,-0.4847 2.02584,-1.9502 0.23257,-1.0199 0.24938,-2.2219 0.24938,-3.6538 0,-1.1656 0,-2.5974 -0.21295,-3.6538 -0.37827,-1.9529 -1.43462,-2.292 -2.06227,-2.292 z" />
        <g
           transform="matrix(1,0,0,-1,0,292)"
           id="g971">
          <path
             inkscape:connector-curvature="0"
             id="path973"
             style="fill:none;stroke:#bfbfbf;stroke-width:0.80000001;stroke-linecap:round;stroke-linejoin:miter;stroke-miterlimit:4;stroke-dasharray:0.8, 2.4;stroke-dashoffset:0;stroke-opacity:1"
             d="M 426.9999,123.9835 H 61.39571" />
        </g>
        <path
           inkscape:connector-curvature="0"
           id="path975"
           style="fill:#000000;fill-opacity:1;fill-rule:nonzero;stroke:none"
           d="m 61.39574,168.0165 h -3.5" />
        <g
           transform="matrix(1,0,0,-1,0,292)"
           id="g977">
          <path
             inkscape:connector-curvature="0"
             id="path979"
             style="fill:none;stroke:#000000;stroke-width:0.80000001;stroke-linecap:butt;stroke-linejoin:round;stroke-miterlimit:4;stroke-dasharray:none;stroke-opacity:1"
             d="m 61.39574,123.9835 h -3.5" />
        </g>
        <path
           inkscape:connector-curvature="0"
           id="path981"
           style="fill:#000000;fill-opacity:1;fill-rule:nonzero;stroke:none"
           d="m 42.71616,172.734 c 0,0.3754 -0.01682,0.3754 -0.26899,0.3754 -0.6977,-0.7733 -1.75685,-1.0227 -2.75997,-1.0227 -0.05324,0 -0.1429,0 -0.16251,-0.0532 -0.01681,-0.0365 -0.01681,-0.0729 -0.01681,-0.4484 0.55479,0 1.48785,0.1065 2.20516,0.5352 v -9.4651 c 0,-0.6305 -0.03642,-0.8434 -1.57752,-0.8434 h -0.53798 v -0.4483 c 0.86021,0 1.75685,0 2.61706,0 0.86021,0 1.75685,0 2.61986,0 v 0.4483 h -0.53798 c -1.5439,0 -1.58032,0.1961 -1.58032,0.835 z" />
        <path
           inkscape:connector-curvature="0"
           id="path983"
           style="fill:#000000;fill-opacity:1;fill-rule:nonzero;stroke:none"
           d="m 48.21691,171.7084 c 0.17932,-0.0728 0.91345,-0.3026 1.66718,-0.3026 1.66719,0 2.58064,0.9163 3.10181,1.4458 0,0.1598 0,0.2578 -0.10648,0.2578 -0.01961,0 -0.05604,0 -0.19894,-0.0812 -0.62765,-0.2942 -1.36177,-0.5324 -2.25841,-0.5324 -0.53798,0 -1.34495,0.0728 -2.22478,0.4651 -0.19614,0.0897 -0.23256,0.0897 -0.24938,0.0897 -0.08966,0 -0.10927,-0.0196 -0.10927,-0.3755 v -5.1388 c 0,-0.3195 0,-0.4091 0.17932,-0.4091 0.08967,0 0.12609,0.0364 0.21576,0.1597 0.57441,0.8042 1.36177,1.1432 2.2584,1.1432 0.62765,0 1.97261,-0.3923 1.97261,-3.4549 0,-0.5716 0,-1.6083 -0.53799,-2.4321 -0.44831,-0.7341 -1.14601,-1.1096 -1.91656,-1.1096 -1.18524,0 -2.3873,0.8266 -2.70953,2.2108 0.07286,-0.0196 0.21576,-0.0532 0.28861,-0.0532 0.23257,0 0.68088,0.126 0.68088,0.6808 0,0.482 -0.34184,0.6781 -0.68088,0.6781 -0.4147,0 -0.68369,-0.2522 -0.68369,-0.7537 0,-1.5607 1.23848,-3.1915 3.13824,-3.1915 1.84931,0 3.60616,1.5915 3.60616,3.9004 0,2.1463 -1.39819,3.8107 -3.13823,3.8107 -0.91625,0 -1.6868,-0.339 -2.29483,-0.9807 z" />
        <g
           transform="matrix(1,0,0,-1,0,292)"
           id="g985">
          <path
             inkscape:connector-curvature="0"
             id="path987"
             style="fill:none;stroke:#bfbfbf;stroke-width:0.80000001;stroke-linecap:round;stroke-linejoin:miter;stroke-miterlimit:4;stroke-dasharray:0.8, 2.4;stroke-dashoffset:0;stroke-opacity:1"
             d="M 426.9999,87.19751 H 61.3957" />
        </g>
        <path
           inkscape:connector-curvature="0"
           id="path989"
           style="fill:#000000;fill-opacity:1;fill-rule:nonzero;stroke:none"
           d="m 61.39573,204.8025 h -3.5" />
        <g
           transform="matrix(1,0,0,-1,0,292)"
           id="g991">
          <path
             inkscape:connector-curvature="0"
             id="path993"
             style="fill:none;stroke:#000000;stroke-width:0.80000001;stroke-linecap:butt;stroke-linejoin:round;stroke-miterlimit:4;stroke-dasharray:none;stroke-opacity:1"
             d="m 61.39573,87.19752 h -3.5" />
        </g>
        <path
           inkscape:connector-curvature="0"
           id="path995"
           style="fill:#000000;fill-opacity:1;fill-rule:nonzero;stroke:none"
           d="m 45.42568,200.9207 h -0.32223 c -0.17933,-1.2693 -0.32503,-1.4851 -0.39508,-1.5944 -0.08967,-0.1429 -1.38138,-0.1429 -1.63356,-0.1429 h -3.44085 c 0.64446,0.7005 1.89975,1.9698 3.42403,3.4409 1.09278,1.0367 2.36769,2.2556 2.36769,4.0292 0,2.1155 -1.6868,3.3316 -3.56974,3.3316 -1.9726,0 -3.17466,-1.7372 -3.17466,-3.3456 0,-0.7005 0.52117,-0.7901 0.73693,-0.7901 0.17932,0 0.71731,0.1092 0.71731,0.7341 0,0.552 -0.46794,0.7117 -0.71731,0.7117 -0.10928,0 -0.21576,-0.0168 -0.28861,-0.0532 0.34184,1.527 1.38138,2.278 2.47696,2.278 1.55791,0 2.58064,-1.2357 2.58064,-2.8665 0,-1.5579 -0.91345,-2.9 -1.93618,-4.0657 l -3.56974,-4.0292 v -0.4091 h 6.31289 z" />
        <path
           inkscape:connector-curvature="0"
           id="path997"
           style="fill:#000000;fill-opacity:1;fill-rule:nonzero;stroke:none"
           d="m 53.7032,203.8235 c 0,1.0956 -0.01681,2.9561 -0.77055,4.3879 -0.66407,1.2553 -1.72322,1.7009 -2.65348,1.7009 -0.86302,0 -1.95579,-0.3923 -2.63668,-1.684 -0.71731,-1.3422 -0.79016,-3.0066 -0.79016,-4.4048 0,-1.0199 0.01961,-2.575 0.57441,-3.9396 0.77055,-1.8437 2.15193,-2.0931 2.85243,-2.0931 0.82378,0 2.07908,0.3391 2.8132,2.0399 0.53798,1.2385 0.61083,2.6871 0.61083,3.9928 z m -3.42403,-5.7469 c -1.14882,0 -1.8297,0.9835 -2.08188,2.3481 -0.19614,1.0536 -0.19614,2.5947 -0.19614,3.5978 0,1.3785 0,2.5246 0.23256,3.6173 0.34185,1.5187 1.34496,1.9866 2.04546,1.9866 0.73412,0 1.68399,-0.4847 2.02584,-1.9501 0.23256,-1.02 0.24937,-2.222 0.24937,-3.6538 0,-1.1657 0,-2.5975 -0.21295,-3.6538 -0.37827,-1.953 -1.43462,-2.2921 -2.06226,-2.2921 z" />
        <g
           transform="matrix(1,0,0,-1,0,292)"
           id="g999">
          <path
             inkscape:connector-curvature="0"
             id="path1001"
             style="fill:none;stroke:#bfbfbf;stroke-width:0.80000001;stroke-linecap:round;stroke-linejoin:miter;stroke-miterlimit:4;stroke-dasharray:0.8, 2.4;stroke-dashoffset:0;stroke-opacity:1"
             d="M 426.9999,50.41141 H 61.3957" />
        </g>
        <path
           inkscape:connector-curvature="0"
           id="path1003"
           style="fill:#000000;fill-opacity:1;fill-rule:nonzero;stroke:none"
           d="m 61.39573,241.5885 h -3.5" />
        <g
           transform="matrix(1,0,0,-1,0,292)"
           id="g1005">
          <path
             inkscape:connector-curvature="0"
             id="path1007"
             style="fill:none;stroke:#000000;stroke-width:0.80000001;stroke-linecap:butt;stroke-linejoin:round;stroke-miterlimit:4;stroke-dasharray:none;stroke-opacity:1"
             d="m 61.39573,50.41151 h -3.5" />
        </g>
        <path
           inkscape:connector-curvature="0"
           id="path1009"
           style="fill:#000000;fill-opacity:1;fill-rule:nonzero;stroke:none"
           d="m 45.42568,237.7067 h -0.32223 c -0.17933,-1.2693 -0.32503,-1.4851 -0.39508,-1.5944 -0.08967,-0.1429 -1.38138,-0.1429 -1.63356,-0.1429 h -3.44085 c 0.64446,0.7005 1.89975,1.9698 3.42403,3.4409 1.09278,1.0367 2.36769,2.2556 2.36769,4.0293 0,2.1155 -1.6868,3.3315 -3.56974,3.3315 -1.9726,0 -3.17466,-1.7372 -3.17466,-3.3456 0,-0.7005 0.52117,-0.7901 0.73693,-0.7901 0.17932,0 0.71731,0.1093 0.71731,0.7341 0,0.552 -0.46794,0.7117 -0.71731,0.7117 -0.10928,0 -0.21576,-0.0168 -0.28861,-0.0532 0.34184,1.5271 1.38138,2.278 2.47696,2.278 1.55791,0 2.58064,-1.2357 2.58064,-2.8664 0,-1.558 -0.91345,-2.9001 -1.93618,-4.0657 l -3.56974,-4.0293 v -0.4091 h 6.31289 z" />
        <path
           inkscape:connector-curvature="0"
           id="path1011"
           style="fill:#000000;fill-opacity:1;fill-rule:nonzero;stroke:none"
           d="m 48.2169,245.2805 c 0.17933,-0.0729 0.91345,-0.3027 1.66719,-0.3027 1.66718,0 2.58063,0.9163 3.1018,1.4459 0,0.1597 0,0.2578 -0.10647,0.2578 -0.01962,0 -0.05604,0 -0.19895,-0.0813 -0.62764,-0.2942 -1.36176,-0.5324 -2.2584,-0.5324 -0.53798,0 -1.34496,0.0729 -2.22478,0.4652 -0.19614,0.0896 -0.23257,0.0896 -0.24938,0.0896 -0.08966,0 -0.10928,-0.0196 -0.10928,-0.3755 v -5.1388 c 0,-0.3194 0,-0.4091 0.17933,-0.4091 0.08966,0 0.12609,0.0364 0.21575,0.1597 0.57441,0.8042 1.36177,1.1432 2.25841,1.1432 0.62764,0 1.9726,-0.3923 1.9726,-3.4548 0,-0.5716 0,-1.6084 -0.53798,-2.4322 -0.44832,-0.7341 -1.14602,-1.1095 -1.91656,-1.1095 -1.18525,0 -2.3873,0.8265 -2.70953,2.2107 0.07285,-0.0196 0.21575,-0.0532 0.2886,-0.0532 0.23257,0 0.68089,0.1261 0.68089,0.6809 0,0.4819 -0.34184,0.6781 -0.68089,0.6781 -0.41469,0 -0.68368,-0.2522 -0.68368,-0.7538 0,-1.5607 1.23848,-3.1915 3.13823,-3.1915 1.84931,0 3.60616,1.5916 3.60616,3.9004 0,2.1463 -1.39819,3.8107 -3.13823,3.8107 -0.91625,0 -1.6868,-0.339 -2.29483,-0.9807 z" />
        <g
           transform="matrix(1,0,0,-1,0,292)"
           id="g1013">
          <path
             inkscape:connector-curvature="0"
             id="path1015"
             style="fill:none;stroke:#bfbfbf;stroke-width:0.80000001;stroke-linecap:round;stroke-linejoin:miter;stroke-miterlimit:4;stroke-dasharray:0.8, 2.4;stroke-dashoffset:0;stroke-opacity:1"
             d="M 61.39573,13.6255 H 427" />
        </g>
        <path
           inkscape:connector-curvature="0"
           id="path1017"
           style="fill:#000000;fill-opacity:1;fill-rule:nonzero;stroke:none"
           d="m 61.39573,278.3745 h -3.5" />
        <g
           transform="matrix(1,0,0,-1,0,292)"
           id="g1019">
          <path
             inkscape:connector-curvature="0"
             id="path1021"
             style="fill:none;stroke:#000000;stroke-width:0.80000001;stroke-linecap:butt;stroke-linejoin:round;stroke-miterlimit:4;stroke-dasharray:none;stroke-opacity:1"
             d="m 61.39573,13.6255 h -3.5" />
        </g>
        <path
           inkscape:connector-curvature="0"
           id="path1023"
           style="fill:#000000;fill-opacity:1;fill-rule:nonzero;stroke:none"
           d="m 41.90918,277.7654 c 1.59714,0 2.29764,-1.387 2.29764,-2.9897 0,-2.1575 -1.14882,-2.9841 -2.18836,-2.9841 -0.94988,0 -2.49377,0.4735 -2.97852,1.8717 0.08967,-0.0364 0.17933,-0.0364 0.26899,-0.0364 0.43151,0 0.75374,0.2858 0.75374,0.7509 0,0.5184 -0.39508,0.7509 -0.75374,0.7509 -0.30261,0 -0.77054,-0.1429 -0.77054,-0.8125 0,-1.656 1.61394,-2.9533 3.5165,-2.9533 1.98941,0 3.51369,1.5635 3.51369,3.3988 0,1.7428 -1.43462,3.0009 -3.13823,3.1999 1.36177,0.283 2.6731,1.4822 2.6731,3.0878 0,1.3757 -1.4178,2.3816 -3.03175,2.3816 -1.63076,0 -3.06538,-0.9807 -3.06538,-2.3816 0,-0.6137 0.46513,-0.7202 0.69769,-0.7202 0.37827,0 0.7005,0.2326 0.7005,0.6977 0,0.4624 -0.32223,0.6949 -0.7005,0.6949 -0.07005,0 -0.15971,0 -0.23256,-0.0336 0.52117,1.1264 1.93618,1.331 2.56382,1.331 0.62765,0 1.81289,-0.2999 1.81289,-1.9951 0,-0.4959 -0.07285,-1.3785 -0.68369,-2.1575 -0.53798,-0.6893 -1.14601,-0.6893 -1.73723,-0.7453 -0.08966,0 -0.50436,-0.0421 -0.57441,-0.0421 -0.12609,-0.0168 -0.19894,-0.0336 -0.19894,-0.1709 0,-0.1261 0.01961,-0.1429 0.37827,-0.1429 z" />
        <path
           inkscape:connector-curvature="0"
           id="path1025"
           style="fill:#000000;fill-opacity:1;fill-rule:nonzero;stroke:none"
           d="m 53.70321,277.3956 c 0,1.0955 -0.01681,2.9561 -0.77055,4.3879 -0.66407,1.2553 -1.72323,1.7008 -2.65349,1.7008 -0.86301,0 -1.95579,-0.3923 -2.63667,-1.684 -0.71731,-1.3422 -0.79016,-3.0066 -0.79016,-4.4047 0,-1.02 0.01961,-2.5751 0.5744,-3.9396 0.77055,-1.8438 2.15193,-2.0931 2.85243,-2.0931 0.82379,0 2.07908,0.339 2.8132,2.0398 0.53799,1.2385 0.61084,2.6871 0.61084,3.9929 z m -3.42404,-5.7469 c -1.14881,0 -1.8297,0.9835 -2.08188,2.348 -0.19614,1.0536 -0.19614,2.5947 -0.19614,3.5978 0,1.3786 0,2.5246 0.23257,3.6174 0.34184,1.5186 1.34495,1.9866 2.04545,1.9866 0.73412,0 1.684,-0.4848 2.02584,-1.9502 0.23257,-1.0199 0.24938,-2.222 0.24938,-3.6538 0,-1.1656 0,-2.5975 -0.21295,-3.6538 -0.37827,-1.953 -1.43462,-2.292 -2.06227,-2.292 z" />
        <path
           inkscape:connector-curvature="0"
           id="path1027"
           style="fill:#000000;fill-opacity:1;fill-rule:nonzero;stroke:none"
           d="m 16.76916,66.2853 v 2.47603 c 0,1.9726 -0.1541,3.00342 -0.56849,3.88014 -0.74657,1.55822 -2.14041,2.43493 -3.86986,2.43493 -1.66438,0 -2.928084,-0.76713 -3.650686,-2.21576 C 8.241768,72.0079 8.002042,70.64832 8.002042,69.13462 v -7.67124 h 1.027397 v 0.39384 c 0,1.7774 0.109589,1.9726 1.030821,1.9726 h 0.63356 10.39726 0.63699 c 0.91781,0 1.0274,-0.1952 1.0274,-1.9726 v -0.39384 h 1.02739 v 7.36644 H 22.75547 V 68.2579 c 0,-1.77397 -0.10959,-1.9726 -1.0274,-1.9726 h -0.63356 z m -1.03082,0 h -5.59246 c -1.006852,0 -1.116441,0.13356 -1.116441,1.33904 v 1.40069 c 0,2.28082 1.071921,3.35274 3.386991,3.35274 2.25,0 3.32191,-1.11644 3.32191,-3.43836 z" />
        <path
           inkscape:connector-curvature="0"
           id="path1029"
           style="fill:#000000;fill-opacity:1;fill-rule:nonzero;stroke:none"
           d="m 18.74177,84.85021 c -3.24658,0.02055 -5.5411,-1.84246 -5.5411,-4.5137 0,-2.80822 2.41781,-4.91096 5.68493,-4.91096 3.04795,0 5.11644,1.99315 5.11644,4.95206 0,2.08219 -1.0274,3.57534 -3.10959,4.4726 l -0.41781,-0.76712 c 1.68836,-0.89726 2.34589,-1.8185 2.34589,-3.28767 0,-1.11644 -0.48287,-1.92809 -1.44863,-2.5 -0.65753,-0.39384 -1.42465,-0.5685 -2.63013,-0.54795 z m -0.94178,-7.07877 c -0.66781,0 -1.14041,0.08562 -1.74315,0.3048 -1.2911,0.46233 -1.91781,1.16438 -1.91781,2.21575 0,1.33562 1.14383,2.21233 2.86644,2.21233 0.62328,0 0.79452,-0.19521 0.79452,-0.89726 z" />
        <path
           inkscape:connector-curvature="0"
           id="path1031"
           style="fill:#000000;fill-opacity:1;fill-rule:nonzero;stroke:none"
           d="m 13.70067,89.95637 v -3.88014 h 1.04795 v 0.90069 c 0,0.81164 0.15411,0.94178 1.09931,0.94178 h 5.23973 0.87671 c 0.87671,0 1.03082,-0.23973 1.03082,-1.66439 v -0.08904 h 0.78767 v 5.85274 H 22.99519 V 91.6002 c 0,-1.40068 -0.15411,-1.64383 -1.03082,-1.64383 h -0.87671 -0.21918 c -1.64726,0 -3.31164,0.30822 -4.56164,0.85616 -1.22603,0.52398 -1.90754,1.27055 -2.01713,2.19178 0.35274,-0.30821 0.57535,-0.39383 0.99658,-0.39383 0.70548,0 1.21233,0.50342 1.21233,1.20548 0,0.78767 -0.59247,1.33561 -1.4863,1.33561 -1.05137,0 -1.75,-0.74657 -1.75,-1.90753 0,-1.38014 1.11301,-2.58562 3.03767,-3.28767 z" />
        <path
           inkscape:connector-curvature="0"
           id="path1033"
           style="fill:#000000;fill-opacity:1;fill-rule:nonzero;stroke:none"
           d="m 20.46779,103.8316 c 1.5685,-0.7021 2.19863,-1.4486 2.19863,-2.5856 0,-1.75344 -1.58561,-2.84933 -4.13013,-2.84933 -2.63356,0 -4.39726,1.07191 -4.39726,2.69523 0,0.6575 0.30822,1.226 0.65411,1.226 0.06507,0 0.13013,-0.0445 0.2637,-0.1301 0.41095,-0.3528 0.63013,-0.4384 0.99657,-0.4384 0.71918,0 1.21918,0.548 1.21918,1.3151 0,0.7671 -0.60959,1.3356 -1.47945,1.3356 -1.45891,0 -2.59247,-1.4692 -2.59247,-3.4178 0,-2.84933 2.32877,-4.887 5.57534,-4.887 3.09247,0 5.22603,1.86301 5.22603,4.5788 0,1.952 -0.89383,3.0685 -3.20548,4.0102 z" />
        <path
           inkscape:connector-curvature="0"
           id="path1035"
           style="fill:#000000;fill-opacity:1;fill-rule:nonzero;stroke:none"
           d="m 18.74177,115.2719 c -3.24658,0.0205 -5.5411,-1.8425 -5.5411,-4.5137 0,-2.8082 2.41781,-4.911 5.68493,-4.911 3.04795,0 5.11644,1.9932 5.11644,4.9521 0,2.0822 -1.0274,3.5753 -3.10959,4.4726 l -0.41781,-0.7671 c 1.68836,-0.8973 2.34589,-1.8185 2.34589,-3.2877 0,-1.1165 -0.48287,-1.9281 -1.44863,-2.5 -0.65753,-0.3938 -1.42465,-0.5685 -2.63013,-0.548 z m -0.94178,-7.0788 c -0.66781,0 -1.14041,0.0856 -1.74315,0.3048 -1.2911,0.4623 -1.91781,1.1644 -1.91781,2.2158 0,1.3356 1.14383,2.2123 2.86644,2.2123 0.62328,0 0.79452,-0.1952 0.79452,-0.8973 z" />
        <path
           inkscape:connector-curvature="0"
           id="path1037"
           style="fill:#000000;fill-opacity:1;fill-rule:nonzero;stroke:none"
           d="m 13.70067,120.4226 v -3.7911 h 1.04795 v 0.7876 c 0,0.8117 0.15411,0.9418 1.09931,0.9418 h 5.23973 0.87671 c 0.87671,0 1.03082,-0.2397 1.03082,-1.6438 v -0.0856 h 0.78767 v 5.5445 h -0.78767 v -0.0891 c 0,-1.4246 -0.15411,-1.6643 -1.02739,-1.6643 h -0.87672 -2.27397 c -1.07192,0 -2.05479,0.1541 -2.55822,0.3938 -0.9863,0.4623 -1.66438,1.4486 -1.66438,2.3904 0,0.5685 0.32876,1.226 0.76712,1.5548 0.45891,0.3288 1.13699,0.4829 2.18836,0.4829 h 3.54109 0.87672 c 0.87328,0 1.02739,-0.2397 1.02739,-1.6644 v -0.089 h 0.78767 v 5.5445 H 22.99519 V 128.95 c 0,-1.4041 -0.15411,-1.6439 -1.02739,-1.6439 h -0.87672 -3.43493 c -1.57192,0 -1.96575,-0.0685 -2.71233,-0.4623 -1.04794,-0.5479 -1.6815,-1.6644 -1.6815,-2.9589 0,-1.4007 0.64726,-2.4966 2.07876,-3.4623 z" />
        <path
           inkscape:connector-curvature="0"
           id="path1039"
           style="fill:#000000;fill-opacity:1;fill-rule:nonzero;stroke:none"
           d="M 13.48149,133.6842 H 9.097933 v -0.9007 c 2.876707,-0.2192 4.342467,-1.1815 4.472607,-2.9589 h 0.85273 v 1.7979 h 5.57535 c 1.53082,0 2.07876,0.0446 2.58219,0.2637 0.91781,0.3494 1.42123,1.2261 1.42123,2.4966 0,0.8562 -0.2637,1.6028 -0.74315,2.1062 -0.70205,0.7226 -1.85959,1.1404 -3.06507,1.1404 -0.13013,0 -0.28424,0 -0.50342,-0.024 v -0.9212 c 1.96918,-0.0651 2.97603,-0.6336 2.97603,-1.7089 0,-0.5034 -0.26028,-0.9418 -0.63357,-1.0959 -0.30479,-0.1301 -0.85274,-0.1952 -1.64041,-0.1952 h -5.96918 v 3.2192 h -0.94178 z" />
        <path
           inkscape:connector-curvature="0"
           id="path1041"
           style="fill:#000000;fill-opacity:1;fill-rule:nonzero;stroke:none"
           d="m 16.64245,147.8641 c -1.36301,0 -2.05822,-0.2431 -2.57876,-0.8767 -0.56165,-0.7226 -0.86302,-1.7979 -0.86302,-3.2021 0,-2.452 1.14726,-4.2739 2.70891,-4.2739 0.82534,0 1.34589,0.5068 1.34589,1.2739 0,0.6781 -0.45548,1.1815 -1.10274,1.1815 -0.28425,0 -0.58562,-0.1095 -0.89041,-0.3287 -0.14727,-0.1302 -0.21233,-0.1541 -0.28083,-0.1541 -0.45205,0 -0.84246,0.9007 -0.84246,1.952 0,0.6781 0.21575,1.4452 0.54109,1.798 0.34589,0.4144 0.86644,0.5685 1.84247,0.5685 h 0.84246 c 0.39384,-2.3014 0.5685,-3.0035 0.97946,-4.0754 0.70205,-1.887 1.72602,-2.8048 3.10274,-2.8048 1.55137,0 2.55479,1.2466 2.55479,3.1781 0,1.5103 -0.62671,2.8699 -1.76712,3.8117 1.11301,0.3527 1.54794,0.9006 1.54794,1.928 0,0.9863 -0.63356,2.0172 -1.26712,2.0172 -0.15069,0 -0.26027,-0.1096 -0.26027,-0.2192 0,-0.0856 0.02054,-0.1747 0.08561,-0.3288 0.12671,-0.3493 0.15069,-0.4383 0.15069,-0.613 0,-0.613 -0.41439,-0.8322 -1.49658,-0.8322 z m 2.65411,-2.0616 c 1.31507,0 1.61986,-0.0651 2.18836,-0.4384 0.81164,-0.5479 1.35616,-1.5548 1.35616,-2.4966 0,-0.9863 -0.7226,-1.7328 -1.70548,-1.7328 -0.91781,0 -1.57534,0.4589 -2.03424,1.4246 -0.3048,0.6781 -0.52398,1.5343 -0.80822,3.2432 z" />
        <path
           inkscape:connector-curvature="0"
           id="path1043"
           style="fill:#000000;fill-opacity:1;fill-rule:nonzero;stroke:none"
           d="m 22.11848,154.4373 c 0,-1.2055 -0.02397,-1.2706 -0.19178,-1.5343 -0.09589,-0.1507 -0.35959,-0.2603 -0.61986,-0.2603 -0.71918,0 -1.03083,0.5891 -1.03083,2.0583 0,2.0822 -0.04452,2.4109 -0.36986,3.1335 -0.58562,1.3151 -1.7089,2.0617 -3.13356,2.0617 -0.86302,0 -1.40411,-0.1987 -2.11644,-0.8117 -0.38699,0.3733 -0.51712,0.5719 -0.51712,0.7466 0,0.1096 0.06849,0.1747 0.30137,0.2192 0.51712,0.0856 0.79452,0.4383 0.79452,0.9863 0,0.5479 -0.45891,0.9863 -1.04795,0.9863 -0.74657,0 -1.27055,-0.5925 -1.27055,-1.4487 0,-0.6986 0.22261,-1.0958 1.15754,-2.1027 -0.61302,-0.9212 -0.82877,-1.6233 -0.82877,-2.7192 0,-2.6061 1.41438,-4.315 3.56507,-4.315 1.26712,0 2.36301,0.6986 2.87671,1.839 0.33562,-1.4692 1.00685,-2.0822 2.23973,-2.0822 0.98287,0 1.56507,0.4384 1.92123,1.4692 0.47945,-1.3596 1.17808,-2.0171 2.07192,-2.0171 1.43835,0 2.24657,1.6883 2.24657,4.6267 0,3.6575 -1.15753,5.5 -3.45205,5.5 -1.08904,0 -1.9589,-0.5034 -2.28767,-1.3151 -0.21918,-0.5685 -0.30822,-1.2705 -0.30822,-2.7842 z m -7.97945,1.2945 c 0,1.3801 0.94863,2.1472 2.60959,2.1472 1.6815,0 2.69863,-0.8321 2.69863,-2.2363 0,-1.3561 -1.01713,-2.2123 -2.63357,-2.2123 -1.70205,0 -2.67465,0.8322 -2.67465,2.3014 z m 9.86301,-0.1986 c 0,1.8219 0,1.952 0.0411,2.2808 0.08904,0.8767 0.56849,1.4246 1.26369,1.4246 1.24316,0 1.96233,-1.4246 1.96233,-3.8801 0,-1.839 -0.54452,-2.8938 -1.52397,-2.8938 -0.71918,0 -1.20205,0.3972 -1.74315,1.4486 z" />
        <path
           inkscape:connector-curvature="0"
           id="path1045"
           style="fill:#000000;fill-opacity:1;fill-rule:nonzero;stroke:none"
           d="m 18.74177,172.1044 c -3.24658,0.0205 -5.5411,-1.8425 -5.5411,-4.5137 0,-2.8082 2.41781,-4.911 5.68493,-4.911 3.04795,0 5.11644,1.9932 5.11644,4.9521 0,2.0822 -1.0274,3.5753 -3.10959,4.4726 l -0.41781,-0.7671 c 1.68836,-0.8973 2.34589,-1.8185 2.34589,-3.2877 0,-1.1164 -0.48287,-1.9281 -1.44863,-2.5 -0.65753,-0.3938 -1.42465,-0.5685 -2.63013,-0.548 z m -0.94178,-7.0788 c -0.66781,0 -1.14041,0.0856 -1.74315,0.3048 -1.2911,0.4623 -1.91781,1.1644 -1.91781,2.2158 0,1.3356 1.14383,2.2123 2.86644,2.2123 0.62328,0 0.79452,-0.1952 0.79452,-0.8973 z" />
        <path
           inkscape:connector-curvature="0"
           id="path1047"
           style="fill:#000000;fill-opacity:1;fill-rule:nonzero;stroke:none"
           d="m 20.40615,187.5775 -10.17123,-4.0103 c -0.263701,-0.1096 -0.527399,-0.1747 -0.657536,-0.1747 -0.393836,0 -0.547945,0.3733 -0.547945,1.3596 v 0.8767 H 8.002041 v -6.839 h 1.027398 v 0.4383 c 0,0.9863 0.219178,1.2706 1.229451,1.6884 l 13.89384,5.5445 v 0.8767 l -12.97603,5.0411 c -1.708905,0.6576 -2.147261,1.1404 -2.147261,2.387 v 0.2192 H 8.002041 v -5.9384 h 1.027398 v 0.4178 c 0,1.1165 0.438356,1.774 1.140411,1.774 0.30479,0 0.80822,-0.1096 1.2226,-0.2637 z" />
        <path
           inkscape:connector-curvature="0"
           id="path1049"
           style="fill:#000000;fill-opacity:1;fill-rule:nonzero;stroke:none"
           d="m 13.70067,198.9084 v -4.1199 h 1.04795 v 1.1199 c 0,0.8082 0.15411,0.9418 1.09931,0.9418 h 5.23973 0.87671 c 0.87671,0 1.03082,-0.2432 1.03082,-1.6439 v -0.1541 h 0.78767 v 5.6781 h -0.78767 v -0.1541 c 0,-1.4247 -0.15068,-1.6678 -1.0137,-1.6678 H 21.11505 Z M 8.094507,197.881 c 0,-0.7021 0.568493,-1.274 1.267123,-1.274 0.67808,0 1.27055,0.5719 1.27055,1.25 0,0.7226 -0.56849,1.2945 -1.27055,1.2945 -0.69863,0 -1.267123,-0.5719 -1.267123,-1.2705 z" />
        <path
           inkscape:connector-curvature="0"
           id="path1051"
           style="fill:#000000;fill-opacity:1;fill-rule:nonzero;stroke:none"
           d="m 7.782863,205.2438 v -3.7706 h 1.047946 v 0.7671 c 0,0.8117 0.154109,0.9418 1.089041,0.9418 h 8.46575 c 2.91781,0 4.33562,-0.1096 5.61644,-0.3938 v 0.8322 l -1.69863,1.0753 c 1.16096,0.8973 1.69863,1.9281 1.69863,3.2877 0,2.6952 -2.32192,4.7123 -5.44178,4.7123 -3.12329,0 -5.31507,-1.8424 -5.31507,-4.4726 0,-1.3356 0.45548,-2.1472 1.69863,-2.9794 z m 6.575347,2.5856 c 0,1.6438 1.58561,2.5651 4.42808,2.5651 2.7363,0 4.29794,-0.8973 4.29794,-2.5 0,-1.7295 -1.58219,-2.7603 -4.25342,-2.7603 -2.88699,0 -4.4726,0.9418 -4.4726,2.6952 z" />
        <path
           inkscape:connector-curvature="0"
           id="path1053"
           style="fill:#000000;fill-opacity:1;fill-rule:nonzero;stroke:none"
           d="m 13.70067,217.8238 v -3.8802 h 1.04795 v 0.9007 c 0,0.8117 0.15411,0.9418 1.09931,0.9418 h 5.23973 0.87671 c 0.87671,0 1.03082,-0.2397 1.03082,-1.6644 v -0.089 h 0.78767 v 5.8527 h -0.78767 v -0.4178 c 0,-1.4007 -0.15411,-1.6438 -1.03082,-1.6438 h -0.87671 -0.21918 c -1.64726,0 -3.31164,0.3082 -4.56164,0.8561 -1.22603,0.524 -1.90754,1.2706 -2.01713,2.1918 0.35274,-0.3082 0.57535,-0.3938 0.99658,-0.3938 0.70548,0 1.21233,0.5034 1.21233,1.2055 0,0.7876 -0.59247,1.3356 -1.4863,1.3356 -1.05137,0 -1.75,-0.7466 -1.75,-1.9076 0,-1.3801 1.11301,-2.5856 3.03767,-3.2876 z" />
        <path
           inkscape:connector-curvature="0"
           id="path1055"
           style="fill:#000000;fill-opacity:1;fill-rule:nonzero;stroke:none"
           d="m 16.64245,233.1237 c -1.36301,0 -2.05822,-0.2432 -2.57876,-0.8768 -0.56165,-0.7226 -0.86302,-1.7979 -0.86302,-3.202 0,-2.4521 1.14726,-4.274 2.70891,-4.274 0.82534,0 1.34589,0.5069 1.34589,1.274 0,0.6781 -0.45548,1.1815 -1.10274,1.1815 -0.28425,0 -0.58562,-0.1096 -0.89041,-0.3288 -0.14727,-0.1301 -0.21233,-0.1541 -0.28083,-0.1541 -0.45205,0 -0.84246,0.9007 -0.84246,1.9521 0,0.6781 0.21575,1.4452 0.54109,1.7979 0.34589,0.4144 0.86644,0.5685 1.84247,0.5685 h 0.84246 c 0.39384,-2.3014 0.5685,-3.0034 0.97946,-4.0753 0.70205,-1.887 1.72602,-2.8048 3.10274,-2.8048 1.55137,0 2.55479,1.2465 2.55479,3.1781 0,1.5102 -0.62671,2.8698 -1.76712,3.8116 1.11301,0.3527 1.54794,0.9007 1.54794,1.9281 0,0.9863 -0.63356,2.0171 -1.26712,2.0171 -0.15069,0 -0.26027,-0.1096 -0.26027,-0.2192 0,-0.0856 0.02054,-0.1746 0.08561,-0.3287 0.12671,-0.3494 0.15069,-0.4384 0.15069,-0.6131 0,-0.613 -0.41439,-0.8321 -1.49658,-0.8321 z m 2.65411,-2.0617 c 1.31507,0 1.61986,-0.0651 2.18836,-0.4383 0.81164,-0.548 1.35616,-1.5548 1.35616,-2.4966 0,-0.9863 -0.7226,-1.7329 -1.70548,-1.7329 -0.91781,0 -1.57534,0.4589 -2.03424,1.4247 -0.3048,0.678 -0.52398,1.5342 -0.80822,3.2431 z" />
        <path
           inkscape:connector-curvature="0"
           id="path1057"
           style="fill:#000000;fill-opacity:1;fill-rule:nonzero;stroke:none"
           d="M 13.48149,239.6557 H 9.097933 v -0.9007 c 2.876707,-0.2192 4.342467,-1.1815 4.472607,-2.9589 h 0.85273 v 1.798 h 5.57535 c 1.53082,0 2.07876,0.0445 2.58219,0.2637 0.91781,0.3493 1.42123,1.226 1.42123,2.4965 0,0.8562 -0.2637,1.6028 -0.74315,2.1062 -0.70205,0.7226 -1.85959,1.1404 -3.06507,1.1404 -0.13013,0 -0.28424,0 -0.50342,-0.024 v -0.9212 c 1.96918,-0.0651 2.97603,-0.6336 2.97603,-1.7089 0,-0.5034 -0.26028,-0.9418 -0.63357,-1.0959 -0.30479,-0.1301 -0.85274,-0.1952 -1.64041,-0.1952 h -5.96918 v 3.2192 h -0.94178 z" />
        <path
           inkscape:connector-curvature="0"
           id="path1059"
           style="fill:#000000;fill-opacity:1;fill-rule:nonzero;stroke:none"
           d="m 13.70067,248.4418 v -4.1199 h 1.04795 v 1.1199 c 0,0.8082 0.15411,0.9418 1.09931,0.9418 h 5.23973 0.87671 c 0.87671,0 1.03082,-0.2432 1.03082,-1.6439 v -0.1541 h 0.78767 v 5.6781 h -0.78767 v -0.1541 c 0,-1.4246 -0.15068,-1.6678 -1.0137,-1.6678 h -0.86644 z m -5.606163,-1.0274 c 0,-0.702 0.568493,-1.274 1.267123,-1.274 0.67808,0 1.27055,0.572 1.27055,1.25 0,0.7226 -0.56849,1.2946 -1.27055,1.2946 -0.69863,0 -1.267123,-0.572 -1.267123,-1.2706 z" />
        <path
           inkscape:connector-curvature="0"
           id="path1061"
           style="fill:#000000;fill-opacity:1;fill-rule:nonzero;stroke:none"
           d="m 13.20067,256.356 c 0,-2.6747 2.37329,-4.7774 5.42123,-4.7774 2.98288,0 5.38014,2.1027 5.38014,4.7328 0,2.6302 -2.39726,4.7329 -5.40068,4.7329 -2.98288,0 -5.40069,-2.1027 -5.40069,-4.6883 z m 0.93836,0 c 0,1.5342 1.59246,2.387 4.46233,2.387 2.89041,0 4.4589,-0.8528 4.4589,-2.4316 0,-1.5787 -1.56849,-2.4315 -4.43836,-2.4315 -2.9589,0 -4.48287,0.8322 -4.48287,2.4761 z" />
        <path
           inkscape:connector-curvature="0"
           id="path1063"
           style="fill:#000000;fill-opacity:1;fill-rule:nonzero;stroke:none"
           d="m 13.70067,266.1745 v -3.7911 h 1.04795 v 0.7876 c 0,0.8117 0.15411,0.9418 1.09931,0.9418 h 5.23973 0.87671 c 0.87671,0 1.03082,-0.2397 1.03082,-1.6438 v -0.0856 h 0.78767 v 5.5445 h -0.78767 v -0.0891 c 0,-1.4246 -0.15411,-1.6643 -1.02739,-1.6643 h -0.87672 -2.27397 c -1.07192,0 -2.05479,0.1541 -2.55822,0.3938 -0.9863,0.4623 -1.66438,1.4486 -1.66438,2.3904 0,0.5685 0.32876,1.226 0.76712,1.5548 0.45891,0.3288 1.13699,0.4829 2.18836,0.4829 h 3.54109 0.87672 c 0.87328,0 1.02739,-0.2398 1.02739,-1.6644 v -0.0891 h 0.78767 v 5.5446 h -0.78767 v -0.0856 c 0,-1.4042 -0.15411,-1.6439 -1.02739,-1.6439 h -0.87672 -3.43493 c -1.57192,0 -1.96575,-0.0685 -2.71233,-0.4623 -1.04794,-0.548 -1.6815,-1.6644 -1.6815,-2.9589 0,-1.4007 0.64726,-2.4966 2.07876,-3.4623 z" />
        <g
           transform="matrix(1,0,0,-1,0,292)"
           id="g1065">
          <path
             inkscape:connector-curvature="0"
             id="path1067"
             style="fill:none;stroke:#000000;stroke-width:1;stroke-linecap:round;stroke-linejoin:miter;stroke-miterlimit:4;stroke-dasharray:1, 3;stroke-dashoffset:0;stroke-opacity:1"
             d="M 398.0984,197.5555 H 61.39574" />
        </g>
        <g
           transform="matrix(1,0,0,-1,0,292)"
           id="g1069">
          <path
             inkscape:connector-curvature="0"
             id="path1071"
             style="fill:none;stroke:#e41a1c;stroke-width:2;stroke-linecap:square;stroke-linejoin:round;stroke-miterlimit:4;stroke-dasharray:none;stroke-opacity:1"
             d="m 244.1978,234.3415 -9.8713,-18.7198 -34.0012,-64.3109 -24.8611,-46.6475 -21.205,-39.37409 -19.0115,-34.875 -9.2765,-16.7888 m 236.434,0 -3.4076,6.1527 -19.1943,35.0694 -21.5706,39.9314 -25.7751,48.26969 -48.2598,91.2929" />
        </g>
        <g
           transform="matrix(1,0,0,-1,0,292)"
           id="g1073">
          <path
             inkscape:connector-curvature="0"
             id="path1075"
             style="fill:none;stroke:#000000;stroke-width:0.80000001;stroke-linecap:square;stroke-linejoin:miter;stroke-miterlimit:4;stroke-dasharray:none;stroke-opacity:1"
             d="M 61.39572,234.3416 V 13.6255" />
        </g>
        <g
           transform="matrix(1,0,0,-1,0,292)"
           id="g1077">
          <path
             inkscape:connector-curvature="0"
             id="path1079"
             style="fill:none;stroke:#000000;stroke-width:0.80000001;stroke-linecap:square;stroke-linejoin:miter;stroke-miterlimit:4;stroke-dasharray:none;stroke-opacity:1"
             d="M 61.39572,234.3416 H 427" />
        </g>
        <path
           inkscape:connector-curvature="0"
           id="path1081"
           style="fill:#ffffff;fill-opacity:1;fill-rule:nonzero;stroke:none"
           d="M 203.4457,245.4614 H 284.95 c 2.4,0 3.6,1.2 3.6,3.6 v 23.9131 c 0,2.4 -1.2,3.6 -3.6,3.6 h -81.5043 c -2.4,0 -3.6,-1.2 -3.6,-3.6 v -23.9131 c 0,-2.4 1.2,-3.6 3.6,-3.6 z" />
        <g
           transform="matrix(1,0,0,-1,0,292)"
           id="g1083">
          <path
             inkscape:connector-curvature="0"
             id="path1085"
             style="fill:none;stroke:#cccccc;stroke-width:1;stroke-linecap:butt;stroke-linejoin:miter;stroke-miterlimit:4;stroke-dasharray:none;stroke-opacity:1"
             d="M 203.4457,46.53863 H 284.95 c 2.4,0 3.6,-1.2 3.6,-3.6 V 19.0255 c 0,-2.4 -1.2,-3.6 -3.6,-3.6 h -81.5043 c -2.4,0 -3.6,1.2 -3.6,3.6 v 23.91313 c 0,2.4 1.2,3.6 3.6,3.6 z" />
        </g>
        <g
           transform="matrix(1,0,0,-1,0,292)"
           id="g1087">
          <path
             inkscape:connector-curvature="0"
             id="path1089"
             style="fill:none;stroke:#e41a1c;stroke-width:2;stroke-linecap:square;stroke-linejoin:round;stroke-miterlimit:4;stroke-dasharray:none;stroke-opacity:1"
             d="m 207.0457,29.63147 h 36" />
        </g>
        <path
           inkscape:connector-curvature="0"
           id="path1091"
           style="fill:#000000;fill-opacity:1;fill-rule:nonzero;stroke:none"
           d="m 267.6506,268.9801 h -8.8963 l -0.3587,-4.5224 h 0.807 c 0.5744,2.9813 1.2749,3.6818 3.6762,3.6818 h 2.3313 l -7.3329,-11.4265 v -0.6445 h 9.5576 l 0.3223,4.9736 h -0.8434 c -0.2494,-1.6644 -0.5548,-2.5582 -1.076,-3.2027 -0.4483,-0.5884 -1.415,-0.9303 -2.5806,-0.9303 h -2.9786 l 7.3721,11.4266 z" />
        <path
           inkscape:connector-curvature="0"
           id="path1093"
           style="fill:#000000;fill-opacity:1;fill-rule:nonzero;stroke:none"
           d="m 275.4496,258.8313 -3.2811,8.3219 c -0.0897,0.2158 -0.1429,0.4315 -0.1429,0.538 0,0.3222 0.3054,0.4483 1.1124,0.4483 h 0.7173 v 0.8406 h -5.5956 v -0.8406 h 0.3587 c 0.8069,0 1.0395,-0.1793 1.3813,-1.0059 l 4.5365,-11.3677 h 0.7173 l 4.1245,10.6168 c 0.538,1.3982 0.9331,1.7568 1.953,1.7568 h 0.1793 v 0.8406 h -4.8586 v -0.8406 h 0.3418 c 0.9135,0 1.4515,-0.3586 1.4515,-0.933 0,-0.2494 -0.0897,-0.6613 -0.2158,-1.0004 z" />
        <g
           transform="matrix(1,0,0,-1,0,292)"
           id="g1095">
          <path
             inkscape:connector-curvature="0"
             id="path1097"
             style="fill:none;stroke:#000000;stroke-width:1;stroke-linecap:butt;stroke-linejoin:miter;stroke-miterlimit:4;stroke-dasharray:none;stroke-opacity:1"
             d="M 224.4072,197.8049 V 174.8401" />
        </g>
        <g
           transform="matrix(1,0,0,-1,0,292)"
           id="g1099">
          <path
             inkscape:connector-curvature="0"
             id="path1101"
             style="fill:none;stroke:#000000;stroke-width:1;stroke-linecap:butt;stroke-linejoin:miter;stroke-miterlimit:4;stroke-dasharray:none;stroke-opacity:1"
             d="M 233.5834,179.1462 H 254.8" />
        </g>
        <path
           inkscape:connector-curvature="0"
           id="path1103"
           style="fill:#000000;fill-opacity:1;fill-rule:nonzero;stroke:none"
           d="m 233.5834,115.8538 -8,-3 8,-3 z" />
        <g
           transform="matrix(1,0,0,-1,0,292)"
           id="g1105">
          <path
             inkscape:connector-curvature="0"
             id="path1107"
             style="fill:none;stroke:#000000;stroke-width:1;stroke-linecap:butt;stroke-linejoin:miter;stroke-miterlimit:4;stroke-dasharray:none;stroke-opacity:1"
             d="m 233.5834,176.1462 -8,3 8,3 z" />
        </g>
        <path
           inkscape:connector-curvature="0"
           id="path1109"
           style="fill:#000000;fill-opacity:1;fill-rule:nonzero;stroke:none"
           d="m 254.8,109.8538 8,3 -8,3 z" />
        <g
           transform="matrix(1,0,0,-1,0,292)"
           id="g1111">
          <path
             inkscape:connector-curvature="0"
             id="path1113"
             style="fill:none;stroke:#000000;stroke-width:1;stroke-linecap:butt;stroke-linejoin:miter;stroke-miterlimit:4;stroke-dasharray:none;stroke-opacity:1"
             d="m 254.8,182.1462 8,-3 -8,-3 z" />
        </g>
        <g
           transform="matrix(1,0,0,-1,0,292)"
           id="g1115">
          <path
             inkscape:connector-curvature="0"
             id="path1117"
             style="fill:none;stroke:#000000;stroke-width:1;stroke-linecap:butt;stroke-linejoin:miter;stroke-miterlimit:4;stroke-dasharray:none;stroke-opacity:1"
             d="M 263.6238,197.8049 V 174.8401" />
        </g>
        <g
           transform="matrix(1,0,0,-1,228.0135,118.9757)"
           id="g1119">
          <text
             id="text1123"
             style="font-variant:normal;font-weight:normal;font-size:18px;font-family:'CMU Serif';-inkscape-font-specification:CMUSerif-Roman;writing-mode:lr-tb;fill:#000000;fill-opacity:1;fill-rule:nonzero;stroke:none">
            <tspan
               id="tspan1121"
               sodipodi:role="line"
               y="0"
               x="0 9 14.004 23.004">0.06</tspan>
          </text>
        </g>
      </g>
      <g
         id="g1125">
        <g
           clip-path="url(#clipPath1131)"
           id="g1127">
          <path
             inkscape:connector-curvature="0"
             id="path1133"
             style="fill:#000000;fill-opacity:1;fill-rule:nonzero;stroke:none"
             d="m 411.9115,100.6381 c 0.9894,1.5941 1.8413,1.6491 2.6109,1.7041 0.2474,0 0.2748,0.3573 0.2748,0.3848 0,0.1648 -0.1099,0.2473 -0.2748,0.2473 -0.5222,0 -1.1268,-0.055 -1.6765,-0.055 -0.6871,0 -1.3742,0.055 -2.0338,0.055 -0.11,0 -0.3848,0 -0.3848,-0.3848 0,-0.2473 0.1924,-0.2473 0.3298,-0.2473 0.5497,-0.055 0.9345,-0.2474 0.9345,-0.6872 0,-0.3023 -0.3023,-0.7695 -0.3023,-0.7695 l -6.2939,-10.0042 -1.4017,10.8287 c 0,0.3573 0.4672,0.6322 1.4292,0.6322 0.2748,0 0.4947,0 0.4947,0.4122 0,0.1649 -0.1649,0.2199 -0.2749,0.2199 -0.8245,0 -1.704,-0.0825 -2.556,-0.0825 -0.3573,0 -0.742,0.0275 -1.1268,0.0275 -0.3573,0 -0.7421,0.055 -1.0994,0.055 -0.1374,0 -0.3848,0 -0.3848,-0.3848 0,-0.2473 0.1924,-0.2473 0.4948,-0.2473 1.1543,0 1.1818,-0.1925 1.2367,-0.7146 l 1.6216,-12.6427 c 0.055,-0.41226 0.1374,-0.46723 0.4123,-0.46723 0.3298,0 0.4122,0.08246 0.5771,0.35729 l 7.3933,11.76314" />
          <path
             inkscape:connector-curvature="0"
             id="path1135"
             style="fill:#000000;fill-opacity:1;fill-rule:nonzero;stroke:none"
             d="m 414.5224,91.65085 h 1.4567 c 0.2748,0 0.4672,0 0.4672,0.30233 0,0.19239 -0.1924,0.19239 -0.4397,0.19239 h -1.3468 l 0.5222,2.14378 c 0.0275,0.05495 0.055,0.13741 0.055,0.19236 0,0.24738 -0.2199,0.46725 -0.4947,0.46725 -0.3573,0 -0.5772,-0.24738 -0.6871,-0.63217 -0.0825,-0.35729 0.1099,0.32984 -0.5222,-2.17122 h -1.4841 c -0.2749,0 -0.4398,0 -0.4398,-0.30233 0,-0.19239 0.1649,-0.19239 0.4123,-0.19239 h 1.3742 l -0.852,-3.40802 c -0.0825,-0.35729 -0.2199,-0.87949 -0.2199,-1.04439 0,-0.85201 0.7146,-1.37421 1.5391,-1.37421 1.5941,0 2.5011,2.00634 2.5011,2.19873 0,0.19239 -0.1925,0.19239 -0.2199,0.19239 -0.1924,0 -0.1924,-0.02749 -0.3023,-0.27484 -0.4123,-0.90698 -1.1544,-1.70402 -1.9239,-1.70402 -0.3024,0 -0.5222,0.16491 -0.5222,0.6871 0,0.13743 0.0824,0.43975 0.1099,0.60466 l 1.0169,4.1226" />
          <path
             inkscape:connector-curvature="0"
             id="path1137"
             style="fill:#000000;fill-opacity:1;fill-rule:nonzero;stroke:none"
             d="m 424.8015,89.78193 c 0,1.59408 -1.1818,2.52857 -2.5835,2.52857 -2.1438,0 -4.1501,-2.00637 -4.1501,-3.95774 0,-1.45665 1.0718,-2.52853 2.6109,-2.52853 2.0614,0 4.1227,1.89641 4.1227,3.9577 z m -4.0951,-3.54544 c -0.7147,0 -1.4292,0.43975 -1.4292,1.59408 0,0.57717 0.2748,1.97885 0.8245,2.80337 0.6047,0.87949 1.4566,1.26427 2.0888,1.26427 0.7695,0 1.4292,-0.5222 1.4292,-1.59408 0,-0.35729 -0.165,-1.75898 -0.7971,-2.77588 -0.5497,-0.85201 -1.4017,-1.29176 -2.1162,-1.29176" />
          <path
             inkscape:connector-curvature="0"
             id="path1139"
             style="fill:#000000;fill-opacity:1;fill-rule:nonzero;stroke:none"
             d="m 429.3913,95.49861 c 0,0.02751 0.0549,0.21987 0.0549,0.21987 0,0.08247 -0.0549,0.21987 -0.2198,0.21987 -0.3024,0 -1.4841,-0.10989 -1.8415,-0.1374 -0.1099,-0.02752 -0.3022,-0.05495 -0.3022,-0.35729 0,-0.19236 0.1923,-0.19236 0.3572,-0.19236 0.6871,0 0.6871,-0.08246 0.6871,-0.21988 0,-0.08246 -0.0274,-0.16492 -0.0549,-0.30233 l -1.7865,-7.09091 c -0.0275,-0.13742 -0.055,-0.30232 -0.055,-0.43974 0,-0.93446 0.8245,-1.37421 1.5117,-1.37421 0.3298,0 0.7695,0.10994 1.1543,0.76955 0.3023,0.5222 0.4947,1.37421 0.4947,1.42918 0,0.19239 -0.1924,0.19239 -0.2199,0.19239 -0.2199,0 -0.2474,-0.08246 -0.3023,-0.35729 -0.1924,-0.71459 -0.4398,-1.62157 -1.0719,-1.62157 -0.3848,0 -0.4947,0.35729 -0.4947,0.6871 0,0.16491 0.055,0.43975 0.0824,0.60466 l 2.0064,7.97036" />
        </g>
      </g>
    </g>
  </g>
</svg>
