<?xml version="1.0" encoding="utf-8" standalone="no"?>
<!DOCTYPE svg PUBLIC "-//W3C//DTD SVG 1.1//EN"
  "http://www.w3.org/Graphics/SVG/1.1/DTD/svg11.dtd">
<!-- Created with matplotlib (http://matplotlib.org/) -->
<svg height="288pt" version="1.1" viewBox="0 0 432 288" width="432pt" xmlns="http://www.w3.org/2000/svg" xmlns:xlink="http://www.w3.org/1999/xlink">
 <defs>
  <style type="text/css">
*{stroke-linecap:butt;stroke-linejoin:round;}
  </style>
 </defs>
 <g id="figure_1">
  <g id="patch_1">
   <path d="M 0 288 
L 432 288 
L 432 0 
L 0 0 
z
" style="fill:#ffffff;"/>
  </g>
  <g id="axes_1">
   <g id="patch_2">
    <path d="M 77.40608 228 
L 416.5 228 
L 416.5 15.5 
L 77.40608 15.5 
z
" style="fill:#ffffff;"/>
   </g>
   <g id="matplotlib.axis_1">
    <g id="xtick_1">
     <g id="line2d_1">
      <defs>
       <path d="M 0 0 
L 0 3.5 
" id="m54c99ea7e8" style="stroke:#000000;stroke-width:0.8;"/>
      </defs>
      <g>
       <use style="stroke:#000000;stroke-width:0.8;" x="77.40608" xlink:href="#m54c99ea7e8" y="228"/>
      </g>
     </g>
     <g id="text_1">
      <!-- $0.0$ -->
      <defs>
       <path d="M 42 31.640625 
C 42 37.75 41.90625 48.125 37.703125 56.109375 
C 34 63.109375 28.09375 65.59375 22.90625 65.59375 
C 18.09375 65.59375 12 63.40625 8.203125 56.203125 
C 4.203125 48.71875 3.796875 39.4375 3.796875 31.640625 
C 3.796875 25.953125 3.90625 17.28125 7 9.671875 
C 11.296875 -0.609375 19 -2 22.90625 -2 
C 27.5 -2 34.5 -0.109375 38.59375 9.375 
C 41.59375 16.28125 42 24.359375 42 31.640625 
z
M 22.90625 -0.40625 
C 16.5 -0.40625 12.703125 5.078125 11.296875 12.6875 
C 10.203125 18.5625 10.203125 27.15625 10.203125 32.75 
C 10.203125 40.4375 10.203125 46.828125 11.5 52.921875 
C 13.40625 61.390625 19 64 22.90625 64 
C 27 64 32.296875 61.296875 34.203125 53.125 
C 35.5 47.4375 35.59375 40.734375 35.59375 32.75 
C 35.59375 26.25 35.59375 18.265625 34.40625 12.375 
C 32.296875 1.484375 26.40625 -0.40625 22.90625 -0.40625 
z
" id="CMR17-48"/>
       <path d="M 18.40625 4.796875 
C 18.40625 7.6875 16 9.671875 13.59375 9.671875 
C 10.703125 9.671875 8.703125 7.28125 8.703125 4.890625 
C 8.703125 2 11.09375 0 13.5 0 
C 16.40625 0 18.40625 2.390625 18.40625 4.796875 
z
" id="CMMI12-58"/>
      </defs>
      <g transform="translate(66.70306 248.33795)scale(0.18 -0.18)">
       <use transform="scale(0.996264)" xlink:href="#CMR17-48"/>
       <use transform="translate(45.690477 0)scale(0.996264)" xlink:href="#CMMI12-58"/>
       <use transform="translate(72.787654 0)scale(0.996264)" xlink:href="#CMR17-48"/>
      </g>
     </g>
    </g>
    <g id="xtick_2">
     <g id="line2d_2">
      <g>
       <use style="stroke:#000000;stroke-width:0.8;" x="162.221968" xlink:href="#m54c99ea7e8" y="228"/>
      </g>
     </g>
     <g id="text_2">
      <!-- $0.5$ -->
      <defs>
       <path d="M 11.40625 57.6875 
C 12.40625 57.28125 16.5 56 20.703125 56 
C 30 56 35.09375 61.109375 38 64.0625 
C 38 64.953125 38 65.5 37.40625 65.5 
C 37.296875 65.5 37.09375 65.5 36.296875 65.046875 
C 32.796875 63.40625 28.703125 62.078125 23.703125 62.078125 
C 20.703125 62.078125 16.203125 62.484375 11.296875 64.671875 
C 10.203125 65.171875 10 65.171875 9.90625 65.171875 
C 9.40625 65.171875 9.296875 65.0625 9.296875 63.078125 
L 9.296875 34.421875 
C 9.296875 32.640625 9.296875 32.140625 10.296875 32.140625 
C 10.796875 32.140625 11 32.34375 11.5 33.03125 
C 14.703125 37.515625 19.09375 39.40625 24.09375 39.40625 
C 27.59375 39.40625 35.09375 37.21875 35.09375 20.140625 
C 35.09375 16.953125 35.09375 11.171875 32.09375 6.578125 
C 29.59375 2.484375 25.703125 0.390625 21.40625 0.390625 
C 14.796875 0.390625 8.09375 5 6.296875 12.71875 
C 6.703125 12.609375 7.5 12.421875 7.90625 12.421875 
C 9.203125 12.421875 11.703125 13.125 11.703125 16.21875 
C 11.703125 18.90625 9.796875 20 7.90625 20 
C 5.59375 20 4.09375 18.59375 4.09375 15.796875 
C 4.09375 7.09375 11 -2 21.59375 -2 
C 31.90625 -2 41.703125 6.875 41.703125 19.75 
C 41.703125 31.71875 33.90625 41 24.203125 41 
C 19.09375 41 14.796875 39.109375 11.40625 35.53125 
z
" id="CMR17-53"/>
      </defs>
      <g transform="translate(151.518948 248.33795)scale(0.18 -0.18)">
       <use transform="scale(0.996264)" xlink:href="#CMR17-48"/>
       <use transform="translate(45.690477 0)scale(0.996264)" xlink:href="#CMMI12-58"/>
       <use transform="translate(72.787654 0)scale(0.996264)" xlink:href="#CMR17-53"/>
      </g>
     </g>
    </g>
    <g id="xtick_3">
     <g id="line2d_3">
      <g>
       <use style="stroke:#000000;stroke-width:0.8;" x="247.037856" xlink:href="#m54c99ea7e8" y="228"/>
      </g>
     </g>
     <g id="text_3">
      <!-- $1.0$ -->
      <defs>
       <path d="M 26.59375 63.40625 
C 26.59375 65.5 26.5 65.5 25.09375 65.5 
C 21.203125 61.1875 15.296875 59.796875 9.703125 59.796875 
C 9.40625 59.796875 8.90625 59.796875 8.796875 59.5 
C 8.703125 59.296875 8.703125 59.09375 8.703125 57 
C 11.796875 57 17 57.59375 21 59.984375 
L 21 7.203125 
C 21 3.6875 20.796875 2.5 12.203125 2.5 
L 9.203125 2.5 
L 9.203125 0 
C 14 0 19 0 23.796875 0 
C 28.59375 0 33.59375 0 38.40625 0 
L 38.40625 2.5 
L 35.40625 2.5 
C 26.796875 2.5 26.59375 3.59375 26.59375 7.15625 
z
" id="CMR17-49"/>
      </defs>
      <g transform="translate(236.334836 248.33795)scale(0.18 -0.18)">
       <use transform="scale(0.996264)" xlink:href="#CMR17-49"/>
       <use transform="translate(45.690477 0)scale(0.996264)" xlink:href="#CMMI12-58"/>
       <use transform="translate(72.787654 0)scale(0.996264)" xlink:href="#CMR17-48"/>
      </g>
     </g>
    </g>
    <g id="xtick_4">
     <g id="line2d_4">
      <g>
       <use style="stroke:#000000;stroke-width:0.8;" x="331.853744" xlink:href="#m54c99ea7e8" y="228"/>
      </g>
     </g>
     <g id="text_4">
      <!-- $1.5$ -->
      <g transform="translate(321.150724 248.33795)scale(0.18 -0.18)">
       <use transform="scale(0.996264)" xlink:href="#CMR17-49"/>
       <use transform="translate(45.690477 0)scale(0.996264)" xlink:href="#CMMI12-58"/>
       <use transform="translate(72.787654 0)scale(0.996264)" xlink:href="#CMR17-53"/>
      </g>
     </g>
    </g>
    <g id="text_5">
     <!-- Time (s) -->
     <defs>
      <path d="M 63.296875 72 
L 3.40625 72 
L 1.90625 44.265625 
L 6.203125 44.265625 
C 6.90625 49.25 7.796875 53.046875 8.90625 56.234375 
C 11.5 63.515625 16.296875 67.3125 23.09375 67.3125 
C 26.40625 67.3125 27.796875 66.203125 27.796875 63.71875 
L 27.796875 12.28125 
L 27.796875 9.375 
C 27.796875 5.1875 26.90625 4.6875 18.796875 4.6875 
L 16.203125 4.6875 
L 16.203125 0 
L 50.5 0 
L 50.5 4.6875 
L 47.90625 4.6875 
C 39.90625 4.6875 39 5.1875 39 9.375 
L 39 12.28125 
L 39 63.71875 
C 39 66.203125 40.40625 67.3125 43.703125 67.3125 
C 49.796875 67.3125 54.703125 63.90625 57.203125 57.921875 
C 58.703125 54.25 59.703125 49.953125 60.5 44.265625 
L 64.796875 44.265625 
z
" id="Century_Schoolbook_L_Roman-84"/>
      <path d="M 20.59375 46 
L 1.796875 46 
L 1.796875 41.21875 
L 6.90625 41.21875 
C 10.59375 41.21875 11.203125 40.515625 11.203125 36.203125 
L 11.203125 12.296875 
L 11.203125 8.296875 
C 11.203125 4.296875 10.09375 3.59375 3.703125 3.59375 
L 3 3.59375 
L 3 0 
L 28.90625 0 
L 28.90625 3.59375 
L 28.203125 3.59375 
C 21.703125 3.59375 20.59375 4.28125 20.59375 8.21875 
L 20.59375 12.171875 
z
M 15.90625 71.578125 
C 12.703125 71.578125 10.09375 68.984375 10.09375 65.796875 
C 10.09375 62.703125 12.703125 60 15.796875 60 
C 19.09375 60 21.703125 62.59375 21.703125 65.796875 
C 21.703125 68.984375 19.09375 71.578125 15.90625 71.578125 
z
" id="Century_Schoolbook_L_Roman-105"/>
      <path d="M 20.09375 46 
L 2.296875 46 
L 2.296875 41.21875 
L 6.40625 41.21875 
C 10.09375 41.21875 10.703125 40.515625 10.703125 36.203125 
L 10.703125 12.296875 
L 10.703125 8.40625 
C 10.703125 4.296875 9.59375 3.59375 3.203125 3.59375 
L 2.796875 3.59375 
L 2.796875 0 
L 28 0 
L 28 3.59375 
L 27.59375 3.59375 
C 21.203125 3.59375 20.09375 4.296875 20.09375 8.390625 
L 20.09375 12.28125 
L 20.09375 26.453125 
C 20.09375 35.328125 25 41.921875 31.5 41.921875 
C 34.09375 41.921875 36.90625 40.515625 38.09375 38.625 
C 39.5 36.734375 40.09375 33.828125 40.09375 29.734375 
L 40.09375 12.28125 
L 40.09375 8.28125 
C 40.09375 4.296875 39 3.59375 32.5 3.59375 
L 32.09375 3.59375 
L 32.09375 0 
L 57.40625 0 
L 57.40625 3.59375 
L 57 3.59375 
C 50.59375 3.59375 49.5 4.296875 49.5 8.28125 
L 49.5 12.28125 
L 49.5 25.546875 
C 49.5 35.53125 54 41.921875 61 41.921875 
C 64.296875 41.921875 67 40.015625 68.296875 36.921875 
C 69.203125 34.734375 69.5 32.53125 69.5 28.640625 
L 69.5 12.28125 
L 69.5 8.28125 
C 69.5 4.296875 68.40625 3.59375 61.90625 3.59375 
L 61.5 3.59375 
L 61.5 0 
L 86.796875 0 
L 86.796875 3.59375 
L 86.40625 3.59375 
C 80 3.59375 78.90625 4.296875 78.90625 8.390625 
L 78.90625 12.28125 
L 78.90625 30.640625 
C 78.90625 36.828125 78.296875 38.921875 75.703125 42.3125 
C 72.796875 46.015625 68.703125 48 63.90625 48 
C 57.40625 48 52.59375 44.9375 48.296875 38.109375 
C 46.59375 44.046875 41.203125 48 34.5 48 
C 28.5 48 24 45.140625 20.09375 38.921875 
z
" id="Century_Schoolbook_L_Roman-109"/>
      <path d="M 46.5 23 
C 46.59375 37.8125 38.09375 48.28125 25.90625 48.28125 
C 13.09375 48.28125 3.5 37.25 3.5 22.34375 
C 3.5 8.4375 12.59375 -1 26.09375 -1 
C 35.59375 -1 42.40625 3.6875 46.5 13.1875 
L 43 15.09375 
C 38.90625 7.390625 34.703125 4.390625 28 4.390625 
C 22.90625 4.390625 19.203125 6.59375 16.59375 11 
C 14.796875 14 14 17.5 14.09375 23 
z
M 14.203125 27.296875 
C 14.203125 30.34375 14.59375 32.5 15.59375 35.25 
C 17.703125 41.140625 20.90625 44 25.703125 44 
C 31.796875 44 35.796875 38.78125 35.796875 30.921875 
C 35.796875 28.078125 34.90625 27.296875 31.703125 27.296875 
z
" id="Century_Schoolbook_L_Roman-101"/>
      <path d="M 27.90625 73.453125 
C 21.90625 69.765625 18.703125 67.171875 15.296875 63.171875 
C 7.703125 54.1875 3.59375 42.71875 3.59375 30.640625 
C 3.59375 19.265625 7.203125 8.578125 13.90625 -0.296875 
C 17.703125 -5.09375 21.09375 -8.078125 27.90625 -12.28125 
L 27.90625 -8.578125 
C 17.90625 0.203125 13.90625 11.484375 13.90625 30.640625 
C 13.90625 49.796875 17.90625 60.984375 27.90625 69.765625 
z
" id="Century_Schoolbook_L_Roman-40"/>
      <path d="M 39 48 
L 35.5 48 
L 32.59375 44.40625 
C 29 47.203125 25.40625 48.390625 20.40625 48.390625 
C 11.59375 48.390625 5.796875 42.625 5.796875 33.953125 
C 5.796875 30.078125 7.09375 26.78125 9.296875 24.8125 
C 11.59375 22.703125 13.90625 21.71875 19.90625 20.3125 
L 25.203125 19.125 
C 33.09375 17.234375 35.90625 15.234375 35.90625 11.265625 
C 35.90625 6.578125 31.796875 3.296875 25.90625 3.296875 
C 17.5 3.296875 11.5 8.765625 9.09375 18.875 
L 5.09375 18.875 
L 5.09375 0 
L 8.59375 0 
L 12.09375 3.90625 
C 16.203125 0.59375 20.796875 -1 25.796875 -1 
C 35.59375 -1 42.09375 5.078125 42.09375 14.34375 
C 42.09375 18.71875 40.703125 22.09375 37.90625 24.390625 
C 35.5 26.484375 33.5 27.28125 27.40625 28.5625 
L 22.40625 29.671875 
C 16.90625 30.859375 16.90625 30.859375 15.09375 31.859375 
C 12.90625 32.859375 11.59375 34.9375 11.59375 37.140625 
C 11.59375 41.109375 15.40625 44 20.90625 44 
C 24.703125 44 27.796875 42.703125 30.59375 40.015625 
C 32.796875 37.8125 33.90625 35.828125 35.5 31.234375 
L 39 31.234375 
z
" id="Century_Schoolbook_L_Roman-115"/>
      <path d="M 5.40625 -12.28125 
C 11.40625 -8.578125 14.59375 -5.984375 18 -1.890625 
C 25.59375 6.984375 29.703125 18.5625 29.703125 30.640625 
C 29.703125 42.015625 26.09375 52.703125 19.40625 61.484375 
C 15.59375 66.375 12.203125 69.359375 5.40625 73.453125 
L 5.40625 69.765625 
C 15.40625 60.984375 19.40625 49.796875 19.40625 30.640625 
C 19.40625 11.375 15.40625 0.203125 5.40625 -8.578125 
z
" id="Century_Schoolbook_L_Roman-41"/>
     </defs>
     <g transform="translate(212.951575 270.36577)scale(0.18 -0.18)">
      <use transform="translate(0 -0.29235)scale(0.996264)" xlink:href="#Century_Schoolbook_L_Roman-84"/>
      <use transform="translate(66.450031 -0.29235)scale(0.996264)" xlink:href="#Century_Schoolbook_L_Roman-105"/>
      <use transform="translate(97.831344 -0.29235)scale(0.996264)" xlink:href="#Century_Schoolbook_L_Roman-109"/>
      <use transform="translate(186.398251 -0.29235)scale(0.996264)" xlink:href="#Century_Schoolbook_L_Roman-101"/>
      <use transform="translate(263.906621 -0.29235)scale(0.996264)" xlink:href="#Century_Schoolbook_L_Roman-40"/>
      <use transform="translate(297.081851 -0.29235)scale(0.996264)" xlink:href="#Century_Schoolbook_L_Roman-115"/>
      <use transform="translate(343.207661 -0.29235)scale(0.996264)" xlink:href="#Century_Schoolbook_L_Roman-41"/>
     </g>
    </g>
   </g>
   <g id="matplotlib.axis_2">
    <g id="ytick_1">
     <g id="line2d_5">
      <defs>
       <path d="M 0 0 
L -3.5 0 
" id="m4a7e08b2f4" style="stroke:#000000;stroke-width:0.8;"/>
      </defs>
      <g>
       <use style="stroke:#000000;stroke-width:0.8;" x="77.40608" xlink:href="#m4a7e08b2f4" y="228"/>
      </g>
     </g>
     <g id="text_6">
      <!-- $-1.0$ -->
      <defs>
       <path d="M 65.90625 23 
C 67.59375 23 69.40625 23 69.40625 25 
C 69.40625 27 67.59375 27 65.90625 27 
L 11.796875 27 
C 10.09375 27 8.296875 27 8.296875 25 
C 8.296875 23 10.09375 23 11.796875 23 
z
" id="CMSY10-0"/>
      </defs>
      <g transform="translate(35 234.668975)scale(0.18 -0.18)">
       <use transform="translate(0 -0.031134)scale(0.996264)" xlink:href="#CMSY10-0"/>
       <use transform="translate(77.487468 -0.031134)scale(0.996264)" xlink:href="#CMR17-49"/>
       <use transform="translate(123.177945 -0.031134)scale(0.996264)" xlink:href="#CMMI12-58"/>
       <use transform="translate(150.275122 -0.031134)scale(0.996264)" xlink:href="#CMR17-48"/>
      </g>
     </g>
    </g>
    <g id="ytick_2">
     <g id="line2d_6">
      <g>
       <use style="stroke:#000000;stroke-width:0.8;" x="77.40608" xlink:href="#m4a7e08b2f4" y="179.030836"/>
      </g>
     </g>
     <g id="text_7">
      <!-- $-0.5$ -->
      <g transform="translate(35 185.699811)scale(0.18 -0.18)">
       <use transform="translate(0 -0.031134)scale(0.996264)" xlink:href="#CMSY10-0"/>
       <use transform="translate(77.487468 -0.031134)scale(0.996264)" xlink:href="#CMR17-48"/>
       <use transform="translate(123.177945 -0.031134)scale(0.996264)" xlink:href="#CMMI12-58"/>
       <use transform="translate(150.275122 -0.031134)scale(0.996264)" xlink:href="#CMR17-53"/>
      </g>
     </g>
    </g>
    <g id="ytick_3">
     <g id="line2d_7">
      <g>
       <use style="stroke:#000000;stroke-width:0.8;" x="77.40608" xlink:href="#m4a7e08b2f4" y="130.061671"/>
      </g>
     </g>
     <g id="text_8">
      <!-- $0.0$ -->
      <g transform="translate(49.00004 136.730646)scale(0.18 -0.18)">
       <use transform="scale(0.996264)" xlink:href="#CMR17-48"/>
       <use transform="translate(45.690477 0)scale(0.996264)" xlink:href="#CMMI12-58"/>
       <use transform="translate(72.787654 0)scale(0.996264)" xlink:href="#CMR17-48"/>
      </g>
     </g>
    </g>
    <g id="ytick_4">
     <g id="line2d_8">
      <g>
       <use style="stroke:#000000;stroke-width:0.8;" x="77.40608" xlink:href="#m4a7e08b2f4" y="81.092507"/>
      </g>
     </g>
     <g id="text_9">
      <!-- $0.5$ -->
      <g transform="translate(49.00004 87.761482)scale(0.18 -0.18)">
       <use transform="scale(0.996264)" xlink:href="#CMR17-48"/>
       <use transform="translate(45.690477 0)scale(0.996264)" xlink:href="#CMMI12-58"/>
       <use transform="translate(72.787654 0)scale(0.996264)" xlink:href="#CMR17-53"/>
      </g>
     </g>
    </g>
    <g id="ytick_5">
     <g id="line2d_9">
      <g>
       <use style="stroke:#000000;stroke-width:0.8;" x="77.40608" xlink:href="#m4a7e08b2f4" y="32.123342"/>
      </g>
     </g>
     <g id="text_10">
      <!-- $1.0$ -->
      <g transform="translate(49.00004 38.792317)scale(0.18 -0.18)">
       <use transform="scale(0.996264)" xlink:href="#CMR17-49"/>
       <use transform="translate(45.690477 0)scale(0.996264)" xlink:href="#CMMI12-58"/>
       <use transform="translate(72.787654 0)scale(0.996264)" xlink:href="#CMR17-48"/>
      </g>
     </g>
    </g>
    <g id="text_11">
     <!-- Position (m) -->
     <defs>
      <path d="M 24.796875 32 
L 36.09375 32 
C 45.09375 32 49.796875 32.703125 53.796875 34.59375 
C 60.90625 38 64.90625 44.359375 64.90625 52.25 
C 64.90625 59.84375 61.40625 65.609375 54.796875 68.90625 
C 50.90625 70.90625 44.703125 72 37.796875 72 
L 2.796875 72 
L 2.796875 67.3125 
L 4.59375 67.3125 
C 12.703125 67.3125 13.59375 66.8125 13.59375 62.609375 
L 13.59375 59.734375 
L 13.59375 12.28125 
L 13.59375 9.375 
C 13.59375 5.1875 12.703125 4.6875 4.59375 4.6875 
L 2.796875 4.6875 
L 2.796875 0 
L 36.40625 0 
L 36.40625 4.6875 
L 33.796875 4.6875 
C 25.703125 4.6875 24.796875 5.1875 24.796875 9.375 
L 24.796875 12.265625 
z
M 24.796875 36.703125 
L 24.796875 62.21875 
C 24.796875 66.8125 25.40625 67.3125 30.90625 67.3125 
L 37.296875 67.3125 
C 47.703125 67.3125 52.59375 62.421875 52.59375 51.859375 
C 52.59375 41.59375 47.5 36.703125 36.90625 36.703125 
z
" id="Century_Schoolbook_L_Roman-80"/>
      <path d="M 25.203125 48.28125 
C 13 48.28125 3.40625 37.453125 3.40625 23.546875 
C 3.40625 9.9375 13 -1 25 -1 
C 37 -1 46.59375 9.9375 46.59375 23.640625 
C 46.59375 37.25 37 48.28125 25.203125 48.28125 
z
M 25.203125 44 
C 32.203125 44 36.09375 36.75 36.09375 23.640625 
C 36.09375 10.453125 32.203125 3.296875 25 3.296875 
C 17.796875 3.296875 13.90625 10.453125 13.90625 23.546875 
C 13.90625 37.046875 17.703125 44 25.203125 44 
z
" id="Century_Schoolbook_L_Roman-111"/>
      <path d="M 19.40625 47 
L 19.40625 67 
L 15.296875 67 
C 14.296875 53.875 9.90625 47.1875 1.796875 46.59375 
L 1.796875 42.703125 
L 10 42.703125 
L 10 17.265625 
C 10 10.28125 10.203125 7.78125 11.203125 5.484375 
C 12.796875 1.296875 16.796875 -1 22.59375 -1 
C 26.5 -1 29.90625 0.203125 32.203125 2.390625 
C 35.5 5.59375 37.40625 10.875 37.40625 16.375 
C 37.40625 16.96875 37.40625 17.671875 37.296875 18.671875 
L 33.09375 18.671875 
C 32.796875 9.6875 30.203125 5.09375 25.296875 5.09375 
C 23 5.09375 21 6.28125 20.296875 7.984375 
C 19.703125 9.375 19.40625 11.875 19.40625 15.46875 
L 19.40625 42.703125 
L 34.09375 42.703125 
L 34.09375 47 
z
" id="Century_Schoolbook_L_Roman-116"/>
      <path d="M 20 46 
L 2.703125 46 
L 2.703125 41.21875 
L 6.296875 41.21875 
C 10 41.21875 10.59375 40.515625 10.59375 36.203125 
L 10.59375 12.296875 
L 10.59375 8.296875 
C 10.59375 4.296875 9.5 3.59375 3.09375 3.59375 
L 2.703125 3.59375 
L 2.703125 0 
L 28 0 
L 28 3.59375 
L 27.59375 3.59375 
C 21.09375 3.59375 20 4.296875 20 8.28125 
L 20 12.28125 
L 20 22.65625 
C 20 27.546875 20.703125 32.03125 21.796875 34.328125 
C 23.90625 38.828125 28.40625 41.921875 32.703125 41.921875 
C 35.296875 41.921875 38.296875 40.421875 39.796875 38.421875 
C 41.296875 36.328125 42 33.234375 42 28.4375 
L 42 12.28125 
L 42 8.28125 
C 42 4.296875 40.90625 3.59375 34.40625 3.59375 
L 34 3.59375 
L 34 0 
L 59.296875 0 
L 59.296875 3.59375 
L 58.90625 3.59375 
C 52.5 3.59375 51.40625 4.296875 51.40625 8.28125 
L 51.40625 12.28125 
L 51.40625 27.953125 
C 51.40625 35.125 51.09375 36.921875 49.296875 40.328125 
C 46.796875 45.109375 41.703125 48 35.796875 48 
C 29.40625 48 24.40625 45.046875 20 38.515625 
z
" id="Century_Schoolbook_L_Roman-110"/>
     </defs>
     <g transform="translate(26.31013 171.753265)rotate(-90)scale(0.18 -0.18)">
      <use transform="translate(0 -0.29235)scale(0.996264)" xlink:href="#Century_Schoolbook_L_Roman-80"/>
      <use transform="translate(62.763873 -0.29235)scale(0.996264)" xlink:href="#Century_Schoolbook_L_Roman-111"/>
      <use transform="translate(112.577073 -0.29235)scale(0.996264)" xlink:href="#Century_Schoolbook_L_Roman-115"/>
      <use transform="translate(158.702884 -0.29235)scale(0.996264)" xlink:href="#Century_Schoolbook_L_Roman-105"/>
      <use transform="translate(190.084197 -0.29235)scale(0.996264)" xlink:href="#Century_Schoolbook_L_Roman-116"/>
      <use transform="translate(228.837903 -0.29235)scale(0.996264)" xlink:href="#Century_Schoolbook_L_Roman-105"/>
      <use transform="translate(260.219216 -0.29235)scale(0.996264)" xlink:href="#Century_Schoolbook_L_Roman-111"/>
      <use transform="translate(310.032416 -0.29235)scale(0.996264)" xlink:href="#Century_Schoolbook_L_Roman-110"/>
      <use transform="translate(398.599217 -0.29235)scale(0.996264)" xlink:href="#Century_Schoolbook_L_Roman-40"/>
      <use transform="translate(431.774446 -0.29235)scale(0.996264)" xlink:href="#Century_Schoolbook_L_Roman-109"/>
      <use transform="translate(520.341353 -0.29235)scale(0.996264)" xlink:href="#Century_Schoolbook_L_Roman-41"/>
     </g>
    </g>
   </g>
   <g id="line2d_10">
    <path clip-path="url(#p7fc31c9cd4)" d="M 77.40608 130.061671 
L 77.575712 148.814061 
L 96.235207 148.814061 
L 96.404839 181.307968 
L 102.002688 181.307968 
L 102.172319 136.613825 
L 214.129291 136.613825 
L 214.298923 101.59306 
L 226.342779 101.59306 
L 226.512411 96.501091 
L 251.617914 96.501091 
L 251.787546 49.735382 
L 286.053164 49.735382 
L 286.222796 32.123342 
L 416.5 32.123342 
L 416.5 32.123342 
" style="fill:none;stroke:#e41a1c;stroke-linecap:square;stroke-width:2;"/>
   </g>
   <g id="line2d_11">
    <path clip-path="url(#p7fc31c9cd4)" d="M 77.40608 164.688036 
L 78.763134 164.56596 
L 80.120188 164.237896 
L 81.646874 163.628793 
L 83.17356 162.775326 
L 84.869878 161.557682 
L 86.735828 159.919753 
L 88.771409 157.82262 
L 91.146254 155.047208 
L 94.369258 150.906157 
L 97.592261 146.798495 
L 98.779684 145.748426 
L 99.797474 145.130627 
L 100.815265 144.778247 
L 101.833056 144.693869 
L 104.886428 144.809823 
L 106.922009 144.594077 
L 108.95759 144.14457 
L 110.993172 143.474469 
L 113.198385 142.522503 
L 115.742861 141.174227 
L 118.796233 139.287283 
L 123.885187 135.818732 
L 128.465245 132.802052 
L 131.348985 131.164473 
L 133.72383 130.052138 
L 135.929043 129.252514 
L 137.964624 128.738437 
L 140.000205 128.45505 
L 142.035787 128.410653 
L 144.071368 128.606547 
L 146.106949 129.036994 
L 148.142531 129.689385 
L 150.347744 130.624289 
L 152.89222 131.956365 
L 155.945592 133.829773 
L 160.695282 137.05807 
L 165.614603 140.321347 
L 168.498344 141.974883 
L 171.04282 143.17555 
L 173.248033 143.975163 
L 175.283615 144.489231 
L 177.319196 144.772608 
L 179.354777 144.816995 
L 181.390359 144.621091 
L 183.42594 144.190634 
L 185.461521 143.538233 
L 187.666734 142.60332 
L 190.211211 141.271237 
L 193.264583 139.397821 
L 198.014273 136.16952 
L 202.933594 132.90625 
L 205.817334 131.252723 
L 208.361811 130.052065 
L 210.567024 129.252461 
L 212.602605 128.738403 
L 215.995241 128.005446 
L 217.182663 127.349082 
L 218.370086 126.435579 
L 219.72714 125.088524 
L 221.084194 123.435167 
L 222.61088 121.236001 
L 224.307198 118.414238 
L 226.342779 114.581672 
L 228.378361 110.300088 
L 230.922837 104.39579 
L 235.502895 93.05095 
L 239.065162 84.492615 
L 241.440007 79.338599 
L 243.475589 75.457925 
L 245.171906 72.690593 
L 246.698592 70.61302 
L 248.055647 69.12386 
L 249.243069 68.113069 
L 250.430491 67.385696 
L 251.448282 66.993392 
L 253.314232 66.407344 
L 254.840918 65.630644 
L 256.367604 64.591757 
L 258.063921 63.150915 
L 259.929871 61.251854 
L 261.965452 58.858543 
L 264.509929 55.500092 
L 268.241828 50.144074 
L 273.330781 42.880096 
L 275.875258 39.636823 
L 277.910839 37.368079 
L 279.776789 35.6052 
L 281.473106 34.303527 
L 282.999792 33.399994 
L 284.526478 32.765907 
L 285.883533 32.437036 
L 291.651013 31.68836 
L 298.266652 30.967785 
L 303.185974 30.649846 
L 307.766032 30.577277 
L 312.34609 30.731706 
L 317.265411 31.123882 
L 323.711419 31.879174 
L 335.076748 33.233612 
L 340.165701 33.582517 
L 344.745759 33.671885 
L 349.325817 33.533889 
L 354.245138 33.156214 
L 360.521514 32.432824 
L 372.56537 30.997735 
L 377.484692 30.664164 
L 382.064749 30.5748 
L 386.644807 30.7128 
L 391.564129 31.090479 
L 397.840505 31.813872 
L 409.884361 33.248957 
L 414.803682 33.582525 
L 416.5 33.642024 
L 416.5 33.642024 
" style="fill:none;stroke:#377eb8;stroke-dasharray:7.4,3.2;stroke-dashoffset:0;stroke-linecap:round;stroke-width:2;"/>
   </g>
   <g id="patch_3">
    <path d="M 77.40608 228 
L 77.40608 15.5 
" style="fill:none;stroke:#000000;stroke-linecap:square;stroke-linejoin:miter;stroke-width:0.8;"/>
   </g>
   <g id="patch_4">
    <path d="M 416.5 228 
L 416.5 15.5 
" style="fill:none;"/>
   </g>
   <g id="patch_5">
    <path d="M 77.40608 228 
L 416.5 228 
" style="fill:none;stroke:#000000;stroke-linecap:square;stroke-linejoin:miter;stroke-width:0.8;"/>
   </g>
   <g id="patch_6">
    <path d="M 77.40608 15.5 
L 416.5 15.5 
" style="fill:none;"/>
   </g>
   <g id="legend_1">
    <g id="patch_7">
     <path d="M 291.17245 226.4 
L 411.7 226.4 
Q 414.9 226.4 414.9 223.2 
L 414.9 178.5283 
Q 414.9 175.3283 411.7 175.3283 
L 291.17245 175.3283 
Q 287.97245 175.3283 287.97245 178.5283 
L 287.97245 223.2 
Q 287.97245 226.4 291.17245 226.4 
z
" style="fill:#ffffff;stroke:#000000;stroke-linejoin:miter;"/>
    </g>
    <g id="line2d_12">
     <path d="M 294.37245 187.98426 
L 326.37245 187.98426 
" style="fill:none;stroke:#e41a1c;stroke-linecap:square;stroke-width:2;"/>
    </g>
    <g id="line2d_13"/>
    <g id="text_12">
     <!-- Input -->
     <defs>
      <path d="M 26 59.734375 
L 26 62.609375 
C 26 66.8125 26.90625 67.3125 34.90625 67.3125 
L 36.90625 67.3125 
L 36.90625 72 
L 3.796875 72 
L 3.796875 67.3125 
L 5.796875 67.3125 
C 13.90625 67.3125 14.796875 66.8125 14.796875 62.609375 
L 14.796875 59.734375 
L 14.796875 12.28125 
L 14.796875 9.375 
C 14.796875 5.1875 13.90625 4.6875 5.796875 4.6875 
L 3.796875 4.6875 
L 3.796875 0 
L 36.90625 0 
L 36.90625 4.6875 
L 34.90625 4.6875 
C 26.90625 4.6875 26 5.1875 26 9.375 
L 26 12.28125 
z
" id="Century_Schoolbook_L_Roman-73"/>
      <path d="M 20.09375 46 
L 2.796875 46 
L 2.796875 41.21875 
L 6.40625 41.21875 
C 10.09375 41.21875 10.703125 40.515625 10.703125 36.21875 
L 10.703125 -7.75 
L 10.703125 -11.71875 
C 10.703125 -15.71875 9.59375 -16.40625 3.203125 -16.40625 
L 2.796875 -16.40625 
L 2.796875 -20 
L 28.796875 -20 
L 28.796875 -16.40625 
L 27.703125 -16.40625 
C 21.203125 -16.40625 20.09375 -15.71875 20.09375 -11.734375 
L 20.09375 -7.75 
L 20.09375 6.6875 
C 23.40625 0.90625 27.203125 -1.390625 33.296875 -1.390625 
C 44.90625 -1.390625 53.5 9.265625 53.5 23.5 
C 53.5 37.265625 44.90625 48 33.90625 48 
C 27.703125 48 23.59375 45.4375 20.09375 39.515625 
z
M 32.09375 42.609375 
C 39 42.609375 43 35.75 43 24.09375 
C 43 11.265625 38.90625 4 31.796875 4 
C 24.703125 4 20 11.375 20 22.8125 
C 20 35.140625 24.5 42.609375 32.09375 42.609375 
z
" id="Century_Schoolbook_L_Roman-112"/>
      <path d="M 41.203125 0 
L 59.40625 0 
L 59.40625 4.703125 
L 56.90625 4.703125 
C 51.40625 4.703125 50.59375 5.59375 50.59375 11.953125 
L 50.59375 46.78125 
L 31.796875 46.78125 
L 31.796875 42 
L 36.90625 42 
C 40.59375 42 41.203125 41.296875 41.203125 36.953125 
L 41.203125 24.5625 
C 41.203125 18.8125 40.59375 15.484375 39.09375 12.15625 
C 37 7.71875 33 5.09375 28.09375 5.09375 
C 25 5.09375 22.40625 6.1875 21.09375 8.171875 
C 19.796875 10.046875 19.59375 11.046875 19.59375 16.5 
L 19.59375 46.78125 
L 2.09375 46.78125 
L 2.09375 42 
L 5.90625 42 
C 9.59375 42 10.203125 41.296875 10.203125 36.953125 
L 10.203125 15.21875 
C 10.203125 10.078125 10.59375 7.765625 12.09375 5.453125 
C 14.796875 1.3125 19.59375 -1 25.59375 -1 
C 32.203125 -1 36.796875 1.71875 41.203125 8.125 
z
" id="Century_Schoolbook_L_Roman-117"/>
     </defs>
     <g transform="translate(339.17245 193.58426)scale(0.16 -0.16)">
      <use transform="translate(0 -1.570628)scale(0.996264)" xlink:href="#Century_Schoolbook_L_Roman-73"/>
      <use transform="translate(40.547425 -1.570628)scale(0.996264)" xlink:href="#Century_Schoolbook_L_Roman-110"/>
      <use transform="translate(101.419056 -1.570628)scale(0.996264)" xlink:href="#Century_Schoolbook_L_Roman-112"/>
      <use transform="translate(158.604543 -1.570628)scale(0.996264)" xlink:href="#Century_Schoolbook_L_Roman-117"/>
      <use transform="translate(219.476174 -1.570628)scale(0.996264)" xlink:href="#Century_Schoolbook_L_Roman-116"/>
     </g>
    </g>
    <g id="line2d_14">
     <path d="M 294.37245 211.12011 
L 326.37245 211.12011 
" style="fill:none;stroke:#377eb8;stroke-dasharray:7.4,3.2;stroke-dashoffset:0;stroke-linecap:round;stroke-width:2;"/>
    </g>
    <g id="line2d_15"/>
    <g id="text_13">
     <!-- Response -->
     <defs>
      <path d="M 24.59375 35 
L 30.40625 35 
C 34.296875 35 38.296875 33.796875 40.5 31.984375 
C 43.40625 29.6875 44.90625 26.078125 45.59375 19.46875 
L 46.09375 14.34375 
C 47.296875 3.015625 51 -1.59375 58.90625 -1.59375 
C 67.09375 -1.59375 71 3.921875 71.296875 15.921875 
L 67.09375 15.921875 
C 66.703125 9 65.5 6 62.796875 6 
C 60.5 6 59.5 7.703125 57.796875 14.625 
L 56.203125 20.9375 
C 54 30.171875 50.09375 34.375 42.296875 36.390625 
C 56.703125 38.390625 63.59375 44.140625 63.59375 54.1875 
C 63.59375 65.53125 54 72 37.203125 72 
L 2.59375 72 
L 2.59375 67.3125 
L 4.40625 67.3125 
C 12.5 67.3125 13.40625 66.8125 13.40625 62.609375 
L 13.40625 59.734375 
L 13.40625 12.171875 
L 13.40625 9.375 
C 13.40625 5.1875 12.5 4.6875 4.40625 4.6875 
L 2.59375 4.6875 
L 2.59375 0 
L 35.40625 0 
L 35.40625 4.6875 
L 33.59375 4.6875 
C 25.5 4.6875 24.59375 5.1875 24.59375 9.390625 
L 24.59375 12.1875 
z
M 24.59375 39.6875 
L 24.59375 61.625 
C 24.59375 65.625 24.703125 65.921875 25.703125 66.71875 
C 26.5 67.3125 27.203125 67.3125 31.5 67.3125 
L 36.90625 67.3125 
C 46.796875 67.3125 51.296875 63.125 51.296875 54.09375 
C 51.296875 49.015625 50 45.140625 47.40625 43.0625 
C 44.90625 40.984375 40.40625 39.6875 35.59375 39.6875 
z
" id="Century_Schoolbook_L_Roman-82"/>
     </defs>
     <g transform="translate(339.17245 216.72011)scale(0.16 -0.16)">
      <use transform="translate(0 -1.570628)scale(0.996264)" xlink:href="#Century_Schoolbook_L_Roman-82"/>
      <use transform="translate(71.929985 -1.570628)scale(0.996264)" xlink:href="#Century_Schoolbook_L_Roman-101"/>
      <use transform="translate(121.743185 -1.570628)scale(0.996264)" xlink:href="#Century_Schoolbook_L_Roman-115"/>
      <use transform="translate(167.868996 -1.570628)scale(0.996264)" xlink:href="#Century_Schoolbook_L_Roman-112"/>
      <use transform="translate(225.054483 -1.570628)scale(0.996264)" xlink:href="#Century_Schoolbook_L_Roman-111"/>
      <use transform="translate(274.867684 -1.570628)scale(0.996264)" xlink:href="#Century_Schoolbook_L_Roman-110"/>
      <use transform="translate(335.739314 -1.570628)scale(0.996264)" xlink:href="#Century_Schoolbook_L_Roman-115"/>
      <use transform="translate(381.865125 -1.570628)scale(0.996264)" xlink:href="#Century_Schoolbook_L_Roman-101"/>
     </g>
    </g>
   </g>
  </g>
 </g>
 <defs>
  <clipPath id="p7fc31c9cd4">
   <rect height="212.5" width="339.09392" x="77.40608" y="15.5"/>
  </clipPath>
 </defs>
</svg>
