<?xml version="1.0" encoding="UTF-8" standalone="no"?>
<!-- Created with Inkscape (http://www.inkscape.org/) -->

<svg
   xmlns:dc="http://purl.org/dc/elements/1.1/"
   xmlns:cc="http://creativecommons.org/ns#"
   xmlns:rdf="http://www.w3.org/1999/02/22-rdf-syntax-ns#"
   xmlns:svg="http://www.w3.org/2000/svg"
   xmlns="http://www.w3.org/2000/svg"
   xmlns:sodipodi="http://sodipodi.sourceforge.net/DTD/sodipodi-0.dtd"
   xmlns:inkscape="http://www.inkscape.org/namespaces/inkscape"
   width="124mm"
   height="118mm"
   viewBox="0 0 124 118"
   version="1.1"
   id="svg8"
   inkscape:version="0.92.3 (3ce5693, 2018-03-11)"
   sodipodi:docname="impulse-init-conditions.svg">
  <defs
     id="defs2" />
  <sodipodi:namedview
     id="base"
     pagecolor="#ffffff"
     bordercolor="#666666"
     borderopacity="1.0"
     inkscape:pageopacity="0.0"
     inkscape:pageshadow="2"
     inkscape:zoom="0.87200629"
     inkscape:cx="-133.79575"
     inkscape:cy="-44.17288"
     inkscape:document-units="mm"
     inkscape:current-layer="layer4"
     showgrid="false"
     inkscape:window-width="1855"
     inkscape:window-height="1056"
     inkscape:window-x="65"
     inkscape:window-y="24"
     inkscape:window-maximized="1" />
  <metadata
     id="metadata5">
    <rdf:RDF>
      <cc:Work
         rdf:about="">
        <dc:format>image/svg+xml</dc:format>
        <dc:type
           rdf:resource="http://purl.org/dc/dcmitype/StillImage" />
        <dc:title></dc:title>
      </cc:Work>
    </rdf:RDF>
  </metadata>
  <g
     inkscape:groupmode="layer"
     id="layer2"
     inkscape:label="base"
     transform="translate(0,-179)"
     style="display:inline">
    <g
       id="g825"
       transform="matrix(0.35277777,0,0,-0.35277777,-1.4524719,298.7437)" />
    <g
       transform="matrix(0.35277777,0,0,0.35277777,-1.4524719,182.32704)"
       id="g849">
      <path
         inkscape:connector-curvature="0"
         id="path851"
         style="fill:none;stroke:#000000;stroke-width:1;stroke-linecap:butt;stroke-linejoin:miter;stroke-miterlimit:4;stroke-dasharray:none;stroke-opacity:1"
         d="M 131.5,59.43466 V 312.8913" />
    </g>
    <path
       inkscape:connector-curvature="0"
       id="path853"
       style="fill:#000000;fill-opacity:1;fill-rule:nonzero;stroke:none;stroke-width:0.35277778"
       d="m 45.996138,203.29428 -1.058333,-2.82223 -1.058333,2.82223 z" />
    <g
       transform="matrix(0.35277777,0,0,0.35277777,-1.4524719,182.32704)"
       id="g855">
      <path
         inkscape:connector-curvature="0"
         id="path857"
         style="fill:none;stroke:#000000;stroke-width:1;stroke-linecap:butt;stroke-linejoin:miter;stroke-miterlimit:4;stroke-dasharray:none;stroke-opacity:1"
         d="m 134.5,59.43466 -3,-8 -3,8 z" />
    </g>
    <g
       transform="matrix(0.35277777,0,0,0.35277777,-1.4524719,182.32704)"
       id="g859">
      <path
         inkscape:connector-curvature="0"
         id="path861"
         style="fill:none;stroke:#000000;stroke-width:1;stroke-linecap:butt;stroke-linejoin:miter;stroke-miterlimit:4;stroke-dasharray:none;stroke-opacity:1"
         d="M 3.085777,186.5 H 309.0242" />
    </g>
    <path
       inkscape:connector-curvature="0"
       id="path863"
       style="fill:#000000;fill-opacity:1;fill-rule:nonzero;stroke:none;stroke-width:0.35277778"
       d="m 107.5644,249.17842 2.82222,-1.05833 -2.82222,-1.05833 z" />
    <g
       transform="matrix(0.35277777,0,0,0.35277777,-1.4524719,182.32704)"
       id="g865">
      <path
         inkscape:connector-curvature="0"
         id="path867"
         style="fill:none;stroke:#000000;stroke-width:1;stroke-linecap:butt;stroke-linejoin:miter;stroke-miterlimit:4;stroke-dasharray:none;stroke-opacity:1"
         d="m 309.0242,189.5 8,-3 -8,-3 z" />
    </g>
    <path
       inkscape:connector-curvature="0"
       id="path941"
       style="fill:#000000;fill-opacity:1;fill-rule:nonzero;stroke:none;stroke-width:0.35277778"
       d="m 44.478206,183.06649 c 0,-0.4555 -0.219322,-0.59044 -0.371158,-0.59044 -0.210855,0 -0.413314,0.21929 -0.413314,0.40488 0,0.10965 0.04219,0.16027 0.134973,0.25305 0.17713,0.1687 0.286808,0.38798 0.286808,0.69166 0,0.35426 -0.514562,2.28589 -1.501457,2.28589 -0.430178,0 -0.62417,-0.29524 -0.62417,-0.73385 0,-0.47237 0.227718,-1.08811 0.489232,-1.78823 0.05902,-0.1434 0.101212,-0.26148 0.101212,-0.42174 0,-0.37959 -0.26991,-0.69166 -0.691691,-0.69166 -0.792868,0 -1.113402,1.22308 -1.113402,1.29896 0,0.0844 0.08435,0.0844 0.101212,0.0844 0.08435,0 0.09278,-0.0169 0.134973,-0.1518 0.244616,-0.85196 0.607306,-1.04595 0.851923,-1.04595 0.06749,0 0.21089,0 0.21089,0.26991 0,0.21089 -0.08435,0.43864 -0.143404,0.59044 -0.371158,0.97847 -0.480801,1.36649 -0.480801,1.72918 0,0.91098 0.74228,1.04595 1.1303,1.04595 1.417073,0 1.897874,-2.79199 1.897874,-3.2306 z" />
    <path
       inkscape:connector-curvature="0"
       id="path943"
       style="fill:#000000;fill-opacity:1;fill-rule:nonzero;stroke:none;stroke-width:0.35277778"
       d="m 47.022298,185.13695 h 0.578626 c 0.11811,0 0.194875,0 0.194875,-0.1299 0,-0.0827 -0.07677,-0.0827 -0.183057,-0.0827 h -0.549098 c 0.135784,-0.74987 0.183021,-1.02147 0.230258,-1.19271 0.02953,-0.12989 0.15942,-0.25389 0.301131,-0.25389 0.0059,0 0.165312,0 0.27753,0.0708 -0.242111,0.0768 -0.259821,0.28935 -0.259821,0.32477 0,0.12989 0.100401,0.21848 0.236185,0.21848 0.15942,0 0.33655,-0.13582 0.33655,-0.36019 0,-0.2716 -0.289313,-0.4192 -0.590444,-0.4192 -0.259786,0 -0.549099,0.1476 -0.708519,0.4428 -0.11811,0.21848 -0.165347,0.48419 -0.289348,1.16911 h -0.466443 c -0.118075,0 -0.194839,0 -0.194839,0.12989 0,0.0827 0.07676,0.0827 0.183021,0.0827 h 0.43695 c -0.0059,0.0354 -0.377895,2.16104 -0.519606,2.79283 -0.02953,0.12989 -0.129893,0.57863 -0.413314,0.57863 -0.0059,0 -0.147603,0 -0.259786,-0.0708 0.242076,-0.0768 0.259786,-0.28931 0.259786,-0.32477 0,-0.12989 -0.100366,-0.21844 -0.236185,-0.21844 -0.15942,0 -0.33655,0.13579 -0.33655,0.36015 0,0.26572 0.27753,0.41924 0.572735,0.41924 0.377895,0 0.637681,-0.38971 0.708554,-0.5196 0.212548,-0.39561 0.348368,-1.12187 0.360151,-1.19271 z" />
    <g
       transform="matrix(0.35277777,0,0,0.35277777,-1.4524719,182.32704)"
       id="g945">
      <path
         inkscape:connector-curvature="0"
         id="path947"
         style="fill:none;stroke:#000000;stroke-width:0.95520002;stroke-linecap:butt;stroke-linejoin:miter;stroke-miterlimit:4;stroke-dasharray:none;stroke-opacity:1"
         d="m 119.5072,21.68849 h 23.9856" />
    </g>
    <path
       inkscape:connector-curvature="0"
       id="path949"
       style="fill:#000000;fill-opacity:1;fill-rule:nonzero;stroke:none;stroke-width:0.35277778"
       d="m 47.088373,194.5583 c 0,-0.37959 -0.151835,-0.59044 -0.337396,-0.59044 -0.219322,0 -0.447076,0.20242 -0.447076,0.39641 0,0.0844 0.04219,0.17717 0.126542,0.25308 0.143404,0.12651 0.29524,0.35426 0.29524,0.70852 0,0.3374 -0.160267,0.8182 -0.421782,1.20622 -0.253047,0.36269 -0.565114,0.6495 -0.961566,0.6495 -0.480801,0 -0.74228,-0.30367 -0.818197,-0.75918 0.09278,-0.21928 0.286773,-0.75914 0.286773,-0.99532 0,-0.10122 -0.04216,-0.18557 -0.151836,-0.18557 -0.06745,0 -0.160232,0.0169 -0.227718,0.14341 -0.09278,0.1687 -0.194028,0.71698 -0.194028,1.02062 -0.278341,0.39645 -0.615738,0.77604 -1.147162,0.77604 -0.556684,0 -0.733813,-0.49766 -0.733813,-0.97003 0,-1.05438 0.860354,-1.94007 0.860354,-2.04971 0,-0.0928 -0.06749,-0.16027 -0.160267,-0.16027 -0.109643,0 -0.168698,0.10964 -0.219322,0.18556 -0.430177,0.62421 -0.750711,1.62797 -0.750711,2.39554 0,0.58201 0.194028,1.20622 0.885684,1.20622 0.598875,0 0.995327,-0.42175 1.298998,-0.88569 0.07592,0.48924 0.404883,0.88569 0.927841,0.88569 0.657931,0 1.062814,-0.51453 1.366485,-1.14717 0.202424,-0.41331 0.522957,-1.56047 0.522957,-2.08343 z" />
    <path
       inkscape:connector-curvature="0"
       id="path951"
       style="fill:#000000;fill-opacity:1;fill-rule:nonzero;stroke:none;stroke-width:0.35277778"
       d="m 118.06412,245.35897 c 0.0337,-0.11811 0.0337,-0.13497 0.0337,-0.19399 0,-0.15184 -0.11811,-0.22776 -0.24462,-0.22776 -0.0844,0 -0.21932,0.0506 -0.29524,0.17713 -0.0169,0.0422 -0.0844,0.30367 -0.11807,0.45547 -0.0591,0.21933 -0.11808,0.44708 -0.1687,0.67483 l -0.37959,1.51829 c -0.0337,0.12654 -0.39645,0.71698 -0.95314,0.71698 -0.43021,0 -0.52299,-0.37115 -0.52299,-0.68322 0,-0.38802 0.1434,-0.91101 0.43021,-1.65329 0.13494,-0.34583 0.1687,-0.43861 0.1687,-0.60731 0,-0.37959 -0.26994,-0.69166 -0.69169,-0.69166 -0.8013,0 -1.1134,1.22308 -1.1134,1.29897 0,0.0843 0.0844,0.0843 0.10121,0.0843 0.0844,0 0.0928,-0.0169 0.13497,-0.1518 0.22772,-0.7929 0.56512,-1.04595 0.85193,-1.04595 0.0675,0 0.21085,0 0.21085,0.26991 0,0.21089 -0.0844,0.43018 -0.14337,0.59045 -0.33739,0.89411 -0.48923,1.37491 -0.48923,1.77137 0,0.75071 0.53139,1.00375 1.02905,1.00375 0.32897,0 0.61578,-0.1434 0.85196,-0.37958 -0.10968,0.43864 -0.21089,0.85195 -0.54829,1.29899 -0.21932,0.28681 -0.53985,0.53143 -0.92784,0.53143 -0.11811,0 -0.49766,-0.0253 -0.64106,-0.3543 0.13497,0 0.24461,0 0.36269,-0.10121 0.0844,-0.0759 0.16869,-0.18556 0.16869,-0.34583 0,-0.26148 -0.22771,-0.29524 -0.31206,-0.29524 -0.19403,0 -0.47237,0.13498 -0.47237,0.54829 0,0.42175 0.37112,0.73385 0.89411,0.73385 0.86879,0 1.73761,-0.76757 1.97379,-1.72074 z" />
    <path
       inkscape:connector-curvature="0"
       id="path953"
       style="fill:#000000;fill-opacity:1;fill-rule:nonzero;stroke:none;stroke-width:0.35277778"
       d="m 120.50379,247.50619 h 0.57863 c 0.11811,0 0.19484,0 0.19484,-0.1299 0,-0.0827 -0.0767,-0.0827 -0.18302,-0.0827 h -0.54914 c 0.13582,-0.74987 0.18306,-1.02147 0.23029,-1.19271 0.0295,-0.12989 0.15942,-0.25389 0.30114,-0.25389 0.006,0 0.16531,0 0.27749,0.0708 -0.24208,0.0768 -0.25978,0.28935 -0.25978,0.32477 0,0.12989 0.10036,0.21848 0.23618,0.21848 0.15942,0 0.33655,-0.13582 0.33655,-0.36019 0,-0.2716 -0.28931,-0.4192 -0.59044,-0.4192 -0.25979,0 -0.54914,0.1476 -0.70856,0.4428 -0.11807,0.21848 -0.16531,0.48419 -0.28931,1.16911 h -0.46644 c -0.11811,0 -0.19484,0 -0.19484,0.12989 0,0.0827 0.0767,0.0827 0.18302,0.0827 h 0.43695 c -0.006,0.0354 -0.3779,2.16104 -0.51961,2.79283 -0.0295,0.12989 -0.12989,0.57863 -0.41331,0.57863 -0.006,0 -0.1476,0 -0.25979,-0.0708 0.24208,-0.0768 0.25979,-0.28931 0.25979,-0.32477 0,-0.12989 -0.10037,-0.21844 -0.23619,-0.21844 -0.15942,0 -0.33655,0.13579 -0.33655,0.36015 0,0.26572 0.2775,0.41924 0.57274,0.41924 0.37789,0 0.63768,-0.38971 0.70852,-0.5196 0.21258,-0.39561 0.34836,-1.12187 0.36018,-1.19271 z" />
  </g>
  <g
     inkscape:groupmode="layer"
     id="layer3"
     inkscape:label="initial-condition"
     transform="translate(0,-179)"
     style="display:inline">
    <g
       transform="matrix(0.35277777,0,0,0.35277777,-1.4524719,182.32704)"
       id="g897">
      <path
         inkscape:connector-curvature="0"
         id="path899"
         style="fill:none;stroke:#1d00ff;stroke-width:3;stroke-linecap:butt;stroke-linejoin:miter;stroke-miterlimit:4;stroke-dasharray:none;stroke-opacity:1"
         d="M 131.5,186.5 81.19304,292.5912" />
    </g>
    <path
       inkscape:connector-curvature="0"
       id="path901"
       style="fill:#1d00ff;fill-opacity:1;fill-rule:nonzero;stroke:none;stroke-width:0.35277778"
       d="m 25.85185,284.91189 -0.354101,4.2049 3.031656,-2.93524 z" />
    <g
       transform="matrix(0.35277777,0,0,0.35277777,-1.4524719,182.32704)"
       id="g903">
      <path
         inkscape:connector-curvature="0"
         id="path905"
         style="fill:none;stroke:#1d00ff;stroke-width:3;stroke-linecap:butt;stroke-linejoin:miter;stroke-miterlimit:4;stroke-dasharray:none;stroke-opacity:1"
         d="m 77.39808,290.7917 -1.00375,11.9194 8.59367,-8.3204 z" />
    </g>
    <path
       inkscape:connector-curvature="0"
       id="path915"
       style="fill:#000000;fill-opacity:1;fill-rule:nonzero;stroke:none;stroke-width:0.35277778"
       d="m 18.658013,294.77485 c -0.3374,0.56515 -0.666366,0.68324 -1.037505,0.70854 -0.101223,0.008 -0.177137,0.008 -0.177137,0.1687 0,0.0506 0.04217,0.0928 0.109654,0.0928 0.227746,0 0.489232,-0.0253 0.72541,-0.0253 0.278355,0 0.573581,0.0253 0.843502,0.0253 0.05061,0 0.160263,0 0.160263,-0.16027 0,-0.0928 -0.07591,-0.10122 -0.134958,-0.10122 -0.194007,-0.0169 -0.396445,-0.0843 -0.396445,-0.29522 0,-0.10122 0.05061,-0.19401 0.118089,-0.3121 l 0.641061,-1.07968 h 2.117185 c 0.01687,0.17714 0.134958,1.3243 0.134958,1.40865 0,0.25305 -0.438619,0.27835 -0.607317,0.27835 -0.118092,0 -0.202442,0 -0.202442,0.1687 0,0.0928 0.101219,0.0928 0.118089,0.0928 0.345835,0 0.70854,-0.0253 1.054375,-0.0253 0.210877,0 0.742284,0.0253 0.953157,0.0253 0.05061,0 0.151832,0 0.151832,-0.1687 0,-0.0928 -0.08435,-0.0928 -0.194007,-0.0928 -0.522968,0 -0.522968,-0.059 -0.548277,-0.30366 l -0.514533,-5.27187 c -0.01687,-0.1687 -0.01687,-0.20244 -0.160264,-0.20244 -0.134962,0 -0.168701,0.059 -0.219311,0.14339 z m 1.012197,-1.23994 1.661696,-2.78355 0.269921,2.78355 z" />
    <path
       inkscape:connector-curvature="0"
       id="path917"
       style="fill:#000000;fill-opacity:1;fill-rule:nonzero;stroke:none;stroke-width:0.35277778"
       d="m 26.521154,295.12711 c 0,-0.64949 -0.07676,-1.11594 -0.348364,-1.52926 -0.183039,-0.2716 -0.54912,-0.50778 -1.021479,-0.50778 -1.369839,0 -1.369839,1.61192 -1.369839,2.03704 0,0.42513 0,2.00163 1.369839,2.00163 1.369843,0 1.369843,-1.5765 1.369843,-2.00163 z m -1.369843,1.8363 c -0.271603,0 -0.631779,-0.15942 -0.749868,-0.64359 -0.08266,-0.34836 -0.08266,-0.83253 -0.08266,-1.26946 0,-0.43103 0,-0.87977 0.08857,-1.20452 0.123994,-0.46645 0.501879,-0.59044 0.743962,-0.59044 0.318844,0 0.625877,0.19484 0.732159,0.5373 0.09447,0.31884 0.100375,0.74397 0.100375,1.25766 0,0.43693 0,0.87386 -0.07676,1.24584 -0.118092,0.53731 -0.519596,0.66721 -0.755777,0.66721 z" />
    <g
       transform="matrix(0.35277777,0,0,0.35277777,-1.4524719,182.32704)"
       id="g927">
      <path
         inkscape:connector-curvature="0"
         id="path929"
         style="fill:none;stroke:#000000;stroke-width:1;stroke-linecap:butt;stroke-linejoin:miter;stroke-miterlimit:4;stroke-dasharray:none;stroke-opacity:1"
         d="m 106.394,213.5539 c -10.5476,-9.7822 -14.65893,-25.1251 -9.73248,-39.2257 5.93668,-16.9921 23.26568,-27.2226 41.01138,-24.2118 17.7457,3.0107 30.7307,18.3843 30.7307,36.3836" />
    </g>
    <g
       transform="matrix(0.35277777,0,0,0.35277777,-1.4524719,182.32704)"
       id="g933">
      <path
         inkscape:connector-curvature="0"
         id="path935"
         style="fill:none;stroke:#000000;stroke-width:1;stroke-linecap:butt;stroke-linejoin:miter;stroke-miterlimit:4;stroke-dasharray:none;stroke-opacity:1"
         d="m 104.6373,215.9858 8.2416,2.2528 -4.7281,-7.1165 z" />
    </g>
    <path
       inkscape:connector-curvature="0"
       id="path937"
       style="fill:#000000;fill-opacity:1;fill-rule:nonzero;stroke:none;stroke-width:0.35277778"
       d="m 27.48005,239.57645 c 0,-0.55672 -0.151832,-1.72918 -1.0122,-1.72918 -1.172468,0 -2.471456,2.37868 -2.471456,4.31028 0,0.7929 0.244613,1.72917 1.012201,1.72917 1.189334,0 2.471455,-2.42083 2.471455,-4.31027 z m -2.589547,1.15559 c 0.143397,-0.53985 0.312095,-1.21465 0.649495,-1.81352 0.227746,-0.41332 0.539842,-0.88569 0.919417,-0.88569 0.413314,0 0.463924,0.53986 0.463924,1.02062 0,0.41332 -0.06748,0.84353 -0.269921,1.67859 z m 1.687,0.26991 c -0.09278,0.38802 -0.26992,1.10501 -0.590451,1.71231 -0.295225,0.57359 -0.615752,0.9869 -0.978457,0.9869 -0.278356,0 -0.455493,-0.24462 -0.455493,-1.02909 0,-0.35426 0.05061,-0.84349 0.269921,-1.67012 z" />
    <path
       inkscape:connector-curvature="0"
       id="path939"
       style="fill:#000000;fill-opacity:1;fill-rule:nonzero;stroke:none;stroke-width:0.35277778"
       d="m 30.648697,243.17619 c 0,-0.6495 -0.07676,-1.11598 -0.348365,-1.52929 -0.183039,-0.2716 -0.549116,-0.50775 -1.021475,-0.50775 -1.36984,0 -1.36984,1.61191 -1.36984,2.03704 0,0.4251 0,2.00159 1.36984,2.00159 1.36984,0 1.36984,-1.57649 1.36984,-2.00159 z m -1.36984,1.83628 c -0.271607,0 -0.631779,-0.15942 -0.749872,-0.64357 -0.08266,-0.34837 -0.08266,-0.83256 -0.08266,-1.26947 0,-0.43103 0,-0.8798 0.08857,-1.20453 0.123994,-0.46644 0.501883,-0.59044 0.743966,-0.59044 0.31884,0 0.625874,0.19484 0.732155,0.53731 0.09447,0.31885 0.100376,0.74394 0.100376,1.25766 0,0.43691 0,0.87386 -0.07676,1.24583 -0.118088,0.53732 -0.519595,0.66721 -0.755773,0.66721 z" />
    <path
       inkscape:connector-curvature="0"
       id="path931"
       style="fill:#000000;fill-opacity:1;fill-rule:nonzero;stroke:none;stroke-width:0.35277778"
       d="m 35.461241,258.52202 2.907454,0.79474 -1.667969,-2.51054 z" />
  </g>
  <g
     inkscape:groupmode="layer"
     id="layer4"
     inkscape:label="shaper-1"
     transform="translate(0,-179)"
     style="display:inline">
    <g
       transform="matrix(0.35277777,0,0,0.35277777,-1.4524719,182.32704)"
       id="g829">
      <path
         inkscape:connector-curvature="0"
         id="path831"
         style="fill:none;stroke:#000000;stroke-width:3;stroke-linecap:butt;stroke-linejoin:miter;stroke-miterlimit:4;stroke-dasharray:none;stroke-opacity:1"
         d="m 131.5,185.5 138.0314,0.9103" />
    </g>
    <g
       transform="matrix(0.35277777,0,0,0.35277777,-1.4524719,182.32704)"
       id="g835">
      <path
         inkscape:connector-curvature="0"
         id="path837"
         style="fill:none;stroke:#000000;stroke-width:3;stroke-linecap:butt;stroke-linejoin:miter;stroke-miterlimit:4;stroke-dasharray:none;stroke-opacity:1"
         d="m 269.5037,190.6102 11.2274,-4.126 -11.172,-4.2738 z" />
    </g>
    <g
       transform="matrix(0.35277777,0,0,0.35277777,-1.4524719,182.32704)"
       id="g839">
      <path
         inkscape:connector-curvature="0"
         id="path841"
         style="fill:none;stroke:#000000;stroke-width:3;stroke-linecap:butt;stroke-linejoin:miter;stroke-miterlimit:4;stroke-dasharray:none;stroke-opacity:1"
         d="M 131.5,186.5 42.92303,80.21418" />
    </g>
    <g
       transform="matrix(0.35277777,0,0,0.35277777,-1.4524719,182.32704)"
       id="g845">
      <path
         inkscape:connector-curvature="0"
         id="path847"
         style="fill:none;stroke:#000000;stroke-width:3;stroke-linecap:butt;stroke-linejoin:miter;stroke-miterlimit:4;stroke-dasharray:none;stroke-opacity:1"
         d="M 46.14948,77.5253 35.7527,71.61032 39.69658,82.90305 Z" />
    </g>
    <path
       inkscape:connector-curvature="0"
       id="path907"
       style="fill:#000000;fill-opacity:1;fill-rule:nonzero;stroke:none;stroke-width:0.35277778"
       d="m 0.67437306,202.88784 c -0.33740018,0.56515 -0.6663651,0.68326 -1.03750531,0.70856 -0.1012197,0.008 -0.17713501,0.008 -0.17713501,0.16869 0,0.0506 0.0421753,0.0928 0.10965498,0.0928 0.22774521,0 0.48923009,-0.0253 0.72541022,-0.0253 0.27835507,0 0.57357997,0.0253 0.84350016,0.0253 0.05061,0 0.1602651,0 0.1602651,-0.16026 0,-0.0928 -0.075915,-0.10121 -0.13496,-0.10121 -0.19400524,-0.0169 -0.396445,-0.0844 -0.396445,-0.29524 0,-0.10122 0.0506099,-0.194 0.11808989,-0.31207 l 0.64106001,-1.07968 h 2.1171866 c 0.01687,0.17713 0.1349587,1.32429 0.1349587,1.40864 0,0.25305 -0.4386192,0.27835 -0.6073211,0.27835 -0.1180888,0 -0.202438,0 -0.202438,0.16869 0,0.0928 0.101219,0.0928 0.1180889,0.0928 0.3458351,0 0.70854,-0.0253 1.0543751,-0.0253 0.2108764,0 0.7422797,0.0253 0.9531562,0.0253 0.050609,0 0.1518285,0 0.1518285,-0.16869 0,-0.0928 -0.084349,-0.0928 -0.1940031,-0.0928 -0.5229719,0 -0.5229719,-0.0591 -0.5482767,-0.30368 l -0.5145334,-5.27187 c -0.01687,-0.1687 -0.01687,-0.20242 -0.1602669,-0.20242 -0.1349587,0 -0.1686984,0.059 -0.2193079,0.1434 z M 1.6865733,201.6479 3.3482691,198.86438 3.61819,201.6479 Z" />
    <path
       inkscape:connector-curvature="0"
       id="path909"
       style="fill:#000000;fill-opacity:1;fill-rule:nonzero;stroke:none;stroke-width:0.35277778"
       d="M 8.4725638,204.04904 H 8.2718121 c -0.017713,0.1299 -0.076757,0.47827 -0.1535148,0.53729 -0.047237,0.0354 -0.5018828,0.0354 -0.5845457,0.0354 h -1.086425 c 0.6199716,-0.54913 0.8266288,-0.71445 1.1808989,-0.99198 0.4369293,-0.34836 0.8443383,-0.71444 0.8443383,-1.27536 0,-0.71444 -0.6258737,-1.15136 -1.3816471,-1.15136 -0.732155,0 -1.2281323,0.51368 -1.2281323,1.05689 0,0.30113 0.2538906,0.33066 0.312935,0.33066 0.1417109,0 0.3129386,-0.10037 0.3129386,-0.31295 0,-0.10626 -0.041331,-0.31292 -0.3483645,-0.31292 0.1830387,-0.41924 0.5845457,-0.54913 0.8620548,-0.54913 0.5904477,0 0.8974808,0.46055 0.8974808,0.93881 0,0.51368 -0.3660775,0.9211 -0.5550218,1.13365 l -1.4229785,1.40529 c -0.059044,0.0531 -0.059044,0.0649 -0.059044,0.23026 h 2.4326461 z" />
    <path
       inkscape:connector-curvature="0"
       id="path911"
       style="fill:#000000;fill-opacity:1;fill-rule:nonzero;stroke:none;stroke-width:0.35277778"
       d="m 94.344155,255.17829 c -0.337397,0.56515 -0.666362,0.68323 -1.037519,0.70856 -0.101212,0.008 -0.17713,0.008 -0.17713,0.16869 0,0.0506 0.04219,0.0928 0.109643,0.0928 0.227754,0 0.489233,-0.0253 0.725417,-0.0253 0.278377,0 0.573582,0.0253 0.843492,0.0253 0.05062,0 0.160267,0 0.160267,-0.16026 0,-0.0928 -0.07592,-0.10121 -0.134938,-0.10121 -0.194027,-0.0169 -0.396451,-0.0844 -0.396451,-0.29524 0,-0.10122 0.05062,-0.194 0.118074,-0.31211 l 0.641068,-1.07967 h 2.117196 c 0.01686,0.17713 0.134937,1.32429 0.134937,1.40864 0,0.25305 -0.438608,0.27838 -0.607306,0.27838 -0.118075,0 -0.202424,0 -0.202424,0.16869 0,0.0928 0.101212,0.0928 0.118074,0.0928 0.345828,0 0.708555,-0.0253 1.054383,-0.0253 0.210855,0 0.742279,0.0253 0.953135,0.0253 0.05062,0 0.151835,0 0.151835,-0.16869 0,-0.0928 -0.08435,-0.0928 -0.193992,-0.0928 -0.522958,0 -0.522958,-0.0591 -0.548288,-0.30368 l -0.514526,-5.27187 c -0.01686,-0.1687 -0.01686,-0.20246 -0.160267,-0.20246 -0.134973,0 -0.168698,0.0591 -0.219322,0.1434 z m 1.01219,-1.23994 1.661689,-2.78356 0.269946,2.78356 z" />
    <path
       inkscape:connector-curvature="0"
       id="path913"
       style="fill:#000000;fill-opacity:1;fill-rule:nonzero;stroke:none;stroke-width:0.35277778"
       d="m 101.13858,253.65884 c 0,-0.15942 -0.0118,-0.16534 -0.17713,-0.16534 -0.37789,0.372 -0.91521,0.37789 -1.157283,0.37789 v 0.21255 c 0.141711,0 0.531393,0 0.856153,-0.16531 v 3.01127 c 0,0.19484 0,0.27161 -0.59044,0.27161 h -0.224402 v 0.21258 c 0.106291,-0.006 0.832552,-0.0236 1.051032,-0.0236 0.18302,0 0.92699,0.0177 1.05689,0.0236 v -0.21258 h -0.22437 c -0.59045,0 -0.59045,-0.0768 -0.59045,-0.27161 z" />
    <path
       inkscape:connector-curvature="0"
       id="path843"
       style="display:inline;fill:#000000;fill-opacity:1;fill-rule:nonzero;stroke:none;stroke-width:0.35277778"
       d="m 14.828039,209.67624 -3.667753,-2.08668 1.391313,3.98381 z" />
    <path
       inkscape:connector-curvature="0"
       id="path833"
       style="display:inline;fill:#000000;fill-opacity:1;fill-rule:nonzero;stroke:none;stroke-width:0.35277778"
       d="m 93.622442,249.57008 3.960778,-1.45556 -3.941234,-1.50771 z" />
  </g>
  <g
     inkscape:groupmode="layer"
     id="layer5"
     inkscape:label="shaper-2"
     style="display:none">
    <g
       style="display:inline"
       transform="matrix(0.35277777,0,0,0.35277777,-1.4524719,3.3270399)"
       id="g869">
      <path
         inkscape:connector-curvature="0"
         id="path871"
         style="fill:none;stroke:#000000;stroke-width:2;stroke-linecap:butt;stroke-linejoin:miter;stroke-miterlimit:4;stroke-dasharray:6, 4;stroke-dashoffset:0;stroke-opacity:1"
         d="M 286.5,186.5 189.5836,68.12032" />
    </g>
    <g
       style="display:inline"
       transform="matrix(0.35277777,0,0,0.35277777,-1.4524719,3.3270399)"
       id="g873">
      <path
         inkscape:connector-curvature="0"
         id="path875"
         style="fill:none;stroke:#000000;stroke-width:2;stroke-linecap:butt;stroke-linejoin:miter;stroke-miterlimit:4;stroke-dasharray:6, 4;stroke-dashoffset:0;stroke-opacity:1"
         d="m 32.63396,67.12032 155.00004,1" />
    </g>
    <g
       style="display:inline"
       transform="matrix(0.35277777,0,0,0.35277777,-1.4524719,3.3270399)"
       id="g877">
      <path
         inkscape:connector-curvature="0"
         id="path879"
         style="fill:none;stroke:#ff0000;stroke-width:3;stroke-linecap:butt;stroke-linejoin:miter;stroke-miterlimit:4;stroke-dasharray:none;stroke-opacity:1"
         d="M 131.5,186.5 181.7401,82.02316" />
    </g>
    <g
       style="display:inline"
       transform="matrix(0.35277777,0,0,0.35277777,-1.4524719,3.3270399)"
       id="g883">
      <path
         inkscape:connector-curvature="0"
         id="path885"
         style="fill:none;stroke:#ff0000;stroke-width:3;stroke-linecap:butt;stroke-linejoin:miter;stroke-miterlimit:4;stroke-dasharray:none;stroke-opacity:1"
         d="M 185.5252,83.84332 186.5939,71.92954 177.955,80.203 Z" />
    </g>
    <g
       style="display:inline"
       transform="matrix(0.35277777,0,0,0.35277777,-1.4524719,3.3270399)"
       id="g887">
      <path
         inkscape:connector-curvature="0"
         id="path889"
         style="fill:none;stroke:#000000;stroke-width:1;stroke-linecap:butt;stroke-linejoin:miter;stroke-miterlimit:4;stroke-dasharray:none;stroke-opacity:1"
         d="m 161.2683,147.8202 c 11.8625,8.9381 19.0918,23.2339 19.0918,38.6798" />
    </g>
    <g
       style="display:inline"
       transform="matrix(0.35277777,0,0,0.35277777,-1.4524719,3.3270399)"
       id="g893">
      <path
         inkscape:connector-curvature="0"
         id="path895"
         style="fill:none;stroke:#000000;stroke-width:1;stroke-linecap:butt;stroke-linejoin:miter;stroke-miterlimit:4;stroke-dasharray:none;stroke-opacity:1"
         d="m 162.8344,145.2615 -8.3895,-1.6175 5.2573,6.735 z" />
    </g>
    <path
       transform="translate(0,-179)"
       inkscape:connector-curvature="0"
       id="path923"
       style="display:inline;fill:#000000;fill-opacity:1;fill-rule:nonzero;stroke:none;stroke-width:0.35277778"
       d="m 65.481818,235.55259 c 0,-0.55671 -0.1518,-1.72917 -1.01219,-1.72917 -1.172457,0 -2.471455,2.37867 -2.471455,4.31027 0,0.79291 0.244616,1.72918 1.01219,1.72918 1.189355,0 2.471455,-2.42083 2.471455,-4.31028 z m -2.58953,1.1556 c 0.143405,-0.53982 0.312103,-1.21465 0.6495,-1.81353 0.227753,-0.41331 0.53982,-0.88568 0.919409,-0.88568 0.413314,0 0.463938,0.53986 0.463938,1.02066 0,0.41331 -0.06749,0.84349 -0.269946,1.67855 z m 1.687019,0.26991 c -0.09282,0.38802 -0.269946,1.105 -0.59048,1.71231 -0.295204,0.57358 -0.615738,0.9869 -0.978464,0.9869 -0.278342,0 -0.455471,-0.24462 -0.455471,-1.02906 0,-0.35429 0.05062,-0.84352 0.26991,-1.67015 z" />
    <path
       transform="translate(0,-179)"
       inkscape:connector-curvature="0"
       id="path925"
       style="display:inline;fill:#000000;fill-opacity:1;fill-rule:nonzero;stroke:none;stroke-width:0.35277778"
       d="m 68.148607,238.81579 c -0.153529,0.0354 -0.248003,0.15942 -0.248003,0.27749 0,0.13582 0.11811,0.18895 0.194874,0.18895 0.05902,0 0.283387,-0.0354 0.283387,-0.33655 0,-0.38379 -0.425098,-0.51368 -0.785284,-0.51368 -0.921102,0 -1.086414,0.67899 -1.086414,0.86205 0,0.21847 0.123966,0.36015 0.206657,0.43102 0.153494,0.11808 0.259786,0.14171 0.667209,0.21255 0.123966,0.0236 0.501861,0.0945 0.501861,0.38971 0,0.10037 -0.06495,0.32474 -0.312949,0.47234 -0.230258,0.12993 -0.519571,0.12993 -0.590444,0.12993 -0.236149,0 -0.572735,-0.0532 -0.708519,-0.24801 0.194839,-0.0236 0.324732,-0.17123 0.324732,-0.33655 0,-0.1476 -0.106257,-0.21847 -0.230258,-0.21847 -0.171238,0 -0.342477,0.13582 -0.342477,0.3956 0,0.35426 0.377896,0.57274 0.950631,0.57274 1.086414,0 1.28718,-0.74397 1.28718,-0.97423 0,-0.54321 -0.596371,-0.6495 -0.814811,-0.69085 -0.05316,-0.0118 -0.200766,-0.0354 -0.236185,-0.0472 -0.218475,-0.0413 -0.324767,-0.16532 -0.324767,-0.29521 0,-0.13582 0.106292,-0.29524 0.236185,-0.37789 0.15942,-0.10037 0.366077,-0.11219 0.466478,-0.11219 0.123966,0 0.431024,0.0177 0.560917,0.21848 z" />
    <path
       transform="translate(0,-179)"
       inkscape:connector-curvature="0"
       id="path881"
       style="display:inline;fill:#ff0000;fill-opacity:1;fill-rule:nonzero;stroke:none;stroke-width:0.35277778"
       d="m 63.996694,211.90509 0.377014,-4.20293 -3.047612,2.91871 z" />
    <path
       transform="translate(0,-179)"
       inkscape:connector-curvature="0"
       id="path891"
       style="display:inline;fill:#000000;fill-opacity:1;fill-rule:nonzero;stroke:none;stroke-width:0.35277778"
       d="m 55.991885,233.57206 -2.959629,-0.57061 1.854658,2.37595 z" />
    <path
       transform="translate(0,-179)"
       inkscape:connector-curvature="0"
       id="path919"
       style="display:inline;fill:#000000;fill-opacity:1;fill-rule:nonzero;stroke:none;stroke-width:0.35277778"
       d="m 65.778857,202.85835 c -0.337396,0.56511 -0.666362,0.68322 -1.037484,0.70852 -0.101212,0.008 -0.17713,0.008 -0.17713,0.1687 0,0.0506 0.04216,0.0928 0.109644,0.0928 0.227753,0 0.489232,-0.0253 0.725417,-0.0253 0.278341,0 0.573581,0.0253 0.843491,0.0253 0.05062,0 0.160267,0 0.160267,-0.16027 0,-0.0928 -0.07592,-0.10121 -0.134973,-0.10121 -0.193992,-0.0169 -0.396416,-0.0844 -0.396416,-0.29521 0,-0.10124 0.05059,-0.19402 0.118075,-0.3121 l 0.641067,-1.07968 h 2.117161 c 0.0169,0.17713 0.134973,1.3243 0.134973,1.40865 0,0.25304 -0.438609,0.27834 -0.607307,0.27834 -0.11811,0 -0.202459,0 -0.202459,0.1687 0,0.0928 0.101212,0.0928 0.11811,0.0928 0.345828,0 0.708519,-0.0253 1.054347,-0.0253 0.21089,0 0.742279,0.0253 0.95317,0.0253 0.05062,0 0.151835,0 0.151835,-0.1687 0,-0.0928 -0.08435,-0.0928 -0.193992,-0.0928 -0.522993,0 -0.522993,-0.0591 -0.548287,-0.30364 l -0.514527,-5.27187 c -0.0169,-0.16874 -0.0169,-0.20246 -0.160267,-0.20246 -0.134972,0 -0.168698,0.059 -0.219322,0.1434 z m 1.012225,-1.23994 1.66169,-2.78356 0.26991,2.78356 z" />
    <path
       transform="translate(0,-179)"
       inkscape:connector-curvature="0"
       id="path921"
       style="display:inline;fill:#000000;fill-opacity:1;fill-rule:nonzero;stroke:none;stroke-width:0.35277778"
       d="m 73.14013,202.87405 c -0.153529,0.0354 -0.248003,0.15942 -0.248003,0.27749 0,0.13582 0.11811,0.18895 0.194874,0.18895 0.05902,0 0.283422,-0.0354 0.283422,-0.33655 0,-0.38379 -0.425132,-0.51368 -0.785318,-0.51368 -0.921103,0 -1.086415,0.67899 -1.086415,0.86205 0,0.21847 0.124001,0.36018 0.206657,0.43102 0.153494,0.11808 0.259786,0.14171 0.667209,0.21255 0.124001,0.0236 0.501862,0.0945 0.501862,0.38971 0,0.10037 -0.06495,0.32474 -0.312914,0.47237 -0.230294,0.1299 -0.519607,0.1299 -0.590444,0.1299 -0.236185,0 -0.572735,-0.0532 -0.708555,-0.24801 0.19484,-0.0236 0.324732,-0.17123 0.324732,-0.33655 0,-0.1476 -0.106256,-0.21847 -0.230258,-0.21847 -0.171238,0 -0.342476,0.13582 -0.342476,0.3956 0,0.35426 0.377895,0.57274 0.95063,0.57274 1.086414,0 1.28718,-0.74397 1.28718,-0.97423 0,-0.54321 -0.596335,-0.6495 -0.814811,-0.69085 -0.05313,-0.0118 -0.200766,-0.0354 -0.236184,-0.0472 -0.218476,-0.0413 -0.324732,-0.16532 -0.324732,-0.29521 0,-0.13582 0.106256,-0.29524 0.236149,-0.37789 0.15942,-0.10037 0.366078,-0.11219 0.466478,-0.11219 0.124002,0 0.431024,0.0177 0.560917,0.21848 z" />
  </g>
</svg>
