<?xml version="1.0" encoding="UTF-8" standalone="no"?>
<!-- Created with Inkscape (http://www.inkscape.org/) -->

<svg
   xmlns:dc="http://purl.org/dc/elements/1.1/"
   xmlns:cc="http://creativecommons.org/ns#"
   xmlns:rdf="http://www.w3.org/1999/02/22-rdf-syntax-ns#"
   xmlns:svg="http://www.w3.org/2000/svg"
   xmlns="http://www.w3.org/2000/svg"
   xmlns:sodipodi="http://sodipodi.sourceforge.net/DTD/sodipodi-0.dtd"
   xmlns:inkscape="http://www.inkscape.org/namespaces/inkscape"
   width="210mm"
   height="81mm"
   viewBox="0 0 210 81"
   version="1.1"
   id="svg8"
   inkscape:version="0.92.3 (3ce5693, 2018-03-11)"
   sodipodi:docname="impulse-vectors.svg">
  <defs
     id="defs2" />
  <sodipodi:namedview
     id="base"
     pagecolor="#ffffff"
     bordercolor="#666666"
     borderopacity="1.0"
     inkscape:pageopacity="0.0"
     inkscape:pageshadow="2"
     inkscape:zoom="1.2332031"
     inkscape:cx="341.35019"
     inkscape:cy="252.66335"
     inkscape:document-units="mm"
     inkscape:current-layer="layer1"
     showgrid="false"
     inkscape:window-width="1855"
     inkscape:window-height="1056"
     inkscape:window-x="65"
     inkscape:window-y="24"
     inkscape:window-maximized="1" />
  <metadata
     id="metadata5">
    <rdf:RDF>
      <cc:Work
         rdf:about="">
        <dc:format>image/svg+xml</dc:format>
        <dc:type
           rdf:resource="http://purl.org/dc/dcmitype/StillImage" />
        <dc:title></dc:title>
      </cc:Work>
    </rdf:RDF>
  </metadata>
  <g
     inkscape:label="Layer 1"
     inkscape:groupmode="layer"
     id="layer1"
     transform="translate(0,-216)">
    <g
       transform="matrix(0.35277777,0,0,-0.35277777,-1.2711937,293.74733)"
       inkscape:label="Impulse_Vector_Diagram"
       id="g823">
      <g
         id="g825" />
      <g
         id="g827">
        <g
           transform="matrix(1,0,0,-1,0,220)"
           id="g829">
          <path
             inkscape:connector-curvature="0"
             id="path831"
             style="fill:none;stroke:#000000;stroke-width:3;stroke-linecap:butt;stroke-linejoin:miter;stroke-miterlimit:4;stroke-dasharray:none;stroke-opacity:1"
             d="m 393.5001,153.5 141.4003,0.9123" />
        </g>
        <path
           inkscape:connector-curvature="0"
           id="path833"
           style="fill:#000000;fill-opacity:1;fill-rule:nonzero;stroke:none"
           d="m 534.8733,61.38783 11.2269,4.12765 -11.1727,4.27217 z" />
        <g
           transform="matrix(1,0,0,-1,0,220)"
           id="g835">
          <path
             inkscape:connector-curvature="0"
             id="path837"
             style="fill:none;stroke:#000000;stroke-width:3;stroke-linecap:butt;stroke-linejoin:miter;stroke-miterlimit:4;stroke-dasharray:none;stroke-opacity:1"
             d="m 534.8733,158.6122 11.2269,-4.1277 -11.1727,-4.2722 z" />
        </g>
        <g
           transform="matrix(1,0,0,-1,0,220)"
           id="g839">
          <path
             inkscape:connector-curvature="0"
             id="path841"
             style="fill:none;stroke:#000000;stroke-width:3;stroke-linecap:butt;stroke-linejoin:miter;stroke-miterlimit:4;stroke-dasharray:none;stroke-opacity:1"
             d="M 393.5001,153.5 303.3086,44.59471" />
        </g>
        <path
           inkscape:connector-curvature="0"
           id="path843"
           style="fill:#000000;fill-opacity:1;fill-rule:nonzero;stroke:none"
           d="m 306.5434,178.0842 -10.3785,5.9471 3.909,-11.3049 z" />
        <g
           transform="matrix(1,0,0,-1,0,220)"
           id="g845">
          <path
             inkscape:connector-curvature="0"
             id="path847"
             style="fill:none;stroke:#000000;stroke-width:3;stroke-linecap:butt;stroke-linejoin:miter;stroke-miterlimit:4;stroke-dasharray:none;stroke-opacity:1"
             d="m 306.5434,41.91582 -10.3785,-5.94707 3.909,11.30486 z" />
        </g>
        <g
           transform="matrix(1,0,0,-1,0,220)"
           id="g849">
          <path
             inkscape:connector-curvature="0"
             id="path851"
             style="fill:none;stroke:#000000;stroke-width:1;stroke-linecap:butt;stroke-linejoin:miter;stroke-miterlimit:4;stroke-dasharray:none;stroke-opacity:1"
             d="M 393.5001,10.5 V 228.1941" />
        </g>
        <g
           transform="matrix(1,0,0,-1,0,220)"
           id="g853">
          <path
             inkscape:connector-curvature="0"
             id="path855"
             style="fill:none;stroke:#000000;stroke-width:1;stroke-linecap:butt;stroke-linejoin:miter;stroke-miterlimit:4;stroke-dasharray:none;stroke-opacity:1"
             d="m 290.9958,153.5 257.5043,1" />
        </g>
        <g
           transform="matrix(1,0,0,-1,0,220)"
           id="g857">
          <path
             inkscape:connector-curvature="0"
             id="path859"
             style="fill:none;stroke:#000000;stroke-width:3;stroke-linecap:butt;stroke-linejoin:miter;stroke-miterlimit:4;stroke-dasharray:none;stroke-opacity:1"
             d="M 34.25821,73.95296 33.53683,167.0108" />
        </g>
        <path
           inkscape:connector-curvature="0"
           id="path861"
           style="fill:#000000;fill-opacity:1;fill-rule:nonzero;stroke:none"
           d="m 38.45808,146.0145 -4.11305,11.2322 -4.2867,-11.1671 z" />
        <g
           transform="matrix(1,0,0,-1,0,220)"
           id="g863">
          <path
             inkscape:connector-curvature="0"
             id="path865"
             style="fill:none;stroke:#000000;stroke-width:3;stroke-linecap:butt;stroke-linejoin:miter;stroke-miterlimit:4;stroke-dasharray:none;stroke-opacity:1"
             d="M 38.45808,73.98552 34.34503,62.7533 30.05833,73.9204 Z" />
        </g>
        <g
           transform="matrix(1,0,0,-1,0,220)"
           id="g867">
          <path
             inkscape:connector-curvature="0"
             id="path869"
             style="fill:none;stroke:#000000;stroke-width:3;stroke-linecap:square;stroke-linejoin:miter;stroke-miterlimit:4;stroke-dasharray:none;stroke-opacity:1"
             d="m 33.53683,166.184 106.65747,0.8268" />
        </g>
        <g
           transform="matrix(1,0,0,-1,0,220)"
           id="g871">
          <path
             inkscape:connector-curvature="0"
             id="path873"
             style="fill:none;stroke:#000000;stroke-width:3;stroke-linecap:square;stroke-linejoin:miter;stroke-miterlimit:4;stroke-dasharray:none;stroke-opacity:1"
             d="M 140.1943,167.0108 V 119.4275" />
        </g>
        <path
           inkscape:connector-curvature="0"
           id="path875"
           style="fill:#000000;fill-opacity:1;fill-rule:nonzero;stroke:none"
           d="m 144.3943,100.5725 -4.2,11.2 -4.2,-11.2 z" />
        <g
           transform="matrix(1,0,0,-1,0,220)"
           id="g877">
          <path
             inkscape:connector-curvature="0"
             id="path879"
             style="fill:none;stroke:#000000;stroke-width:3;stroke-linecap:butt;stroke-linejoin:miter;stroke-miterlimit:4;stroke-dasharray:none;stroke-opacity:1"
             d="m 144.3943,119.4275 -4.2,-11.2 -4.2,11.2 z" />
        </g>
        <g
           transform="matrix(1,0,0,-1,0,220)"
           id="g881">
          <path
             inkscape:connector-curvature="0"
             id="path883"
             style="fill:none;stroke:#000000;stroke-width:10;stroke-linecap:butt;stroke-linejoin:miter;stroke-miterlimit:4;stroke-dasharray:none;stroke-opacity:1"
             d="m 187.82,153.5 h 39.8" />
        </g>
        <path
           inkscape:connector-curvature="0"
           id="path885"
           style="fill:#000000;fill-opacity:1;fill-rule:nonzero;stroke:none"
           d="m 227.62,58.1 22.4,8.4 -22.4,8.4 z" />
        <g
           transform="matrix(1,0,0,-1,0,220)"
           id="g887">
          <path
             inkscape:connector-curvature="0"
             id="path889"
             style="fill:none;stroke:#000000;stroke-width:10;stroke-linecap:butt;stroke-linejoin:miter;stroke-miterlimit:4;stroke-dasharray:none;stroke-opacity:1"
             d="m 227.62,161.9 22.4,-8.4 -22.4,-8.4 z" />
        </g>
        <g
           transform="matrix(1,0,0,-1,0,220)"
           id="g891">
          <path
             inkscape:connector-curvature="0"
             id="path893"
             style="fill:none;stroke:#000000;stroke-width:1;stroke-linecap:butt;stroke-linejoin:miter;stroke-miterlimit:4;stroke-dasharray:none;stroke-opacity:1"
             d="M 351.9087,85.83806 C 374.8626,71.7213 403.671,70.11692 428.268,82.09315 455.5861,95.39431 472.9214,123.1158 472.9214,153.5" />
        </g>
        <path
           inkscape:connector-curvature="0"
           id="path895"
           style="fill:#000000;fill-opacity:1;fill-rule:nonzero;stroke:none"
           d="m 350.1949,136.6243 -4.8524,-7.0324 8.2799,2.1077 z" />
        <g
           transform="matrix(1,0,0,-1,0,220)"
           id="g897">
          <path
             inkscape:connector-curvature="0"
             id="path899"
             style="fill:none;stroke:#000000;stroke-width:1;stroke-linecap:butt;stroke-linejoin:miter;stroke-miterlimit:4;stroke-dasharray:none;stroke-opacity:1"
             d="m 350.1949,83.37574 -4.8524,7.03238 8.2799,-2.10775 z" />
        </g>
        <path
           inkscape:connector-curvature="0"
           id="path901"
           style="fill:#000000;fill-opacity:1;fill-rule:nonzero;stroke:none"
           d="m 40.16104,37.14008 c 0,2.55042 -0.15941,5.10085 -1.27522,7.45999 -1.46649,3.06051 -4.08068,3.5706 -5.41965,3.5706 -1.91282,0 -4.24008,-0.82889 -5.54718,-3.79376 -1.02017,-2.19974 -1.17957,-4.68641 -1.17957,-7.23683 0,-2.39103 0.12752,-5.26025 1.43462,-7.68316 1.37085,-2.5823 3.69811,-3.21991 5.26025,-3.21991 1.72154,0 4.14444,0.66949 5.54717,3.69812 1.02017,2.19974 1.17958,4.6864 1.17958,7.20495 z m -6.72675,-10.2017 c -1.24333,0 -3.12427,0.797 -3.69812,3.85752 -0.35068,1.91281 -0.35068,4.8458 -0.35068,6.72674 0,2.04034 0,4.14444 0.25504,5.86598 0.60573,3.79376 2.99675,4.08068 3.79376,4.08068 1.05205,0 3.15615,-0.57384 3.76188,-3.72999 0.3188,-1.7853 0.3188,-4.20821 0.3188,-6.21667 0,-2.39102 0,-4.55888 -0.35068,-6.59922 -0.47821,-3.02863 -2.29539,-3.98504 -3.73,-3.98504 z" />
        <path
           inkscape:connector-curvature="0"
           id="path903"
           style="fill:#000000;fill-opacity:1;fill-rule:nonzero;stroke:none"
           d="m 134.5034,40.96571 h 2.9967 c 0.6376,0 0.9564,0 0.9564,0.63761 0,0.35068 -0.3188,0.35068 -0.8926,0.35068 h -2.8055 c 1.1477,4.52701 1.3071,5.16461 1.3071,5.3559 0,0.54196 -0.3826,0.86077 -0.9245,0.86077 -0.0957,0 -0.9883,-0.03189 -1.2753,-1.1477 L 132.6224,41.954 h -2.9967 c -0.6376,0 -0.9564,0 -0.9564,-0.60572 0,-0.38257 0.255,-0.38257 0.8926,-0.38257 h 2.8055 c -2.2954,-9.05401 -2.4229,-9.59597 -2.4229,-10.16982 0,-1.72154 1.2114,-2.93299 2.933,-2.93299 3.2517,0 5.0689,4.65453 5.0689,4.90957 0,0.3188 -0.255,0.3188 -0.3825,0.3188 -0.287,0 -0.3188,-0.09564 -0.4782,-0.44632 -1.3709,-3.31555 -3.0606,-4.08068 -4.1445,-4.08068 -0.6695,0 -0.9883,0.41444 -0.9883,1.46649 0,0.76513 0.0638,0.98829 0.1913,1.53026 z" />
        <path
           inkscape:connector-curvature="0"
           id="path905"
           style="fill:#000000;fill-opacity:1;fill-rule:nonzero;stroke:none"
           d="m 150.7193,27.49113 h -0.7588 c -0.0669,-0.49096 -0.2901,-1.80761 -0.5802,-2.03077 -0.1785,-0.1339 -1.8969,-0.1339 -2.2093,-0.1339 h -4.1062 c 2.3432,2.0754 3.1243,2.70025 4.4633,3.74911 1.6514,1.31666 3.1912,2.70026 3.1912,4.82029 0,2.70026 -2.3655,4.35166 -5.222,4.35166 -2.7672,0 -4.6418,-1.94151 -4.6418,-3.9946 0,-1.13812 0.9596,-1.2497 1.1828,-1.2497 0.5356,0 1.1827,0.37937 1.1827,1.18275 0,0.4017 -0.1562,1.18276 -1.3166,1.18276 0.6918,1.58445 2.2093,2.0754 3.2581,2.0754 2.2317,0 3.3921,-1.74066 3.3921,-3.54827 0,-1.9415 -1.3836,-3.48132 -2.0977,-4.2847 l -5.3782,-5.31124 c -0.2232,-0.20085 -0.2232,-0.24548 -0.2232,-0.87033 h 9.1943 z" />
        <path
           inkscape:connector-curvature="0"
           id="path907"
           style="fill:#000000;fill-opacity:1;fill-rule:nonzero;stroke:none"
           d="m 127.2529,127.2619 c -1.2752,-2.136 -2.5185,-2.5823 -3.9213,-2.678 -0.3825,-0.0319 -0.6695,-0.0319 -0.6695,-0.6376 0,-0.1913 0.1594,-0.3507 0.4145,-0.3507 0.8607,0 1.849,0.0957 2.7417,0.0957 1.052,0 2.1678,-0.0957 3.188,-0.0957 0.1913,0 0.6057,0 0.6057,0.6058 0,0.3506 -0.2869,0.3825 -0.51,0.3825 -0.7333,0.0638 -1.4984,0.3188 -1.4984,1.1158 0,0.3826 0.1913,0.7333 0.4463,1.1796 l 2.4229,4.0807 h 8.002 c 0.0637,-0.6695 0.5101,-5.0052 0.5101,-5.324 0,-0.9564 -1.6578,-1.0521 -2.2954,-1.0521 -0.4463,0 -0.7652,0 -0.7652,-0.6376 0,-0.3507 0.3826,-0.3507 0.4464,-0.3507 1.3071,0 2.6779,0.0957 3.985,0.0957 0.797,0 2.8055,-0.0957 3.6025,-0.0957 0.1913,0 0.5738,0 0.5738,0.6376 0,0.3507 -0.3188,0.3507 -0.7332,0.3507 -1.9766,0 -1.9766,0.2232 -2.0722,1.1477 l -1.9447,19.9252 c -0.0638,0.6376 -0.0638,0.7651 -0.6058,0.7651 -0.51,0 -0.6376,-0.2231 -0.8288,-0.5419 z m 3.8256,4.6864 6.2805,10.5205 1.0201,-10.5205 z" />
        <path
           inkscape:connector-curvature="0"
           id="path909"
           style="fill:#000000;fill-opacity:1;fill-rule:nonzero;stroke:none"
           d="m 156.7264,122.8732 h -0.7588 c -0.0669,-0.491 -0.2901,-1.8076 -0.5802,-2.0308 -0.1785,-0.1339 -1.8969,-0.1339 -2.2093,-0.1339 h -4.1062 c 2.3432,2.0754 3.1243,2.7003 4.4633,3.7491 1.6514,1.3167 3.1912,2.7003 3.1912,4.8203 0,2.7003 -2.3655,4.3517 -5.222,4.3517 -2.7672,0 -4.6418,-1.9415 -4.6418,-3.9946 0,-1.1382 0.9596,-1.2497 1.1828,-1.2497 0.5356,0 1.1828,0.3793 1.1828,1.1827 0,0.4017 -0.1563,1.1828 -1.3167,1.1828 0.6918,1.5844 2.2093,2.0754 3.2582,2.0754 2.2316,0 3.392,-1.7407 3.392,-3.5483 0,-1.9415 -1.3836,-3.4813 -2.0977,-4.2847 l -5.3782,-5.3112 c -0.2232,-0.2009 -0.2232,-0.2455 -0.2232,-0.8704 h 9.1943 z" />
        <path
           inkscape:connector-curvature="0"
           id="path911"
           style="fill:#000000;fill-opacity:1;fill-rule:nonzero;stroke:none"
           d="m 261.0223,197.4012 c -1.2752,-2.136 -2.5185,-2.5823 -3.9213,-2.678 -0.3825,-0.0319 -0.6694,-0.0319 -0.6694,-0.6376 0,-0.1913 0.1594,-0.3507 0.4144,-0.3507 0.8608,0 1.8491,0.0957 2.7417,0.0957 1.0521,0 2.1679,-0.0957 3.188,-0.0957 0.1913,0 0.6058,0 0.6058,0.6058 0,0.3506 -0.287,0.3825 -0.5101,0.3825 -0.7333,0.0638 -1.4984,0.3188 -1.4984,1.1158 0,0.3826 0.1913,0.7333 0.4463,1.1796 l 2.4229,4.0807 h 8.002 c 0.0638,-0.6695 0.5101,-5.0052 0.5101,-5.324 0,-0.9564 -1.6578,-1.0521 -2.2954,-1.0521 -0.4463,0 -0.7651,0 -0.7651,-0.6376 0,-0.3507 0.3825,-0.3507 0.4463,-0.3507 1.3071,0 2.6779,0.0957 3.985,0.0957 0.797,0 2.8055,-0.0957 3.6025,-0.0957 0.1913,0 0.5739,0 0.5739,0.6376 0,0.3507 -0.3188,0.3507 -0.7333,0.3507 -1.9766,0 -1.9766,0.2232 -2.0722,1.1477 l -1.9447,19.9252 c -0.0638,0.6376 -0.0638,0.7651 -0.6057,0.7651 -0.5101,0 -0.6376,-0.2231 -0.8289,-0.5419 z m 3.8257,4.6864 6.2804,10.5205 1.0202,-10.5205 z" />
        <path
           inkscape:connector-curvature="0"
           id="path913"
           style="fill:#000000;fill-opacity:1;fill-rule:nonzero;stroke:none"
           d="m 290.4958,193.0125 h -0.7587 c -0.067,-0.491 -0.2902,-1.8076 -0.5803,-2.0308 -0.1785,-0.1339 -1.8968,-0.1339 -2.2093,-0.1339 h -4.1061 c 2.3432,2.0754 3.1242,2.7003 4.4632,3.7491 1.6514,1.3167 3.1912,2.7003 3.1912,4.8203 0,2.7003 -2.3655,4.3517 -5.222,4.3517 -2.7672,0 -4.6417,-1.9415 -4.6417,-3.9946 0,-1.1382 0.9596,-1.2497 1.1827,-1.2497 0.5356,0 1.1828,0.3793 1.1828,1.1827 0,0.4017 -0.1562,1.1828 -1.3167,1.1828 0.6918,1.5844 2.2093,2.0754 3.2582,2.0754 2.2316,0 3.392,-1.7407 3.392,-3.5483 0,-1.9415 -1.3836,-3.4813 -2.0977,-4.2847 l -5.3782,-5.3112 c -0.2231,-0.2009 -0.2231,-0.2455 -0.2231,-0.8704 h 9.1942 z" />
        <path
           inkscape:connector-curvature="0"
           id="path915"
           style="fill:#000000;fill-opacity:1;fill-rule:nonzero;stroke:none"
           d="m 21.36593,173.1863 c -1.27521,-2.136 -2.51855,-2.5824 -3.92128,-2.678 -0.38256,-0.0319 -0.66949,-0.0319 -0.66949,-0.6376 0,-0.1913 0.1594,-0.3507 0.41445,-0.3507 0.86077,0 1.84906,0.0957 2.7417,0.0957 1.05206,0 2.16787,-0.0957 3.18804,-0.0957 0.19128,0 0.60572,0 0.60572,0.6057 0,0.3507 -0.28692,0.3826 -0.51008,0.3826 -0.73325,0.0638 -1.49838,0.3188 -1.49838,1.1158 0,0.3826 0.19128,0.7333 0.44633,1.1796 l 2.4229,4.0807 h 8.00196 c 0.06376,-0.6695 0.51009,-5.0052 0.51009,-5.324 0,-0.9565 -1.65778,-1.0521 -2.29539,-1.0521 -0.44632,0 -0.76512,0 -0.76512,-0.6376 0,-0.3507 0.38256,-0.3507 0.44632,-0.3507 1.30709,0 2.67795,0.0957 3.98504,0.0957 0.79701,0 2.80547,-0.0957 3.60248,-0.0957 0.19128,0 0.57384,0 0.57384,0.6376 0,0.3507 -0.3188,0.3507 -0.73324,0.3507 -1.97658,0 -1.97658,0.2232 -2.07223,1.1477 l -1.94469,19.9252 c -0.06377,0.6376 -0.06377,0.7651 -0.60573,0.7651 -0.51009,0 -0.63761,-0.2231 -0.82889,-0.5419 z m 3.82564,4.6864 6.28042,10.5205 1.02017,-10.5205 z" />
        <path
           inkscape:connector-curvature="0"
           id="path917"
           style="fill:#000000;fill-opacity:1;fill-rule:nonzero;stroke:none"
           d="m 47.04567,178.9291 c 0,0.6025 -0.04464,0.6248 -0.66949,0.6248 -1.42823,-1.4059 -3.459,-1.4282 -4.37397,-1.4282 v -0.8034 c 0.53559,0 2.00846,0 3.23585,0.6249 v -11.3813 c 0,-0.7364 0,-1.0265 -2.23162,-1.0265 h -0.84801 v -0.8034 c 0.40169,0.0223 3.14658,0.0893 3.97227,0.0893 0.6918,0 3.50364,-0.067 3.9946,-0.0893 v 0.8034 h -0.84802 c -2.23161,0 -2.23161,0.2901 -2.23161,1.0265 z" />
        <path
           inkscape:connector-curvature="0"
           id="path919"
           style="fill:#000000;fill-opacity:1;fill-rule:nonzero;stroke:none"
           d="m 555.2485,61.14508 c -1.2752,-2.13598 -2.5186,-2.5823 -3.9213,-2.67794 -0.3826,-0.03188 -0.6695,-0.03188 -0.6695,-0.63761 0,-0.19128 0.1594,-0.35068 0.4144,-0.35068 0.8608,0 1.8491,0.09564 2.7417,0.09564 1.0521,0 2.1679,-0.09564 3.1881,-0.09564 0.1913,0 0.6057,0 0.6057,0.60572 0,0.35069 -0.2869,0.38257 -0.5101,0.38257 -0.7332,0.06376 -1.4984,0.3188 -1.4984,1.11581 0,0.38256 0.1913,0.73324 0.4464,1.17957 l 2.4229,4.08068 h 8.0019 c 0.0638,-0.66949 0.5101,-5.00521 0.5101,-5.32401 0,-0.95641 -1.6578,-1.05205 -2.2954,-1.05205 -0.4463,0 -0.7651,0 -0.7651,-0.63761 0,-0.35068 0.3826,-0.35068 0.4463,-0.35068 1.3071,0 2.678,0.09564 3.9851,0.09564 0.797,0 2.8054,-0.09564 3.6025,-0.09564 0.1912,0 0.5738,0 0.5738,0.6376 0,0.35069 -0.3188,0.35069 -0.7333,0.35069 -1.9765,0 -1.9765,0.22316 -2.0722,1.14769 l -1.9447,19.9252 c -0.0637,0.6376 -0.0637,0.76512 -0.6057,0.76512 -0.5101,0 -0.6376,-0.22316 -0.8289,-0.54196 z m 3.8256,4.68641 6.2804,10.5205 1.0202,-10.5205 z" />
        <path
           inkscape:connector-curvature="0"
           id="path921"
           style="fill:#000000;fill-opacity:1;fill-rule:nonzero;stroke:none"
           d="m 580.9282,66.88792 c 0,0.60254 -0.0446,0.62486 -0.6695,0.62486 -1.4282,-1.40592 -3.459,-1.42824 -4.374,-1.42824 v -0.80338 c 0.5356,0 2.0085,0 3.2359,0.62485 V 54.52477 c 0,-0.73643 0,-1.02654 -2.2316,-1.02654 h -0.848 v -0.80338 c 0.4017,0.02231 3.1465,0.08926 3.9722,0.08926 0.6918,0 3.5037,-0.06695 3.9946,-0.08926 v 0.80338 h -0.848 c -2.2316,0 -2.2316,0.29011 -2.2316,1.02654 z" />
        <path
           inkscape:connector-curvature="0"
           id="path923"
           style="fill:#000000;fill-opacity:1;fill-rule:nonzero;stroke:none"
           d="m 463.5452,145.2843 c 0,1.4346 -0.5738,2.2316 -1.2752,2.2316 -0.8289,0 -1.6896,-0.7651 -1.6896,-1.4984 0,-0.3188 0.1594,-0.6694 0.4782,-0.9564 0.5419,-0.4782 1.1158,-1.3389 1.1158,-2.6779 0,-1.2752 -0.6058,-3.0924 -1.594,-4.5589 -0.9565,-1.3708 -2.136,-2.4548 -3.6344,-2.4548 -1.8172,0 -2.8055,1.1477 -3.0924,2.8692 0.3507,0.8289 1.0839,2.8693 1.0839,3.7619 0,0.3826 -0.1594,0.7014 -0.5738,0.7014 -0.2551,0 -0.6057,-0.0638 -0.8608,-0.542 -0.3507,-0.6376 -0.7332,-2.7098 -0.7332,-3.8575 -1.0521,-1.4984 -2.3273,-2.933 -4.3357,-2.933 -2.1041,0 -2.7736,1.881 -2.7736,3.6663 0,3.985 3.2518,7.3324 3.2518,7.7469 0,0.3507 -0.2551,0.6057 -0.6058,0.6057 -0.4144,0 -0.6376,-0.4144 -0.8289,-0.7014 -1.6259,-2.3591 -2.8373,-6.1529 -2.8373,-9.054 0,-2.1997 0.7332,-4.5589 3.3474,-4.5589 2.2635,0 3.7619,1.5941 4.9096,3.3475 0.2869,-1.8491 1.5303,-3.3475 3.5068,-3.3475 2.4867,0 4.017,1.9447 5.1646,4.3358 0.7652,1.5621 1.9766,5.8978 1.9766,7.8744 z" />
        <path
           inkscape:connector-curvature="0"
           id="path925"
           style="fill:#000000;fill-opacity:1;fill-rule:nonzero;stroke:none"
           d="m 471.8183,146.1769 h 2.9967 c 0.6376,0 0.9564,0 0.9564,0.6377 0,0.3506 -0.3188,0.3506 -0.8926,0.3506 h -2.8055 c 1.1477,4.527 1.3071,5.1646 1.3071,5.3559 0,0.542 -0.3826,0.8608 -0.9245,0.8608 -0.0957,0 -0.9883,-0.0319 -1.2752,-1.1477 l -1.2434,-5.069 h -2.9967 c -0.6376,0 -0.9564,0 -0.9564,-0.6057 0,-0.3826 0.255,-0.3826 0.8926,-0.3826 h 2.8055 c -2.2954,-9.054 -2.4229,-9.5959 -2.4229,-10.1698 0,-1.7215 1.2114,-2.933 2.933,-2.933 3.2518,0 5.0689,4.6546 5.0689,4.9096 0,0.3188 -0.255,0.3188 -0.3825,0.3188 -0.287,0 -0.3188,-0.0956 -0.4782,-0.4463 -1.3709,-3.3156 -3.0605,-4.0807 -4.1445,-4.0807 -0.6695,0 -0.9883,0.4144 -0.9883,1.4665 0,0.7651 0.0638,0.9883 0.1913,1.5303 z" />
        <path
           inkscape:connector-curvature="0"
           id="path927"
           style="fill:#000000;fill-opacity:1;fill-rule:nonzero;stroke:none"
           d="m 488.0265,132.7024 h -0.7588 c -0.0669,-0.491 -0.2901,-1.8076 -0.5802,-2.0308 -0.1785,-0.1339 -1.8969,-0.1339 -2.2093,-0.1339 h -4.1062 c 2.3432,2.0754 3.1243,2.7002 4.4633,3.7491 1.6514,1.3167 3.1912,2.7003 3.1912,4.8203 0,2.7003 -2.3655,4.3517 -5.222,4.3517 -2.7672,0 -4.6418,-1.9416 -4.6418,-3.9946 0,-1.1382 0.9596,-1.2497 1.1828,-1.2497 0.5356,0 1.1828,0.3793 1.1828,1.1827 0,0.4017 -0.1563,1.1828 -1.3167,1.1828 0.6918,1.5844 2.2093,2.0754 3.2582,2.0754 2.2316,0 3.392,-1.7407 3.392,-3.5483 0,-1.9415 -1.3836,-3.4813 -2.0977,-4.2847 l -5.3782,-5.3112 c -0.2232,-0.2009 -0.2232,-0.2455 -0.2232,-0.8704 h 9.1943 z" />
      </g>
    </g>
  </g>
</svg>
